<svg width="8" height="5" viewBox="0 0 8 5" fill="none" xmlns="http://www.w3.org/2000/svg">
<path fill-rule="evenodd" clip-rule="evenodd" d="M0.597432 0.624163C0.727389 0.494245 0.903624 0.421261 1.08738 0.421261C1.27114 0.421261 1.44738 0.494245 1.57733 0.624163L3.85938 2.90621L6.14143 0.624163C6.20536 0.557974 6.28183 0.50518 6.36638 0.46886C6.45093 0.432541 6.54186 0.413423 6.63388 0.412624C6.72589 0.411824 6.81715 0.429358 6.90231 0.464203C6.98748 0.499047 7.06486 0.550505 7.12992 0.615573C7.19499 0.68064 7.24645 0.758015 7.28129 0.843182C7.31614 0.928349 7.33367 1.0196 7.33287 1.11162C7.33207 1.20364 7.31296 1.29457 7.27664 1.37912C7.24032 1.46367 7.18752 1.54014 7.12133 1.60406L4.34933 4.37606C4.21938 4.50598 4.04314 4.57897 3.85938 4.57897C3.67562 4.57897 3.49939 4.50598 3.36943 4.37606L0.597432 1.60406C0.467515 1.47411 0.394531 1.29787 0.394531 1.11411C0.394531 0.930355 0.467515 0.754119 0.597432 0.624163Z" fill="black"/>
</svg>
