<svg width="28" height="32" viewBox="0 0 28 32" fill="none" xmlns="http://www.w3.org/2000/svg">
<path fill-rule="evenodd" clip-rule="evenodd" d="M13.9844 31.7539C9.65096 27.9298 5.81926 23.6049 1.39456 19.9173C1.34895 19.8718 1.30333 19.8263 1.25772 19.7808C-0.5669 17.8232 0.0261008 12.7243 0.391024 10.3115C0.619102 8.58153 0.984025 6.85156 1.34895 5.16713C1.62264 3.98347 1.89633 2.79981 2.12441 1.61615C2.21564 1.38852 2.48934 1.25195 2.71741 1.343C2.94549 1.43405 3.2648 1.66167 3.49288 1.79825C3.58411 1.84378 4.17711 2.20798 4.22272 2.02588C4.31395 1.84378 4.40519 1.5251 4.63326 1.38852C5.31749 0.93327 5.9105 1.25195 6.45788 1.7072L6.5035 1.75273C6.54911 1.75273 6.64034 1.79825 6.68596 1.79825C7.0965 1.84378 7.50704 0.978795 8.19127 0.933269C8.37373 0.933269 8.64742 0.978795 8.82988 1.06985C9.10358 1.1609 9.33165 1.343 9.51412 1.5251C9.55973 1.38852 9.69658 1.343 9.87904 1.38852C10.3808 1.43405 10.9738 1.66167 11.43 1.84378C11.43 1.7072 11.4756 1.57062 11.4756 1.43405C11.5212 1.11537 11.5668 0.614592 11.658 0.295915C11.658 0.295915 11.658 0.250389 11.7037 0.250389C11.7037 0.204864 11.7493 0.204864 11.7493 0.159339C11.7949 0.113813 11.7949 0.068288 11.8405 0.068288C11.9774 -0.0227627 12.1598 -0.0227627 12.2967 0.068288C13.6195 0.842219 14.7599 1.98035 15.8547 2.98191C17.0863 4.12004 18.4091 5.1216 19.8688 5.98658C22.7882 7.71655 25.069 10.357 27.7603 12.3601C27.9428 12.4967 28.034 12.7243 27.9884 12.9064V12.952C26.848 16.8216 25.5251 20.5092 23.9286 24.1967C22.8794 26.6551 21.7847 29.0224 20.6899 31.4808C20.5987 31.6629 20.4162 31.7994 20.2337 31.7539C18.3179 31.7994 16.4477 32.0726 14.5318 31.9816C14.4406 31.9816 14.3494 31.9816 14.2581 31.936C14.1669 31.936 14.03 31.845 13.9844 31.7539ZM25.9357 12.178C25.4795 13.0885 25.0234 14.0446 24.5672 15.0006C23.7918 16.6395 23.0163 18.3239 22.2408 19.9629C21.3741 21.8294 20.5074 23.6959 19.6864 25.517C19.4127 26.1543 19.0934 26.7917 18.8197 27.429C18.7284 27.6111 18.6372 27.8387 18.546 28.0208C18.5004 28.1119 18.4547 28.2029 18.4547 28.294C18.4547 28.294 18.4547 28.294 18.4547 28.3395C19.0477 28.9314 19.6407 29.6142 20.1425 30.2971C21.0092 28.1119 21.9215 25.9722 22.8338 23.787C23.5637 22.1026 24.2479 20.4181 24.9321 18.7337C25.662 16.8671 26.3462 14.9551 26.9392 13.043C26.6199 12.7243 26.3006 12.4512 25.9357 12.178ZM17.7705 28.9314C16.2196 29.2045 14.7143 29.5687 13.1634 29.7508C13.6195 30.1605 14.0757 30.6158 14.5318 31.0255C16.1284 31.1166 17.7705 30.8889 19.3671 30.7979C18.9109 30.115 18.3635 29.5232 17.7705 28.9314ZM12.1142 28.7493C13.6651 28.7037 15.2617 28.3395 16.8126 28.0208C15.4441 26.7917 13.9844 25.7446 12.5247 24.6975C10.7001 23.4228 9.01235 21.9205 7.37019 20.4181C6.36665 20.6913 5.40872 21.0555 4.4508 21.3286C7.05088 23.7415 9.55973 26.2909 12.1142 28.7493ZM3.53849 20.5092C4.54203 20.2815 5.49996 19.8718 6.5035 19.5531C6.18419 19.2345 5.86488 18.9158 5.54557 18.5971C5.0438 19.6442 3.90341 19.7352 2.85426 19.8718C3.08234 20.0994 3.31041 20.2815 3.53849 20.5092ZM25.1146 11.4496C23.3356 9.90176 21.5566 8.12627 19.5039 6.94261C18.1354 6.12316 16.8126 5.21265 15.6722 4.12004C15.3073 3.80137 14.988 3.48269 14.623 3.11849C12.1142 8.44495 10.3808 14.0901 8.00881 19.4621C8.82988 20.1905 9.69658 20.9189 10.5633 21.6473C11.2931 22.2847 12.023 22.922 12.7984 23.5138C13.3458 23.9691 13.9388 24.4243 14.4862 24.8796C15.6266 25.7446 16.7214 26.6096 17.7705 27.5656C17.8617 27.3835 17.953 27.1559 18.0442 26.9738C18.3179 26.3364 18.6372 25.6991 18.9109 25.0162C19.7776 23.1496 20.5987 21.2376 21.4654 19.371C22.2408 17.7321 22.9707 16.0932 23.7461 14.4543C24.1567 13.4527 24.6128 12.4057 25.1146 11.4496ZM14.03 21.0099C14.0757 20.8734 14.1669 20.6457 14.2125 20.5092C14.3494 20.145 14.4862 19.7808 14.623 19.4621C15.0336 18.4605 15.4441 17.4134 15.8547 16.4119C16.2652 15.4559 16.6301 14.4998 17.0407 13.5438C17.1775 13.1796 17.36 12.8609 17.4968 12.4967C17.5881 12.3146 17.6793 12.087 17.7705 11.9049C18.0898 11.3586 17.3144 10.6757 16.9951 11.2675C16.8582 11.4951 16.767 11.7228 16.6757 11.9049C16.4933 12.2691 16.3564 12.6333 16.174 12.9975C15.7634 13.999 15.3529 15.0006 14.9424 16.0022C14.4862 17.0948 14.0757 18.1418 13.6651 19.2345C13.5739 19.5076 13.0721 20.7368 13.0721 20.9644C13.1177 21.6928 14.03 21.6928 14.03 21.0099ZM10.1527 19.5076C10.6545 20.0084 11.43 20.6913 12.1598 20.145C13.2546 19.3255 14.2581 17.0948 14.7599 15.8656C15.1704 14.9551 15.4897 13.999 15.809 12.9975C16.0371 12.3601 16.2652 11.6317 16.4021 10.9944C16.4933 10.1749 15.4441 9.49203 14.988 8.94573C14.8511 8.76363 14.4406 8.536 14.2125 8.7181C13.8476 9.03678 13.2546 10.1294 13.0265 10.5391C12.4335 11.6317 11.9317 12.7243 11.4756 13.8625C10.9282 15.1372 9.87904 17.8232 9.97027 19.1889C9.97027 19.3255 10.0159 19.4621 10.1527 19.5076ZM10.837 18.8703C11.065 19.0524 11.43 19.28 11.658 19.0979C12.5247 18.415 13.437 16.3664 13.8476 15.3193C14.2581 14.3632 14.5774 13.3617 14.8967 12.3601C14.988 12.1325 15.2617 11.0854 15.2617 10.8123C15.2161 10.7667 15.1704 10.6757 15.1248 10.6302C15.0336 10.4936 14.9424 10.4025 14.8511 10.266C14.8055 10.1749 14.623 9.99281 14.5318 9.90176C13.7564 10.9944 10.9282 17.9142 10.837 18.8703ZM13.8476 2.43561C13.437 2.0714 13.0265 1.7072 12.5704 1.38852C12.5247 1.79825 12.4335 2.16245 12.3879 2.57218C12.2967 3.66479 11.8861 4.71187 11.5212 5.71343C10.7913 7.8076 9.87904 9.85624 8.82988 11.8138C7.82634 13.7259 6.86842 15.6835 5.95611 17.6866C6.00173 17.7321 6.04734 17.7776 6.13857 17.8232C6.27542 17.9142 6.41227 18.0508 6.5035 18.1418C6.73157 18.3695 7.00527 18.5516 7.23334 18.7792C9.55973 13.4072 11.2931 7.76207 13.8476 2.43561ZM11.2931 2.84533C11.2019 2.79981 11.1107 2.75428 11.0194 2.70876C10.8826 2.66323 10.5177 2.52666 10.3808 2.57218C10.3352 2.61771 10.3352 2.66323 10.3352 2.66323C10.3352 2.70876 10.2896 2.75428 10.244 2.84533C9.83342 3.98347 9.37727 5.07608 8.8755 6.16868C8.32811 7.39787 7.73511 8.67258 7.18773 9.90176C6.00173 12.6333 4.99819 15.3648 4.40519 18.2784C4.99819 17.7321 5.40872 16.2298 5.72803 15.5924C6.59473 13.7714 7.55265 12.0415 8.46496 10.2204C9.51412 8.12627 10.472 5.98658 11.065 3.71032C11.2019 3.48269 11.2475 3.16401 11.2931 2.84533ZM3.62972 17.8232C4.35957 14.8185 5.27188 11.9049 6.5035 8.99125C7.00527 7.8076 7.55265 6.62394 8.10004 5.4858C8.55619 4.5753 9.01235 3.61926 9.42288 2.70876C9.14919 2.48113 8.73865 2.0714 8.46496 2.0714C8.19127 2.02588 7.87196 2.29903 7.6895 2.48113C7.4158 2.75428 7.32457 3.07296 6.91404 3.07296C6.18419 4.43872 5.6368 6.07763 5.27188 7.57997C4.72449 9.62861 4.26834 11.7683 3.99465 13.908C3.81218 15.1827 3.67534 16.5029 3.62972 17.8232ZM2.62618 16.5029C2.6718 16.0932 2.71741 15.7745 2.71741 15.5014C2.94549 13.4983 3.31041 11.4951 3.72095 9.53756C3.99465 8.21732 4.35957 6.85156 4.72449 5.57685C5.0438 4.52977 5.40872 3.48269 5.86488 2.52666C5.81926 2.48113 5.77365 2.43561 5.72803 2.43561C5.6368 2.29903 5.45434 2.2535 5.36311 2.29903C5.13503 2.39008 4.90695 2.98191 4.77011 3.20954C4.77011 3.25506 4.72449 3.25506 4.67888 3.30059C4.35957 4.16557 4.08588 5.03055 3.76657 5.94106C3.58411 6.44184 3.44726 6.94261 3.31041 7.44339C3.21918 7.76207 3.12795 8.12627 3.08234 8.44495C2.62618 11.0399 2.3981 13.8169 2.62618 16.5029ZM1.98757 18.9158C2.03318 18.9158 2.03318 18.9158 2.0788 18.9158C1.34895 15.4559 1.34895 11.3586 2.17003 7.94417C2.3981 7.03366 2.62618 6.07763 2.89987 5.16713C3.08234 4.43872 3.31041 3.66479 3.58411 2.98191C3.40164 2.84533 3.12795 2.70876 2.99111 2.75428C2.89987 2.75428 2.80864 2.98191 2.80864 3.07296C2.21564 5.57685 1.66826 8.03522 1.30333 10.5846C1.02964 12.5878 0.482255 17.2769 1.98757 18.9158Z" fill="white"/>
</svg>
