<svg width="20" height="20" viewBox="0 0 20 20" fill="none" xmlns="http://www.w3.org/2000/svg">
<path d="M6.66667 8.33398H6.675H6.66667ZM10 8.33398H10.0083H10ZM13.3333 8.33398H13.3417H13.3333ZM7.5 13.334H4.16667C3.72464 13.334 3.30072 13.1584 2.98816 12.8458C2.67559 12.5333 2.5 12.1093 2.5 11.6673V5.00065C2.5 4.55862 2.67559 4.1347 2.98816 3.82214C3.30072 3.50958 3.72464 3.33398 4.16667 3.33398H15.8333C16.2754 3.33398 16.6993 3.50958 17.0118 3.82214C17.3244 4.1347 17.5 4.55862 17.5 5.00065V11.6673C17.5 12.1093 17.3244 12.5333 17.0118 12.8458C16.6993 13.1584 16.2754 13.334 15.8333 13.334H11.6667L7.5 17.5007V13.334Z" stroke="#4E4E4E" stroke-linecap="round" stroke-linejoin="round"/>
</svg>
