<svg width="21" height="16" viewBox="0 0 21 16" fill="none" xmlns="http://www.w3.org/2000/svg">
<path d="M1.33594 4L9.22594 9.26C9.5546 9.47928 9.94084 9.5963 10.3359 9.5963C10.731 9.5963 11.1173 9.47928 11.4459 9.26L19.3359 4M3.33594 15H17.3359C17.8664 15 18.3751 14.7893 18.7502 14.4142C19.1252 14.0391 19.3359 13.5304 19.3359 13V3C19.3359 2.46957 19.1252 1.96086 18.7502 1.58579C18.3751 1.21071 17.8664 1 17.3359 1H3.33594C2.8055 1 2.2968 1.21071 1.92172 1.58579C1.54665 1.96086 1.33594 2.46957 1.33594 3V13C1.33594 13.5304 1.54665 14.0391 1.92172 14.4142C2.2968 14.7893 2.8055 15 3.33594 15Z" stroke="#0190D6" stroke-width="2" stroke-linecap="round" stroke-linejoin="round"/>
</svg>
