<svg width="453" height="462" viewBox="0 0 453 462" fill="none" xmlns="http://www.w3.org/2000/svg">
<g clip-path="url(#clip0_15_2563)">
<path fill-rule="evenodd" clip-rule="evenodd" d="M369.188 190.721C368.872 190.723 368.492 190.599 368.395 190.251C368.235 189.778 368.516 189.239 368.958 189.173L369.938 189.073L370.476 189.038C371.329 189.002 371.62 190.044 370.958 190.458C370.832 190.522 370.737 190.491 370.706 190.586L370.168 190.621L369.188 190.721ZM415.45 350.004C415.361 350.922 414.191 350.96 413.933 350.139C413.964 350.044 413.869 350.013 413.9 349.918C413.961 349.412 413.926 348.874 413.956 348.463C413.923 348.242 414.111 347.988 414.268 347.829C414.804 347.478 415.533 347.822 415.442 348.423C415.571 348.992 415.511 349.498 415.45 350.004ZM415.638 343.963C415.58 344.786 414.569 344.981 414.185 344.224C414.121 344.098 414.152 344.003 414.088 343.877C414.054 343.339 414.083 342.928 414.048 342.391C414.012 341.537 415.118 341.373 415.533 342.035C415.597 342.161 415.566 342.256 415.63 342.382C415.633 343.014 415.604 343.426 415.638 343.963ZM415.51 337.924C415.543 338.145 415.45 338.43 415.323 338.494C414.852 338.971 414.122 338.627 414.024 337.964C413.989 337.426 413.924 336.984 413.984 336.478C413.948 335.624 415.085 335.365 415.468 336.122C415.532 336.248 415.532 336.248 415.501 336.343C415.41 336.944 415.475 337.386 415.51 337.924ZM414.97 331.855C415.007 332.709 413.839 333.063 413.486 332.211C413.517 332.116 413.422 332.085 413.453 331.99C413.419 331.453 413.353 331.01 413.318 330.473C413.317 330.157 413.41 329.872 413.662 329.744C414.167 329.488 414.706 329.769 414.835 330.338C414.87 330.875 414.905 331.413 414.97 331.855ZM414.21 325.819C414.306 326.167 414.087 326.516 413.74 326.613C413.266 326.773 412.822 326.523 412.661 326.049C412.596 325.607 412.466 325.038 412.4 324.596C412.269 323.711 413.437 323.357 413.821 324.114C413.821 324.114 413.885 324.24 413.854 324.335C414.078 324.935 414.144 325.377 414.21 325.819ZM413.07 319.975C413.233 320.765 412.224 321.277 411.714 320.584C411.65 320.458 411.65 320.458 411.586 320.331C411.425 319.858 411.36 319.416 411.23 318.847C411.068 318.057 412.077 317.546 412.586 318.239C412.65 318.365 412.65 318.365 412.714 318.491C412.78 318.933 412.941 319.407 413.07 319.975ZM411.425 314.071C411.489 314.197 411.427 314.387 411.364 314.577C411.147 315.242 410.198 315.248 409.909 314.522C409.749 314.049 409.588 313.575 409.427 313.102C409.17 312.281 410.305 311.705 410.784 312.493L410.848 312.619C411.135 313.029 411.264 313.597 411.425 314.071ZM409.401 308.358C409.69 309.084 408.713 309.817 408.172 309.219C408.077 309.188 408.108 309.093 408.045 308.967C407.884 308.493 407.597 308.084 407.436 307.61C407.148 306.885 407.998 306.216 408.665 306.75C408.76 306.781 408.824 306.907 408.793 307.002C408.984 307.38 409.145 307.854 409.401 308.358ZM406.682 302.839C407.066 303.596 406.216 304.265 405.613 303.857C405.518 303.826 405.454 303.7 405.39 303.574C405.198 303.195 404.911 302.786 404.719 302.407C404.469 302.852 404.218 303.296 403.968 303.74C403.906 303.93 403.622 304.153 403.306 304.155C402.674 304.158 402.354 303.527 402.604 303.083C402.855 302.639 403.105 302.195 403.356 301.751C403.638 301.212 404.239 301.303 404.557 301.618C404.776 301.269 405.281 301.013 405.694 301.358C405.789 301.39 405.758 301.485 405.853 301.516C406.14 301.925 406.396 302.43 406.682 302.839ZM403.176 297.799C403.686 298.492 402.868 299.382 402.201 298.848C402.106 298.817 402.106 298.817 402.042 298.691C401.756 298.281 401.438 297.967 401.056 297.526C400.515 296.928 401.111 296.071 401.871 296.32C401.966 296.351 402.061 296.382 402.22 296.539C402.602 296.98 402.889 297.389 403.176 297.799ZM398.945 293.364C399.613 293.897 399.049 294.976 398.194 294.696C398.099 294.665 398.004 294.634 397.94 294.508C397.686 294.319 397.432 294.131 397.209 293.848L396.891 293.533C396.288 293.125 396.599 292.175 397.326 292.202C397.516 292.265 397.611 292.296 397.706 292.327C397.96 292.515 398.119 292.672 398.278 292.83C398.532 293.018 398.786 293.206 398.945 293.364ZM393.74 289.977C394.47 290.321 394.192 291.493 393.274 291.403C393.179 291.372 393.084 291.341 392.989 291.309L392.545 291.059L392.26 290.966L391.975 290.872L391.594 290.748C390.865 290.404 391.112 289.328 391.871 289.26C391.966 289.291 392.061 289.322 392.156 289.353L392.6 289.604L392.885 289.697L393.17 289.791L393.74 289.977ZM388.036 287.795C388.828 287.949 388.74 289.183 387.886 289.219C387.791 289.188 387.791 289.188 387.665 289.252L387.285 289.127L387 289.034L386.714 288.941L386.334 288.816C385.543 288.663 385.505 287.493 386.294 287.33C386.42 287.266 386.516 287.298 386.611 287.329L386.991 287.453L387.276 287.546L387.561 287.64L388.036 287.795ZM381.865 287.039C382.624 286.971 383.009 288.044 382.253 288.428C382.127 288.492 382.031 288.461 381.905 288.525C381.463 288.59 380.926 288.625 380.483 288.691C379.694 288.853 379.213 287.749 380.001 287.27C380.127 287.206 380.127 287.206 380.253 287.142C380.791 287.108 381.328 287.073 381.865 287.039ZM375.771 288.622C376.528 288.238 377.165 289.183 376.663 289.755C376.632 289.851 376.505 289.914 376.41 289.883C376.032 290.075 375.527 290.331 375.149 290.523C374.897 290.651 374.676 290.684 374.422 290.495C373.882 290.214 373.815 289.455 374.319 289.199C374.857 289.165 375.266 288.878 375.771 288.622ZM370.605 292.192C371.202 291.652 372.06 292.248 371.811 293.008C371.78 293.103 371.749 293.198 371.622 293.262C371.308 293.58 370.962 293.993 370.648 294.311C370.145 294.883 369.067 294.32 369.411 293.59C369.442 293.495 369.473 293.4 369.599 293.336C369.944 292.923 370.29 292.51 370.605 292.192ZM366.71 297.021C366.898 296.767 367.277 296.575 367.562 296.668C368.037 296.824 368.293 297.328 368.042 297.772C367.792 298.216 367.541 298.661 367.322 299.01C366.883 299.708 365.838 299.366 365.896 298.543C365.927 298.448 365.958 298.353 365.99 298.258C366.209 297.909 366.459 297.465 366.71 297.021ZM364.243 302.632C364.305 302.442 364.431 302.378 364.588 302.219C365.219 301.899 365.886 302.433 365.668 303.098C365.513 303.573 365.358 304.049 365.297 304.555C365.204 304.84 365.015 305.094 364.699 305.096C364.131 305.225 363.654 304.754 363.84 304.184C363.901 303.677 364.087 303.107 364.243 302.632ZM363.17 308.804C363.167 308.172 363.892 307.883 364.401 308.26C364.56 308.417 364.687 308.669 364.72 308.89C364.66 309.397 364.726 309.839 364.76 310.377C364.828 311.135 363.755 311.521 363.371 310.764C363.307 310.638 363.338 310.543 363.274 310.416C363.144 309.848 363.11 309.311 363.17 308.804ZM363.995 314.966C363.737 314.145 364.873 313.57 365.351 314.358L365.415 314.484C365.576 314.957 365.768 315.336 365.929 315.809C366.217 316.535 365.367 317.204 364.795 316.701C364.7 316.67 364.636 316.544 364.572 316.418C364.411 315.944 364.251 315.471 363.995 314.966ZM367.187 320.324C366.646 319.727 367.368 318.806 368.098 319.149C368.193 319.18 368.288 319.212 368.352 319.338C368.67 319.652 368.956 320.062 369.369 320.407C369.91 321.005 369.283 321.957 368.554 321.613C368.459 321.582 368.364 321.551 368.3 321.425C367.856 321.175 367.569 320.765 367.187 320.324ZM371.953 324.409C371.255 323.97 371.597 322.925 372.42 322.983C372.515 323.015 372.61 323.046 372.705 323.077C373.149 323.327 373.498 323.547 373.942 323.797C374.132 323.859 374.355 324.143 374.388 324.364C374.517 324.932 373.856 325.347 373.285 325.161C372.841 324.91 372.397 324.66 371.953 324.409ZM377.879 326.558C376.992 326.373 377.08 325.14 377.934 325.103C378.029 325.134 378.029 325.134 378.029 325.134C378.535 325.195 378.946 325.224 379.453 325.285C379.769 325.283 380.023 325.471 380.151 325.723C380.407 326.228 379.999 326.831 379.493 326.771C378.891 326.679 378.354 326.714 377.879 326.558ZM384.106 326.176C383.285 326.433 382.741 325.203 383.498 324.819L383.624 324.755C384.097 324.595 384.571 324.434 384.949 324.242C385.675 323.954 386.408 324.93 385.684 325.535C385.653 325.63 385.558 325.599 385.432 325.663C385.053 325.854 384.58 326.015 384.106 326.176ZM389.656 323.362C389.404 323.49 389.057 323.587 388.803 323.399C388.359 323.148 388.26 322.485 388.701 322.103C389.11 321.816 389.425 321.498 389.834 321.211C390.432 320.67 391.353 321.392 391.009 322.121C390.978 322.217 390.947 322.312 390.821 322.375C390.506 322.693 390.066 323.075 389.656 323.362ZM394.123 319.037C393.589 319.704 392.511 319.141 392.791 318.285C392.822 318.19 392.853 318.095 392.979 318.031C393.324 317.618 393.639 317.3 393.889 316.856C394.423 316.189 395.502 316.752 395.222 317.608C395.191 317.703 395.16 317.798 395.16 317.798C394.783 318.306 394.437 318.719 394.123 319.037ZM397.732 314.115C397.67 314.305 397.544 314.369 397.323 314.402C396.597 314.691 396.023 313.872 396.431 313.269C396.682 312.824 397.027 312.411 397.278 311.967C397.34 311.777 397.466 311.713 397.687 311.68C398.382 311.487 398.987 312.211 398.579 312.814C398.233 313.227 397.983 313.671 397.732 314.115ZM400.898 308.943C400.459 309.641 399.413 309.299 399.472 308.477C399.503 308.382 399.534 308.286 399.565 308.191C399.816 307.747 400.066 307.303 400.317 306.859C400.756 306.161 401.801 306.503 401.742 307.326C401.711 307.421 401.68 307.516 401.649 307.611C401.463 308.181 401.117 308.594 400.898 308.943ZM406.848 298.474C406.504 299.204 405.428 298.957 405.391 298.103C405.422 298.008 405.453 297.913 405.516 297.723C405.766 297.279 406.017 296.835 406.172 296.359C406.516 295.63 407.593 295.877 407.629 296.731C407.598 296.826 407.567 296.921 407.536 297.016L406.848 298.474ZM409.569 293.052C409.256 293.686 408.244 293.565 408.176 292.806C408.112 292.68 408.175 292.49 408.206 292.395C408.456 291.951 408.612 291.476 408.862 291.032C409.206 290.303 410.283 290.55 410.319 291.403C410.288 291.498 410.257 291.593 410.226 291.688C409.975 292.132 409.82 292.608 409.569 293.052ZM412.1 287.567C411.725 288.391 410.49 287.987 410.675 287.1C410.706 287.005 410.706 287.005 410.737 286.91C410.987 286.466 411.143 285.991 411.393 285.547C411.737 284.818 412.814 285.065 412.881 285.823C412.85 285.918 412.914 286.044 412.788 286.108C412.601 286.679 412.351 287.123 412.1 287.567ZM414.536 282.051C414.161 282.875 413.021 282.502 413.08 281.68C413.111 281.584 413.111 281.584 413.142 281.489C413.297 281.014 413.548 280.57 413.703 280.095C413.952 279.335 415.06 279.487 415.127 280.245C415.191 280.371 415.16 280.466 415.098 280.656C414.942 281.132 414.787 281.607 414.536 282.051ZM416.782 276.473C416.438 277.202 415.331 277.05 415.294 276.196C415.326 276.101 415.357 276.006 415.388 275.911C415.543 275.436 415.699 274.961 415.949 274.517C416.198 273.756 417.306 273.908 417.373 274.667C417.437 274.793 417.406 274.888 417.344 275.078C417.188 275.553 416.938 275.998 416.782 276.473ZM418.838 270.832C418.683 271.308 418.209 271.468 417.765 271.218C417.416 270.998 417.319 270.651 417.444 270.271C417.599 269.796 417.755 269.321 417.91 268.845C418.003 268.56 418.287 268.337 418.603 268.336C419.14 268.301 419.491 268.837 419.336 269.312C419.18 269.787 418.994 270.357 418.838 270.832ZM420.735 265.035C420.673 265.225 420.485 265.479 420.263 265.512C419.695 265.641 419.123 265.139 419.309 264.568C419.465 264.093 419.62 263.618 419.776 263.143C420.025 262.382 421.163 262.439 421.2 263.293C421.169 263.388 421.233 263.514 421.201 263.609C421.046 264.084 420.891 264.56 420.735 265.035ZM422.411 259.27C422.257 260.062 421.023 259.974 420.987 259.12C421.018 259.025 420.954 258.899 420.985 258.804L421.17 257.917L421.357 257.347C421.51 256.556 422.744 256.644 422.812 257.402C422.78 257.497 422.844 257.623 422.813 257.718L422.627 258.289L422.411 259.27ZM423.832 253.317C423.739 253.602 423.551 253.856 423.235 253.858C422.697 253.893 422.315 253.452 422.376 252.946C422.436 252.439 422.592 251.964 422.652 251.458C422.806 250.666 423.881 250.597 424.138 251.418C424.202 251.544 424.171 251.639 424.14 251.734C424.048 252.336 423.893 252.811 423.832 253.317ZM424.938 247.366C424.94 247.682 424.625 248 424.309 248.002C423.772 248.036 423.39 247.596 423.45 247.089L423.542 246.488L423.695 245.697C423.849 244.905 424.924 244.836 425.181 245.657C425.245 245.783 425.214 245.878 425.183 245.973L424.998 246.86L424.938 247.366ZM425.822 241.447C425.763 242.27 424.563 242.403 424.305 241.582C424.241 241.456 424.272 241.361 424.303 241.266L424.395 240.665L424.485 239.747C424.512 239.02 425.523 238.824 425.843 239.455C425.907 239.581 425.971 239.707 425.908 239.897L425.819 240.815L425.822 241.447ZM426.231 235.373C426.204 236.101 425.162 236.391 424.842 235.761C424.778 235.634 424.714 235.508 424.745 235.413L424.775 235.002L424.771 234.37L424.831 233.863C424.89 233.041 425.996 232.876 426.285 233.602C426.349 233.728 426.318 233.823 426.286 233.918L426.226 234.425L426.229 235.057L426.231 235.373ZM426.229 229.27C426.265 230.124 425.128 230.383 424.776 229.531C424.712 229.405 424.712 229.405 424.743 229.31L424.708 228.773L424.705 228.14L424.703 227.824C424.667 226.97 425.804 226.711 426.156 227.563C426.125 227.658 426.22 227.689 426.189 227.784L426.191 228.1L426.194 228.733L426.229 229.27ZM425.689 223.201C425.821 224.086 424.653 224.441 424.3 223.589C424.3 223.589 424.236 223.463 424.267 223.367L424.233 222.83L424.103 222.262L424.006 221.914C423.844 221.125 424.917 220.739 425.332 221.401C425.396 221.527 425.491 221.558 425.46 221.653L425.556 222.001L425.686 222.569L425.689 223.201ZM424.581 217.262C424.775 217.957 423.956 218.531 423.384 218.028C423.32 217.902 423.256 217.776 423.192 217.65L423.159 217.428L423.03 216.86L422.836 216.165C422.578 215.345 423.588 214.833 424.192 215.557C424.256 215.683 424.256 215.683 424.32 215.809L424.514 216.504L424.644 217.072L424.581 217.262ZM422.62 211.36C422.908 212.085 421.963 212.723 421.391 212.22C421.296 212.189 421.327 212.094 421.263 211.968L421.135 211.716L420.88 211.211L420.655 210.612C420.271 209.855 421.216 209.217 421.883 209.751C421.978 209.782 422.042 209.908 422.011 210.003L422.075 210.129L422.331 210.634L422.587 211.139L422.62 211.36ZM419.775 205.905C419.934 206.062 419.936 206.378 419.873 206.568C419.687 207.138 418.897 207.301 418.546 206.765L418.482 206.639L418.196 206.23L417.845 205.694L417.686 205.537C417.463 205.253 417.461 204.937 417.649 204.683C417.995 204.27 418.532 204.236 418.914 204.676L419.073 204.833L419.36 205.243L419.647 205.652L419.775 205.905ZM416.08 201.118C416.621 201.716 415.899 202.637 415.17 202.294C415.075 202.262 414.979 202.231 414.916 202.105L414.534 201.665L414.121 201.319L413.898 201.036C413.326 200.533 413.858 199.55 414.713 199.829C414.808 199.861 414.903 199.892 414.967 200.018L415.285 200.332L415.667 200.773L416.08 201.118ZM411.44 196.97C411.694 197.158 411.791 197.506 411.698 197.791C411.542 198.266 410.943 198.491 410.53 198.145L410.117 197.799L409.672 197.549L409.323 197.329C408.625 196.891 409.093 195.781 409.885 195.935C409.98 195.966 410.075 195.997 410.17 196.028L410.519 196.248L410.932 196.593L411.44 196.97ZM406.268 193.805C406.997 194.148 406.719 195.32 405.802 195.23C405.706 195.199 405.706 195.199 405.611 195.168L405.326 195.075L404.787 194.793L404.248 194.511C403.519 194.168 403.735 193.186 404.493 193.119C404.588 193.15 404.714 193.086 404.905 193.148L405.444 193.43L406.014 193.616L406.268 193.805ZM400.626 191.432C401.386 191.681 401.329 192.82 400.445 192.951C400.35 192.92 400.254 192.889 400.159 192.858L399.684 192.703L399.114 192.516L398.734 192.392C397.973 192.143 398.03 191.004 398.915 190.873C399.01 190.904 399.01 190.904 399.105 190.935L399.485 191.059L400.151 191.277L400.626 191.432ZM394.704 189.916C395.495 190.069 395.533 191.239 394.649 191.371C394.554 191.34 394.428 191.404 394.333 191.372L393.731 191.281L393.161 191.094L392.971 191.032C392.781 190.97 392.686 190.939 392.527 190.782C392.081 190.215 392.551 189.422 393.247 189.544L393.437 189.607L394.134 189.729L394.704 189.916ZM388.69 189C389.513 189.059 389.646 190.26 388.73 190.486C388.635 190.455 388.604 190.55 388.509 190.519L388.129 190.395L387.401 190.367L387.085 190.369C386.864 190.402 386.61 190.214 386.546 190.087C386.195 189.552 386.634 188.854 387.235 188.945L387.552 188.943L388.374 189.002L388.69 189ZM382.617 188.591C382.933 188.59 383.187 188.778 383.315 189.03C383.57 189.535 383.163 190.138 382.656 190.077L381.834 190.019L381.201 190.022C380.253 190.027 379.993 188.89 380.814 188.633C380.94 188.569 381.035 188.6 381.13 188.631L381.763 188.628L382.617 188.591ZM376.513 188.594C377.146 188.59 377.529 189.347 377.153 189.855C376.995 190.014 376.838 190.173 376.648 190.111L375.699 190.116L375.162 190.151C374.403 190.218 374.018 189.145 374.775 188.761C374.775 188.761 374.901 188.697 374.996 188.728L375.629 188.725L376.513 188.594Z" fill="black"/>
</g>
<g clip-path="url(#clip1_15_2563)">
<path fill-rule="evenodd" clip-rule="evenodd" d="M163.726 344.655C164.026 344.557 164.128 344.358 164.17 344.078C164.254 343.519 163.678 343.075 163.076 343.27L162.695 343.427L162.314 343.584L161.712 343.78C160.869 344.153 161.201 345.276 162.061 345.262C162.141 345.203 162.201 345.283 162.281 345.224L162.883 345.029L163.264 344.872L163.726 344.655ZM32.2703 312.052C31.9561 311.289 30.8546 311.481 30.8087 312.261C30.847 312.481 30.8259 312.621 30.8853 312.701L30.983 313.002C31.2378 313.684 32.2589 313.552 32.4447 312.793C32.4657 312.653 32.4868 312.514 32.368 312.353L32.2703 312.052ZM34.257 316.427C33.9218 315.805 32.9007 315.937 32.7743 316.776C32.7533 316.916 32.8126 316.996 32.9314 317.157L33.1862 317.839L33.5809 318.542C33.759 318.783 34.0177 318.965 34.2974 319.008C34.8778 318.952 35.1824 318.354 34.8854 317.952L34.5502 317.329L34.257 316.427ZM37.1173 321.649C36.7226 320.946 35.579 321.417 35.7534 322.159C35.8128 322.239 35.7917 322.379 35.8511 322.459L36.0886 322.781L36.3856 323.184L36.7419 323.666C37.217 324.31 38.2802 323.898 38.0464 323.076C37.9871 322.996 38.0081 322.856 37.9487 322.775L37.5924 322.293L37.2955 321.89L37.1173 321.649ZM40.5408 326.455C39.9852 325.871 38.9814 326.363 39.2151 327.185C39.2745 327.266 39.3339 327.346 39.3933 327.427L39.6903 327.829L39.9872 328.231L40.2841 328.633C40.8397 329.218 41.7036 328.704 41.5293 327.963C41.4699 327.882 41.491 327.743 41.3722 327.582L41.0752 327.179L40.8377 326.858L40.5408 326.455ZM44.6883 330.727C44.0523 330.202 43.1673 330.856 43.4815 331.618C43.5409 331.698 43.6003 331.779 43.6596 331.859L44.1175 332.143L44.4355 332.405L44.8723 332.829C45.3895 333.193 46.1519 332.878 46.1174 332.158C46.0791 331.938 45.9603 331.777 45.8416 331.616L45.4642 331.273L45.1462 331.011L44.6883 330.727ZM49.4622 334.164C48.7458 333.698 47.9585 334.652 48.5734 335.317C48.6328 335.397 48.6922 335.478 48.7727 335.418L49.1711 335.621L49.4087 335.943L49.8071 336.146L50.0658 336.328C50.7228 336.713 51.5695 335.84 50.9546 335.175C50.8952 335.095 50.8358 335.014 50.696 334.993L50.5178 334.752L50.1787 334.629L49.8396 334.506L49.4622 334.164ZM54.7438 336.604C53.9852 336.418 53.3588 337.253 53.9144 337.838C53.9738 337.918 54.1136 337.939 54.173 338.02L54.6519 338.163L54.991 338.286L55.3301 338.408L55.6691 338.531C55.9488 338.573 56.2496 338.475 56.4909 338.297C56.8338 337.92 56.579 337.238 56.1001 337.094L55.8204 337.052L55.4813 336.93L55.1423 336.807L54.7438 336.604ZM60.4736 337.968C59.6345 337.841 59.3051 339.079 60.0426 339.404C60.102 339.485 60.1824 339.425 60.1824 339.425L60.4621 339.468L60.8817 339.531L61.3012 339.594L61.8012 339.598C62.0809 339.64 62.3222 339.462 62.4237 339.263C62.7877 338.745 62.4524 338.123 61.8931 338.038L61.4735 337.975L61.1134 337.993L60.7532 338.01L60.4736 337.968ZM66.3125 338.132C66.0922 338.17 65.9313 338.289 65.7704 338.408C65.4064 338.925 65.7206 339.688 66.4409 339.653L66.9409 339.657L67.301 339.64L67.6612 339.623L67.8815 339.584C68.0213 339.605 68.1822 339.486 68.3431 339.368C68.8469 338.872 68.4733 338.029 67.753 338.063L67.1726 338.119L66.8125 338.136L66.3125 338.132ZM72.1379 337.437C71.3966 337.611 71.3679 338.751 72.1265 338.937C72.2664 338.958 72.2664 338.958 72.4867 338.919L73.0077 338.783L73.4483 338.707L73.9694 338.571C74.7107 338.396 74.7394 337.256 73.9808 337.071C73.8409 337.05 73.7605 337.109 73.6206 337.088L73.0996 337.224L72.7395 337.241L72.1379 337.437ZM77.8101 335.86C77.0477 336.174 77.2393 337.275 78.019 337.321C78.1588 337.342 78.1588 337.342 78.2393 337.283C78.6205 337.126 78.9213 337.028 79.3025 336.871L79.8235 336.735C80.5859 336.421 80.4537 335.4 79.6147 335.274C79.4748 335.252 79.3944 335.312 79.3139 335.371C78.7928 335.507 78.3312 335.724 77.8101 335.86ZM83.3674 333.622C82.6049 333.936 82.9153 335.199 83.7965 335.045C83.877 334.986 83.9364 335.066 84.0168 335.007C84.4785 334.791 84.9401 334.574 85.4018 334.358C86.1853 333.904 85.714 332.76 84.8922 332.994C84.8117 333.053 84.8117 333.053 84.6719 333.032C84.2907 333.189 83.829 333.406 83.3674 333.622ZM88.6487 330.842C88.4073 331.02 88.2254 331.279 88.302 331.72C88.438 332.241 88.9763 332.465 89.3786 332.168C89.8403 331.951 90.2426 331.654 90.6448 331.357C91.1276 331.001 91.0337 330.2 90.4954 329.976C90.2961 329.875 90.0758 329.913 89.8345 330.091C89.5126 330.329 89.051 330.545 88.6487 330.842ZM93.5737 327.58C92.8496 328.114 93.4014 329.198 94.3036 328.905C94.3841 328.846 94.3841 328.846 94.4645 328.787C94.8668 328.49 95.2691 328.193 95.6714 327.896C96.315 327.421 95.9031 326.357 95.0813 326.591C95.0008 326.651 94.861 326.629 94.7805 326.689C94.4377 327.066 93.976 327.283 93.5737 327.58ZM98.3416 323.936C98.1003 324.114 98.0371 324.534 98.1348 324.834C98.3513 325.296 98.97 325.461 99.3129 325.083C99.7152 324.786 100.058 324.409 100.46 324.112C100.621 323.993 100.642 323.853 100.744 323.654C100.849 322.955 100.052 322.549 99.4891 322.965C99.1462 323.342 98.7439 323.639 98.3416 323.936ZM102.711 320.089C102.55 320.208 102.529 320.348 102.567 320.568C102.543 321.208 103.339 321.614 103.843 321.118C104.186 320.74 104.588 320.443 104.931 320.066C105.113 319.807 105.236 319.468 104.998 319.147C104.701 318.744 104.142 318.66 103.799 319.037L103.719 319.097L103.562 318.716L103.464 318.415L103.366 318.114L103.268 317.813C103.171 317.513 102.933 317.191 102.573 317.208C102.073 317.204 101.65 317.641 101.786 318.162L101.883 318.463L101.981 318.764L102.24 318.946L102.338 319.246L102.435 319.547C102.533 319.848 102.592 319.928 102.711 320.089ZM106.945 315.721C106.339 316.417 107.132 317.323 107.916 316.869C107.996 316.809 107.996 316.809 108.077 316.75C108.42 316.373 108.762 315.995 109.105 315.618C109.287 315.359 109.351 314.94 109.172 314.698C108.875 314.296 108.316 314.212 107.973 314.589C107.63 314.967 107.287 315.344 106.945 315.721ZM110.779 311.15C110.255 311.786 111.048 312.692 111.831 312.238C111.912 312.179 111.992 312.12 111.992 312.12C112.335 311.742 112.619 311.284 112.961 310.907C113.042 310.848 113.063 310.708 113.084 310.568C113.13 309.788 112.193 309.361 111.728 310.078C111.406 310.315 111.122 310.773 110.779 311.15ZM114.216 306.376C113.81 307.173 114.844 307.901 115.45 307.206L115.53 307.147C115.814 306.689 116.038 306.15 116.181 305.671C116.448 304.853 115.451 304.346 114.927 304.982C114.846 305.041 114.825 305.181 114.745 305.24C114.622 305.58 114.419 305.978 114.216 306.376ZM115.097 301.003C115.114 301.363 115.432 301.626 115.712 301.668C116.212 301.672 116.555 301.294 116.559 300.794C116.503 300.214 116.367 299.693 116.15 299.231C116.053 298.93 115.794 298.748 115.434 298.766C114.934 298.762 114.57 299.279 114.706 299.8C114.944 300.122 115.101 300.503 115.097 301.003ZM112.298 298.222C113.06 297.907 112.928 296.886 112.089 296.76C111.949 296.739 111.869 296.798 111.869 296.798C111.348 296.934 110.806 297.21 110.323 297.567C109.679 298.042 110.032 299.024 110.833 298.93C110.972 298.952 111.053 298.892 111.133 298.833C111.455 298.595 111.777 298.358 112.298 298.222ZM107.911 301.708C108.517 301.013 107.584 300.086 106.86 300.62C106.779 300.68 106.779 300.68 106.699 300.739C106.356 301.116 106.013 301.494 105.729 301.952C105.205 302.588 105.938 303.413 106.701 303.099C106.781 303.04 106.862 302.98 106.942 302.921C107.365 302.484 107.649 302.026 107.911 301.708ZM104.755 306.524C105.08 305.787 104.105 305.139 103.521 305.695C103.44 305.754 103.44 305.754 103.419 305.894L103.318 306.093L103.136 306.352L103.013 306.691L102.891 307.03L102.789 307.229L102.768 307.369C102.502 308.187 103.557 308.775 104.082 308.139C104.163 308.08 104.184 307.94 104.184 307.94L104.306 307.601L104.408 307.402L104.509 307.202L104.611 307.003L104.755 306.524ZM103.132 312.072C103.178 311.292 102.161 310.925 101.695 311.641C101.615 311.701 101.594 311.84 101.653 311.921L101.59 312.34L101.548 312.62L101.506 312.9L101.604 313.201L101.561 313.48C101.515 314.26 102.613 314.568 102.939 313.831C102.96 313.691 103.04 313.631 103.061 313.492L103.104 313.212L103.146 312.932L103.188 312.653L103.23 312.373L103.132 312.072ZM105.447 323.29C105.112 322.668 104.09 322.8 104.045 323.579C104.023 323.719 104.083 323.8 104.121 324.02L104.338 324.482L104.516 324.723L104.694 324.964L104.851 325.346C105.246 326.049 106.368 325.717 106.274 324.916C106.295 324.777 106.236 324.696 106.177 324.616C106.058 324.455 106.02 324.234 105.841 323.993L105.663 323.752L105.447 323.29ZM108.548 328.334C108.073 327.69 107.15 328.123 107.184 328.844C107.163 328.983 107.223 329.064 107.342 329.225C107.639 329.627 107.935 330.029 108.232 330.432C108.411 330.673 108.75 330.795 109.131 330.638C109.593 330.422 109.677 329.863 109.38 329.46C109.083 329.058 108.786 328.656 108.548 328.334ZM112.395 332.703C112.217 332.462 111.798 332.399 111.556 332.577C111.094 332.793 110.93 333.412 111.367 333.836C111.744 334.178 112.121 334.521 112.499 334.864C112.757 335.046 113.177 335.109 113.418 334.931C113.821 334.634 113.905 334.075 113.527 333.732C113.15 333.389 112.773 333.046 112.395 332.703ZM116.886 336.598C116.826 336.517 116.627 336.416 116.487 336.395C115.708 336.349 115.42 337.307 115.997 337.751C116.374 338.094 116.832 338.377 117.29 338.661C117.549 338.843 117.909 338.826 118.15 338.647C118.552 338.35 118.577 337.711 118.119 337.427C117.662 337.144 117.343 336.881 116.886 336.598ZM121.901 339.856C121.244 339.471 120.478 340.285 120.953 340.929C121.012 341.009 121.072 341.09 121.211 341.111C121.669 341.394 122.068 341.597 122.526 341.881C123.263 342.206 124.029 341.392 123.414 340.728C123.355 340.647 123.296 340.567 123.156 340.546C122.757 340.343 122.299 340.059 121.901 339.856ZM127.14 342.576C126.403 342.25 125.696 343.145 126.252 343.729C126.311 343.81 126.37 343.89 126.51 343.911C126.989 344.055 127.447 344.338 127.926 344.482C128.663 344.808 129.311 343.833 128.755 343.248C128.696 343.168 128.637 343.087 128.497 343.066C128.018 342.923 127.619 342.72 127.14 342.576ZM132.705 344.559C131.887 344.292 131.359 345.428 132.075 345.894C132.135 345.974 132.215 345.915 132.274 345.995C132.753 346.139 133.232 346.283 133.711 346.426C134.47 346.612 134.977 345.616 134.341 345.091C134.282 345.011 134.142 344.99 134.083 344.909C133.663 344.846 133.184 344.702 132.705 344.559ZM138.435 345.922C138.155 345.88 137.855 345.978 137.753 346.177C137.47 346.635 137.665 347.236 138.225 347.321L138.644 347.384L139.064 347.447L139.763 347.552C140.322 347.637 140.847 347.001 140.571 346.459C140.452 346.298 140.274 346.056 140.054 346.095C139.634 346.031 139.355 345.989 138.935 345.926L138.435 345.922ZM144.351 346.527C144.211 346.506 143.991 346.545 143.91 346.604C143.347 347.02 143.56 347.981 144.28 347.947L144.92 347.972L145.28 347.955L145.699 348.018C146.56 348.004 146.728 346.886 145.991 346.56C145.931 346.479 145.851 346.539 145.711 346.518L145.351 346.535L144.991 346.552L144.351 346.527ZM150.291 346.493C149.49 346.587 149.322 347.705 150.14 347.972C150.28 347.993 150.28 347.993 150.42 348.014L150.64 347.975L151.08 347.899L151.521 347.822L151.962 347.745C152.322 347.728 152.584 347.41 152.626 347.13C152.711 346.571 152.333 346.228 151.753 346.284L151.393 346.301L150.952 346.378L150.291 346.493ZM156.078 345.577C155.337 345.751 155.308 346.891 156.067 347.077C156.207 347.098 156.287 347.038 156.427 347.059L156.787 347.042L157.228 346.966L157.668 346.889L157.969 346.791C158.71 346.617 158.718 345.617 158.04 345.372C157.9 345.351 157.76 345.33 157.62 345.309L157.32 345.406L156.879 345.483L156.438 345.559L156.078 345.577Z" fill="black"/>
</g>
<g filter="url(#filter0_d_15_2563)">
<circle cx="82.3672" cy="376.5" r="22.5" fill="#273B89"/>
<path d="M364.867 185C364.867 192.456 358.823 198.5 351.367 198.5C343.911 198.5 337.867 192.456 337.867 185C337.867 177.544 343.911 171.5 351.367 171.5C358.823 171.5 364.867 177.544 364.867 185Z" fill="#0080BF"/>
<circle cx="81.8672" cy="65" r="10" fill="#E5E3F1"/>
</g>
<g clip-path="url(#clip2_15_2563)">
<path fill-rule="evenodd" clip-rule="evenodd" d="M370.84 200.941C372.645 198.603 376.512 197.075 379.437 196.572C382.829 196.094 386.393 196.794 388.785 199.35C389.187 199.698 389.448 200.086 389.747 200.616C391.44 199.535 394.69 199.096 396.437 198.766C397.006 198.609 397.693 198.879 397.993 199.409C398.411 200.365 398.829 201.322 399.247 202.279C399.861 203.948 400.618 205.577 401.232 207.246C403.1 211.785 404.865 216.506 406.448 221.124C408.331 226.272 410.254 231.563 411.71 236.829C412.182 238.537 412.693 240.387 413.023 242.134C413.117 243.027 413.447 244.775 412.269 244.947C410.34 245.174 408.141 246.088 406.942 243.968C406.122 242.663 405.61 240.813 405.035 239.287C404.082 236.946 403.452 234.669 402.783 232.249C402.114 229.83 401.485 227.552 400.816 225.133C400.383 223.567 399.95 222.002 399.414 220.618C398.878 219.234 396.036 210.061 393.568 211.663C394.261 213.616 394.954 215.569 395.647 217.523C396.798 220.575 397.987 223.77 398.996 226.862C401.989 234.92 404.944 242.836 407.756 250.791C408.646 253.456 409.86 256.184 410.893 258.81C412.8 263.491 414.565 268.212 416.472 272.894C418.497 278.003 420.522 283.111 422.548 288.22C423.059 290.07 423.855 291.842 424.47 293.511C424.588 293.937 424.888 294.467 425.006 294.894C425.045 295.037 425.124 295.321 425.163 295.464C425.281 295.891 425.296 296.499 425.09 296.863C426.707 299.939 428.438 306.202 426.546 309.33C427.333 312.176 426.996 315.946 426.708 318.784C426.493 320.222 425.148 320.9 424.185 319.634C422.078 316.999 421.031 313.765 419.738 310.752C416.183 308.977 413.77 304.129 412.463 300.507C411.712 300.562 411.024 300.292 410.97 299.541C399.469 273.459 386.972 247.651 375.858 221.309C375.401 220.209 374.905 218.968 374.55 217.687C373.857 215.734 373.164 213.78 372.471 211.827C371.738 209.732 371.109 207.454 370.621 205.138C370.488 204.102 370.001 201.786 370.84 200.941ZM395.087 223.806C391.401 225.438 388.467 227.015 384.167 226.978C383.234 226.93 382.159 226.92 381.045 226.769C381.541 228.01 382.401 229.458 382.946 229.767C384.914 229.682 387.167 229.519 389.018 229.008C391.295 228.378 393.518 226.997 395.495 225.838C395.401 224.944 395.244 224.375 395.087 223.806ZM419.746 290.833C411.179 270.374 403.245 249.434 396.203 228.4C392.842 230.095 387.773 232.263 384.018 232.535C386.092 236.711 388.023 240.926 389.955 245.141C392.643 250.986 395.331 256.831 398.02 262.675C400.708 268.52 403.396 274.364 406.085 280.209C408.055 284.567 410.169 288.885 412.282 293.203C414.819 292.961 417.145 291.399 419.746 290.833ZM394.031 240.491C395.902 242.271 395.826 246.429 396.353 248.888C397.155 252.343 398.953 255.523 400.427 258.639C402.241 262.427 404.584 265.916 406.825 269.586C409.104 273.399 409.613 278.008 410.754 282.135C411.265 283.986 413.97 283.238 413.6 281.348C412.498 277.363 411.824 273.26 410.01 269.472C408.079 265.256 405.048 261.498 402.974 257.322C401.2 253.676 399.387 249.888 398.712 245.784C398.328 243.286 398.007 240.464 396.096 238.541C395.252 237.702 393.868 238.238 393.716 239.352C393.471 239.573 393.628 240.142 394.031 240.491ZM413.132 295.726C413.29 296.295 413.59 296.825 413.929 297.497C414.822 297.404 415.779 296.986 416.633 296.75C418.056 296.356 419.582 295.781 421.148 295.348C421.29 295.309 421.433 295.27 421.575 295.23C421.275 294.7 421.118 294.131 420.96 293.562C418.138 293.882 415.773 295.302 413.132 295.726ZM424.117 311.074C423.832 311.152 423.547 311.231 423.263 311.31C423.681 312.267 424.098 313.224 424.516 314.181C424.383 313.145 424.25 312.109 424.117 311.074ZM415.388 300.005C416.499 302.915 418.533 306.949 421.219 308.351C421.764 308.66 422.594 308.89 423.124 308.59C424.287 307.809 423.951 304.378 423.778 303.2C423.567 301.88 423.04 299.421 422.401 298.219C420.085 298.706 417.847 299.478 415.388 300.005ZM396.046 201.785C395.761 201.864 395.619 201.903 395.334 201.982C394.623 202.179 391.697 202.681 391.246 203.266C391.285 203.408 391.182 203.59 391.182 203.59C391.797 205.258 392.269 206.966 392.781 208.816C393.311 208.517 394.022 208.32 394.67 208.447C397.326 208.632 399.164 211.954 400.181 213.971C401.916 217.475 403.16 221.421 404.325 225.082C405.348 228.782 406.411 232.625 407.292 236.365C407.567 237.361 408.566 241.528 409.087 242.303C409.126 242.446 409.592 242.47 409.877 242.391C410.101 239.878 404.492 224.576 403.46 221.951C401.695 217.229 399.93 212.508 398.165 207.787C397.55 206.119 396.975 204.593 396.4 203.066C396.282 202.639 396.164 202.212 396.046 201.785ZM394.157 220.999C393.046 218.089 392.038 214.997 391.069 212.047C390.376 210.094 389.683 208.141 388.887 206.369C388.351 204.985 387.633 203.498 386.852 202.336C384.99 199.48 381.323 198.962 378.232 199.97C377.275 200.387 372.878 202.216 373.492 203.884C376.502 205.35 381.65 203.467 383.779 201.194C384.127 200.791 384.554 200.673 385.06 200.839C386.174 200.991 386.71 202.375 385.871 203.22C383.252 205.936 377.961 207.858 374.073 207.094C374.89 211.158 376.419 215.025 378.09 218.853C378.808 220.34 379.383 221.866 379.997 223.535C380.794 225.306 386.384 223.914 387.625 223.417C389.721 222.685 392.101 221.874 394.157 220.999Z" fill="black"/>
</g>
<g clip-path="url(#clip3_15_2563)">
<path fill-rule="evenodd" clip-rule="evenodd" d="M398.495 185.231C410.719 174.478 421.526 162.315 434.007 151.946C434.136 151.817 434.264 151.689 434.393 151.561C439.539 146.056 437.867 131.718 436.837 124.933C436.194 120.068 435.165 115.203 434.136 110.466C433.364 107.138 432.592 103.809 431.948 100.48C431.691 99.8402 430.919 99.4562 430.276 99.7122C429.632 99.9683 428.732 100.608 428.088 100.992C427.831 101.12 426.158 102.145 426.03 101.633C425.772 101.12 425.515 100.224 424.872 99.8402C422.942 98.56 421.269 99.4562 419.725 100.736L419.596 100.864C419.468 100.864 419.21 100.992 419.082 100.992C417.924 101.12 416.766 98.688 414.836 98.56C414.321 98.56 413.549 98.688 413.035 98.9441C412.263 99.2001 411.619 99.7122 411.105 100.224C410.976 99.8402 410.59 99.7122 410.075 99.8402C408.66 99.9683 406.987 100.608 405.701 101.12C405.701 100.736 405.572 100.352 405.572 99.9683C405.443 99.0721 405.315 97.6639 405.057 96.7677C405.057 96.7677 405.057 96.6397 404.929 96.6397C404.929 96.5116 404.8 96.5116 404.8 96.3836C404.671 96.2556 404.671 96.1276 404.543 96.1276C404.157 95.8715 403.642 95.8715 403.256 96.1276C399.525 98.304 396.308 101.505 393.22 104.321C389.746 107.522 386.015 110.338 381.898 112.771C373.663 117.635 367.23 125.061 359.639 130.694C359.124 131.078 358.867 131.718 358.995 132.23V132.358C362.212 143.24 365.943 153.61 370.447 163.98C373.406 170.893 376.494 177.55 379.582 184.463C379.839 184.975 380.354 185.359 380.868 185.231C386.272 185.359 391.548 186.128 396.952 185.872C397.209 185.872 397.466 185.872 397.723 185.744C397.981 185.744 398.367 185.487 398.495 185.231ZM364.785 130.182C366.072 132.742 367.359 135.431 368.645 138.119C370.833 142.728 373.02 147.465 375.207 152.074C377.652 157.322 380.096 162.571 382.412 167.692C383.184 169.485 384.085 171.277 384.857 173.069C385.114 173.581 385.372 174.221 385.629 174.734C385.758 174.99 385.886 175.246 385.886 175.502C385.886 175.502 385.886 175.502 385.886 175.63C384.214 177.294 382.541 179.214 381.126 181.135C378.681 174.99 376.108 168.973 373.535 162.827C371.476 158.091 369.546 153.354 367.616 148.617C365.557 143.368 363.627 137.991 361.955 132.614C362.855 131.718 363.756 130.95 364.785 130.182ZM387.816 177.294C392.191 178.062 396.437 179.086 400.811 179.598C399.525 180.751 398.238 182.031 396.952 183.183C392.448 183.439 387.816 182.799 383.313 182.543C384.6 180.623 386.144 178.958 387.816 177.294ZM403.771 176.782C399.396 176.654 394.893 175.63 390.518 174.734C394.378 171.277 398.495 168.332 402.613 165.388C407.759 161.803 412.52 157.579 417.152 153.354C419.982 154.122 422.684 155.146 425.386 155.914C418.052 162.699 410.976 169.869 403.771 176.782ZM427.96 153.61C425.129 152.97 422.427 151.817 419.596 150.921C420.497 150.025 421.398 149.129 422.298 148.233C423.714 151.177 426.93 151.433 429.89 151.817C429.246 152.458 428.603 152.97 427.96 153.61ZM367.101 128.133C372.119 123.78 377.137 118.788 382.927 115.459C386.787 113.155 390.518 110.594 393.735 107.522C394.764 106.625 395.665 105.729 396.694 104.705C403.771 119.684 408.66 135.559 415.351 150.665C413.035 152.714 410.59 154.762 408.145 156.81C406.087 158.603 404.028 160.395 401.841 162.059C400.297 163.34 398.624 164.62 397.08 165.9C393.864 168.332 390.776 170.765 387.816 173.453C387.559 172.941 387.302 172.301 387.044 171.789C386.272 169.997 385.372 168.204 384.6 166.284C382.155 161.035 379.839 155.658 377.395 150.409C375.207 145.8 373.149 141.192 370.961 136.583C369.803 133.766 368.517 130.822 367.101 128.133ZM398.367 155.018C398.238 154.634 397.981 153.994 397.852 153.61C397.466 152.586 397.08 151.561 396.694 150.665C395.536 147.849 394.378 144.904 393.22 142.088C392.062 139.399 391.033 136.711 389.875 134.022C389.489 132.998 388.974 132.102 388.588 131.078C388.331 130.566 388.074 129.926 387.816 129.413C386.916 127.877 389.103 125.957 390.004 127.621C390.39 128.261 390.647 128.901 390.904 129.413C391.419 130.438 391.805 131.462 392.32 132.486C393.478 135.303 394.636 138.119 395.794 140.936C397.08 144.008 398.238 146.953 399.396 150.025C399.653 150.793 401.069 154.25 401.069 154.89C400.94 156.938 398.367 156.938 398.367 155.018ZM409.303 150.793C407.888 152.202 405.701 154.122 403.642 152.586C400.554 150.281 397.723 144.008 396.308 140.551C395.15 137.991 394.25 135.303 393.349 132.486C392.706 130.694 392.062 128.645 391.676 126.853C391.419 124.549 394.378 122.628 395.665 121.092C396.051 120.58 397.209 119.94 397.852 120.452C398.881 121.348 400.554 124.421 401.197 125.573C402.87 128.645 404.285 131.718 405.572 134.918C407.116 138.503 410.075 146.056 409.818 149.897C409.818 150.281 409.689 150.665 409.303 150.793ZM407.373 149.001C406.73 149.513 405.701 150.153 405.057 149.641C402.613 147.721 400.039 141.96 398.881 139.015C397.723 136.327 396.823 133.51 395.922 130.694C395.665 130.054 394.893 127.109 394.893 126.341C395.022 126.213 395.15 125.957 395.279 125.829C395.536 125.445 395.794 125.189 396.051 124.805C396.18 124.549 396.694 124.037 396.952 123.78C399.139 126.853 407.116 146.313 407.373 149.001ZM398.881 102.785C400.039 101.761 401.197 100.736 402.484 99.8402C402.613 100.992 402.87 102.017 402.999 103.169C403.256 106.241 404.414 109.186 405.443 112.002C407.502 117.891 410.075 123.652 413.035 129.157C415.865 134.534 418.567 140.039 421.14 145.672C421.012 145.8 420.883 145.928 420.626 146.056C420.24 146.312 419.854 146.697 419.596 146.953C418.953 147.593 418.181 148.105 417.538 148.745C410.976 133.638 406.087 117.763 398.881 102.785ZM406.087 103.937C406.344 103.809 406.601 103.681 406.859 103.553C407.245 103.425 408.274 103.041 408.66 103.169C408.789 103.297 408.789 103.425 408.789 103.425C408.789 103.553 408.917 103.681 409.046 103.937C410.204 107.138 411.491 110.21 412.906 113.283C414.45 116.739 416.123 120.324 417.666 123.78C421.012 131.462 423.842 139.143 425.515 147.337C423.842 145.8 422.684 141.576 421.784 139.783C419.339 134.662 416.637 129.798 414.064 124.677C411.105 118.788 408.403 112.771 406.73 106.369C406.344 105.729 406.215 104.833 406.087 103.937ZM427.702 146.056C425.644 137.607 423.07 129.413 419.596 121.22C418.181 117.891 416.637 114.563 415.093 111.362C413.807 108.802 412.52 106.113 411.362 103.553C412.134 102.913 413.292 101.761 414.064 101.761C414.836 101.633 415.737 102.401 416.251 102.913C417.023 103.681 417.28 104.577 418.438 104.577C420.497 108.418 422.041 113.027 423.07 117.251C424.614 123.012 425.901 129.029 426.673 135.046C427.188 138.631 427.574 142.344 427.702 146.056ZM430.533 142.344C430.404 141.192 430.276 140.295 430.276 139.527C429.632 133.894 428.603 128.261 427.445 122.756C426.673 119.044 425.644 115.203 424.614 111.618C423.714 108.674 422.684 105.729 421.398 103.041C421.526 102.913 421.655 102.785 421.784 102.785C422.041 102.401 422.556 102.273 422.813 102.401C423.456 102.657 424.1 104.321 424.486 104.961C424.486 105.089 424.614 105.089 424.743 105.217C425.644 107.65 426.416 110.082 427.316 112.643C427.831 114.051 428.217 115.459 428.603 116.867C428.86 117.763 429.118 118.788 429.246 119.684C430.533 126.981 431.176 134.79 430.533 142.344ZM432.334 149.129C432.206 149.129 432.206 149.129 432.077 149.129C434.136 139.399 434.136 127.877 431.82 118.276C431.176 115.715 430.533 113.027 429.761 110.466C429.246 108.418 428.603 106.241 427.831 104.321C428.346 103.937 429.118 103.553 429.504 103.681C429.761 103.681 430.018 104.321 430.018 104.577C431.691 111.618 433.235 118.532 434.264 125.701C435.036 131.334 436.58 144.52 432.334 149.129Z" fill="black"/>
</g>
<g clip-path="url(#clip4_15_2563)">
<path d="M324.867 435.893C349.867 406.021 383.015 384.815 413.571 361.212C414.497 360.475 413.2 359.184 412.274 359.921C381.719 383.524 348.571 404.73 323.571 434.602C322.83 435.524 324.126 436.815 324.867 435.893Z" fill="black"/>
<path d="M345.052 415.425C354.311 405.283 358.571 391.822 368.2 381.865C377.83 371.908 390.422 364.9 403.941 362.135C405.422 361.766 408.571 360.844 410.052 361.213C413.941 362.135 412.645 365.638 411.904 367.851C410.793 371.539 408.756 375.227 406.904 378.73C403.015 386.106 398.385 391.269 390.608 394.588C375.422 401.227 359.682 407.127 344.126 413.213C343.015 413.581 343.571 415.425 344.682 415.057C359.497 409.156 374.126 403.255 388.941 397.354C394.497 395.142 399.497 392.56 403.385 387.766C407.089 383.156 409.682 377.624 411.904 372.276C413.2 369.51 416.348 363.425 413.941 360.475C411.348 357.525 402.83 360.475 399.867 361.213C388.756 363.979 378.385 369.695 369.867 377.44C364.867 382.049 360.608 387.581 357.089 393.482C352.83 400.489 349.311 407.865 343.756 414.135C343.015 414.872 344.311 416.347 345.052 415.425Z" fill="black"/>
<path d="M364.497 382.788C362.645 387.767 361.534 392.745 361.349 398.093C361.349 399.199 363.2 399.199 363.2 398.093C363.386 392.93 364.497 388.135 366.349 383.341C366.719 382.05 364.867 381.682 364.497 382.788Z" fill="black"/>
<path d="M373.201 374.857C372.09 380.205 371.349 385.737 370.793 391.084C370.608 392.191 372.46 392.191 372.645 391.084C373.201 385.737 373.941 380.574 374.867 375.226C375.238 374.12 373.571 373.751 373.201 374.857Z" fill="black"/>
<path d="M382.83 369.141C381.534 374.12 380.793 378.914 380.423 384.078C380.423 385.184 382.275 385.184 382.275 384.078C382.645 379.099 383.386 374.489 384.682 369.695C384.867 368.404 383.015 368.035 382.83 369.141Z" fill="black"/>
<path d="M394.867 363.61C393.201 367.851 391.719 372.277 390.608 376.702C390.423 377.809 392.09 378.362 392.46 377.256C393.571 372.83 394.867 368.405 396.719 364.163C397.09 362.873 395.238 362.504 394.867 363.61Z" fill="black"/>
<path d="M374.311 390.9C383.57 390.9 392.83 389.978 401.904 388.134C403.015 387.95 402.644 386.106 401.348 386.29C392.274 387.95 383.385 388.872 374.126 388.872C373.015 389.056 373.015 390.9 374.311 390.9Z" fill="black"/>
<path d="M360.238 401.228C367.645 401.228 374.867 400.675 382.09 399.937C383.201 399.753 383.201 397.909 382.09 398.093C374.867 399.015 367.46 399.384 360.238 399.384C358.942 399.384 358.942 401.228 360.238 401.228Z" fill="black"/>
<path d="M366.163 395.879C366.348 397.17 366.533 398.461 366.533 399.752C366.533 400.489 367.83 400.489 367.83 399.752C367.645 398.461 367.459 397.17 367.459 395.879C367.459 395.142 366.163 395.142 366.163 395.879Z" fill="black"/>
<path d="M368.941 393.483C368.941 395.696 369.312 397.724 370.423 399.753C370.793 400.49 371.904 399.753 371.534 399.2C370.608 397.356 370.053 395.512 370.238 393.668C370.053 392.746 368.941 392.746 368.941 393.483Z" fill="black"/>
<path d="M372.46 394.035C372.645 395.325 372.83 396.8 373.201 398.091C373.386 398.829 374.497 398.46 374.312 397.722C374.127 396.432 373.941 394.957 373.571 393.666C373.571 392.928 372.46 393.297 372.46 394.035Z" fill="black"/>
<path d="M376.719 396.249C376.534 397.171 377.83 397.908 378.571 397.355C379.312 396.986 378.571 395.88 378.015 396.249C378.015 396.249 378.015 396.249 378.015 396.064C378.015 395.511 376.719 395.511 376.719 396.249Z" fill="black"/>
<path d="M393.2 371.54C393.941 371.909 394.497 372.278 395.237 372.646C395.978 373.015 396.534 371.909 395.793 371.54C395.052 371.171 394.497 370.802 393.756 370.434C393.015 370.065 392.46 371.171 393.2 371.54Z" fill="black"/>
<path d="M395.053 369.327C395.794 369.511 396.349 369.88 397.09 370.065C397.831 370.433 398.201 369.143 397.46 368.958C396.719 368.774 396.164 368.405 395.423 368.221C394.497 367.852 394.312 368.958 395.053 369.327Z" fill="black"/>
<path d="M337.83 436.446C339.311 435.156 340.608 434.418 342.645 434.234C344.497 434.049 344.867 434.049 344.867 436.078C344.867 436.446 345.237 436.815 345.608 436.631C346.719 436.262 348.385 435.34 349.497 435.156C350.608 435.156 350.422 435.524 351.348 435.709C353.2 436.078 354.682 435.524 356.348 434.602C355.978 434.418 355.793 434.418 355.422 434.234C356.534 437.553 359.867 436.262 361.904 434.787C361.534 434.787 361.348 434.602 360.978 434.602C362.274 436.446 363.571 435.893 365.237 435.156C367.274 434.418 367.645 434.971 369.682 435.34C371.534 435.893 373.385 435.893 375.237 435.709C375.978 435.709 375.978 434.418 375.237 434.418C373.571 434.602 371.719 434.602 370.052 434.049C369.126 433.865 368.2 433.127 367.46 433.127C365.978 432.943 363.2 435.34 362.089 433.865C361.904 433.68 361.534 433.496 361.163 433.68C360.237 434.418 357.274 436.631 356.348 433.865C356.163 433.496 355.793 433.312 355.422 433.496C354.126 434.602 352.46 434.787 350.608 433.865C350.422 433.68 350.237 433.68 350.052 433.68C348.385 434.234 346.904 434.787 345.237 435.34C345.422 435.524 345.793 435.709 345.978 435.893C345.978 435.156 345.978 434.234 345.978 433.496C345.978 433.127 345.793 432.943 345.422 432.943C342.274 432.574 339.497 433.496 337.089 435.524C336.348 436.078 337.274 437 337.83 436.446Z" fill="black"/>
<path d="M343.385 426.121C343.571 426.121 343.941 425.937 344.126 425.753H343.941C344.126 426.121 344.126 426.306 344.311 426.674C345.237 424.646 349.126 424.462 350.978 424.831C353.015 425.199 354.126 426.49 355.608 427.596C357.83 429.072 359.867 427.965 361.904 426.674C361.534 426.49 361.348 426.306 360.978 426.121C361.163 428.703 363.571 428.15 365.608 427.965C370.608 427.412 375.423 427.412 380.423 427.965C381.163 427.965 381.163 426.859 380.423 426.674C377.46 426.306 374.311 426.121 371.348 426.306C370.237 426.306 362.46 427.596 362.274 426.121C362.274 425.753 361.719 425.384 361.348 425.568C359.497 426.674 358.015 427.412 355.608 425.937C355.052 425.568 354.682 425.199 354.126 424.831C353.015 424.093 351.534 423.724 350.237 423.54C348.2 423.171 344.126 423.724 343.385 426.121C343.015 426.49 343.2 426.859 343.571 427.043H343.756C344.126 427.043 344.497 427.043 344.497 426.674C344.497 426.674 344.497 426.674 344.497 426.49C344.682 425.568 343.571 425.199 343.385 426.121Z" fill="black"/>
<path d="M362.274 420.22C365.793 420.22 368.941 419.298 372.089 417.638C372.459 417.454 372.459 416.9 372.089 416.532C370.978 415.794 369.682 415.794 368.941 417.085C368.015 419.113 370.422 419.666 371.904 420.035C373.2 420.22 374.497 420.404 375.793 420.035C376.348 419.851 377.089 419.482 377.83 419.482C378.941 419.298 379.126 419.666 380.052 420.035C382.83 421.141 385.793 419.482 388.571 420.22C389.311 420.404 389.682 419.298 388.941 419.113C387.645 418.744 386.534 418.744 385.237 418.929C384.311 419.113 383.385 419.298 382.459 419.298C381.348 419.298 380.422 418.56 379.497 418.376C378.756 418.191 378.385 418.191 377.645 418.376C376.534 418.56 375.422 419.113 374.126 418.929C373.571 418.929 373.015 418.744 372.459 418.744C371.534 418.744 371.163 418.376 371.534 417.454C371.534 417.085 371.534 416.716 371.534 416.347C368.571 418.007 365.608 418.744 362.274 418.744C361.534 418.929 361.534 420.22 362.274 420.22Z" fill="black"/>
<path d="M271.905 405.099C267.46 405.099 262.831 406.39 261.72 408.602C260.608 410.999 260.794 413.765 260.979 416.347C261.534 421.141 261.905 426.12 262.46 430.914C262.646 432.205 262.831 433.496 263.571 434.602C264.868 436.262 267.46 436.262 269.497 436.077C282.646 434.971 295.794 433.496 308.942 431.652C310.979 431.283 313.201 430.914 314.497 429.439C315.423 428.333 315.794 426.858 315.979 425.382C317.09 418.929 316.905 412.29 315.608 405.836C315.238 404.177 314.868 402.702 313.942 401.411C312.46 399.198 309.683 398.092 307.09 397.907C304.497 397.723 301.72 398.276 299.312 398.829C299.312 398.829 300.979 403.07 286.72 407.127C272.646 411.368 271.905 405.099 271.905 405.099Z" fill="black"/>
<path d="M271.904 404.177C268.015 404.177 262.83 404.545 260.793 408.418C259.127 411.184 259.867 415.056 260.238 418.191C260.608 422.432 260.978 426.673 261.534 430.914C262.275 435.709 264.682 437.184 269.497 436.815C277.645 436.446 285.793 435.34 293.756 434.418C297.645 434.049 301.534 433.496 305.423 432.943C307.83 432.574 310.793 432.574 313.201 431.467C318.015 429.07 317.83 421.694 317.83 417.084C317.83 411.737 318.015 403.623 313.941 399.567C310.052 395.694 303.941 396.801 299.127 397.723C298.571 397.907 298.386 398.46 298.571 398.829C299.867 402.517 287.83 405.836 285.978 406.205C283.386 406.943 273.756 409.34 273.015 404.545C272.83 403.439 270.978 403.808 271.164 405.099C272.275 411.368 282.83 408.971 286.349 408.049C289.127 407.311 302.09 403.992 300.238 398.276C300.052 398.645 299.867 399.014 299.682 399.382C306.719 397.907 312.645 397.723 314.867 405.836C316.164 410.262 316.164 415.609 315.793 420.219C315.608 423.907 315.608 428.148 311.349 429.992C310.052 430.545 308.386 430.545 307.09 430.73C301.719 431.467 296.534 432.021 291.164 432.758C286.349 433.311 281.534 433.865 276.719 434.233C274.867 434.418 273.201 434.602 271.349 434.787C267.275 435.155 265.052 435.893 263.386 430.914C262.09 426.673 262.275 420.772 261.904 416.347C261.719 413.212 260.978 409.524 264.312 407.496C266.349 406.205 269.497 406.205 271.904 406.021C273.201 406.021 273.201 404.177 271.904 404.177Z" fill="black"/>
<path d="M272.09 404.546C271.534 400.673 269.497 392.929 273.571 390.347C276.349 388.503 280.978 387.95 284.127 387.212C286.719 386.659 294.682 384.077 296.534 386.659C297.275 387.581 296.904 390.9 297.09 392.191C297.275 394.404 297.46 396.432 297.645 398.645C297.83 399.751 299.682 399.751 299.497 398.645C299.127 395.51 298.941 392.191 298.571 389.056C298.386 387.765 298.571 385.921 297.645 384.815C295.423 382.049 288.015 384.446 285.238 384.999C281.904 385.737 278.571 386.475 275.423 387.581C273.756 388.134 270.978 388.687 269.867 390.163C268.756 391.453 269.312 394.404 269.312 395.879C269.312 399.014 269.682 401.964 270.238 404.914C270.423 406.205 272.275 405.836 272.09 404.546Z" fill="black"/>
<path d="M270.423 392.192C272.83 395.326 278.015 394.22 281.534 393.851C287.274 392.929 292.46 390.901 297.46 387.951C298.386 387.397 297.46 385.738 296.534 386.291C293.2 388.319 289.497 390.163 285.608 391.085C282.274 392.007 274.497 394.22 271.904 390.901C270.978 389.979 269.682 391.27 270.423 392.192Z" fill="black"/>
<path d="M298.756 398.646C289.867 401.781 280.793 403.441 271.349 403.994C270.238 403.994 270.238 405.838 271.349 405.838C280.979 405.285 290.238 403.441 299.312 400.306C300.423 400.121 300.053 398.277 298.756 398.646Z" fill="black"/>
<path d="M269.126 405.468C270.238 411 282.645 408.234 286.163 407.681C290.793 406.943 301.719 405.837 299.497 398.645C299.126 397.539 297.275 397.908 297.645 399.199C299.312 404.73 288.015 405.652 284.867 406.021C282.83 406.39 271.534 408.234 270.793 405.099C270.793 403.809 268.941 404.177 269.126 405.468Z" fill="black"/>
<path d="M271.533 414.688C271.348 418.93 271.348 423.355 271.533 427.596C271.533 428.518 273.2 428.887 273.385 427.781C273.385 427.412 273.57 427.227 273.57 426.859C273.756 425.752 272.089 425.199 271.719 426.305C271.719 426.674 271.533 426.859 271.533 427.227C272.089 427.227 272.83 427.412 273.385 427.412C273.2 423.171 273.2 418.745 273.385 414.504C273.385 413.582 271.533 413.582 271.533 414.688Z" fill="white"/>
<path d="M279.312 425.937C278.941 422.249 278.941 418.561 279.497 414.688C278.941 414.688 278.386 414.873 277.83 414.873C280.237 418.192 282.83 421.327 285.237 424.646C285.608 425.199 286.719 425.383 286.904 424.461C287.46 421.142 288.2 417.823 288.756 414.504C288.941 413.398 287.275 412.844 286.904 413.951C286.349 417.27 285.608 420.589 285.052 423.908C285.608 423.908 286.163 423.724 286.719 423.724C284.312 420.405 281.719 417.27 279.312 413.951C278.941 413.398 277.83 413.213 277.645 414.135C276.904 418.007 276.904 421.88 277.275 425.752C277.645 427.227 279.497 427.227 279.312 425.937Z" fill="white"/>
<path d="M292.09 412.291C292.275 415.979 292.275 419.667 292.46 423.17C292.46 424.277 294.312 424.277 294.312 423.17C294.127 419.482 294.127 415.794 293.942 412.291C293.942 411.184 292.09 411.184 292.09 412.291Z" fill="white"/>
<path d="M299.682 411.368C299.682 414.503 296.904 416.9 293.756 416.532C293.756 417.085 293.756 417.822 293.756 418.376C296.164 418.191 301.534 418.007 300.608 421.879C300.423 422.985 302.09 423.539 302.46 422.432C302.83 420.588 302.275 418.929 300.793 417.822C298.756 416.163 296.164 416.347 293.756 416.532C292.645 416.716 292.645 418.191 293.756 418.376C297.83 418.744 301.534 415.425 301.534 411.368C301.534 410.078 299.682 410.078 299.682 411.368Z" fill="white"/>
<path d="M305.423 404.916C307.645 405.469 309.126 407.866 308.386 410.079C308.015 411.185 309.867 411.739 310.237 410.632C311.163 407.497 309.126 403.994 305.978 403.256C304.682 402.887 304.311 404.547 305.423 404.916Z" fill="white"/>
<path d="M309.126 413.767C309.126 413.951 309.126 413.951 309.126 414.136C309.126 415.242 310.978 415.242 310.978 414.136C310.978 413.951 310.978 413.951 310.978 413.767C310.978 412.476 309.126 412.476 309.126 413.767Z" fill="white"/>
<path d="M275.238 388.873C274.497 389.979 273.942 391.086 273.756 392.376C273.571 393.114 274.868 393.483 274.868 392.745C275.053 391.454 275.608 390.532 276.164 389.426C276.905 388.873 275.793 388.135 275.238 388.873Z" fill="black"/>
<path d="M278.756 387.766C277.83 389.241 277.089 390.901 276.719 392.561C276.534 393.298 277.645 393.667 277.83 392.929C278.2 391.27 278.941 389.795 279.867 388.319C280.237 387.766 279.126 387.213 278.756 387.766Z" fill="black"/>
<path d="M282.645 386.475C281.163 388.319 280.237 390.348 279.867 392.56C279.682 393.298 280.978 393.667 280.978 392.929C281.533 390.716 282.274 388.872 283.756 387.028C284.126 386.475 283.015 385.922 282.645 386.475Z" fill="black"/>
<path d="M287.089 385C285.608 386.844 284.497 389.056 284.127 391.454C283.941 392.191 285.238 392.56 285.238 391.822C285.608 389.61 286.534 387.766 288.015 385.922C288.386 385.184 287.645 384.262 287.089 385Z" fill="black"/>
</g>
<defs>
<filter id="filter0_d_15_2563" x="0.867188" y="0" width="423" height="462" filterUnits="userSpaceOnUse" color-interpolation-filters="sRGB">
<feFlood flood-opacity="0" result="BackgroundImageFix"/>
<feColorMatrix in="SourceAlpha" type="matrix" values="0 0 0 0 0 0 0 0 0 0 0 0 0 0 0 0 0 0 127 0" result="hardAlpha"/>
<feOffset dy="4"/>
<feGaussianBlur stdDeviation="29.5"/>
<feComposite in2="hardAlpha" operator="out"/>
<feColorMatrix type="matrix" values="0 0 0 0 0 0 0 0 0 0 0 0 0 0 0 0 0 0 0.13 0"/>
<feBlend mode="normal" in2="BackgroundImageFix" result="effect1_dropShadow_15_2563"/>
<feBlend mode="normal" in="SourceGraphic" in2="effect1_dropShadow_15_2563" result="shape"/>
</filter>
<clipPath id="clip0_15_2563">
<rect width="147.1" height="94.7" fill="white" transform="matrix(-0.310966 0.950421 0.950421 0.310966 362.973 185.73)"/>
</clipPath>
<clipPath id="clip1_15_2563">
<rect width="90.7" height="105.3" fill="white" transform="translate(29 313.348) rotate(-36.4331)"/>
</clipPath>
<clipPath id="clip2_15_2563">
<rect width="131.57" height="31.3052" fill="white" transform="translate(399.039 191) rotate(74.545)"/>
</clipPath>
<clipPath id="clip3_15_2563">
<rect width="79" height="90" fill="white" transform="matrix(-1 0 0 1 437.867 96)"/>
</clipPath>
<clipPath id="clip4_15_2563">
<rect width="155" height="78" fill="white" transform="translate(259.867 359)"/>
</clipPath>
</defs>
</svg>
