<svg width="233" height="240" viewBox="0 0 233 240" fill="none" xmlns="http://www.w3.org/2000/svg">
<g clip-path="url(#clip0_1_3)">
<path d="M126.547 180.962C125.913 182.697 118.343 181.538 109.644 178.376C100.944 175.214 94.3998 171.252 95.0345 169.517C95.6691 167.783 103.239 168.941 111.938 172.104C120.643 175.259 127.182 179.228 126.547 180.962Z" fill="url(#paint0_linear_1_3)"/>
<path d="M154.365 34.0653L155.215 33.1212L156.891 34.2421L156.086 35.4681L154.365 34.0653Z" fill="url(#paint1_linear_1_3)"/>
<path d="M120.74 80.2448C121.026 81.0239 129.277 78.9946 129.693 80.0237L130.672 82.6363C130.468 82.0308 122.169 83.9533 121.751 82.9427L120.74 80.2448Z" fill="#007F9F"/>
<path d="M121.152 85.4003C121.438 86.1793 132.092 84.5697 132.514 85.6037L133.493 88.2164C133.289 87.6109 122.582 89.1087 122.163 88.0981L121.152 85.4003Z" fill="#007F9F"/>
<path d="M121.163 85.4286C120.998 84.9974 122.944 84.0151 125.545 83.0295C128.146 82.0439 129.857 80.4549 129.71 80.0571C129.71 80.0571 130.479 82.1013 130.717 82.7314C130.927 83.2998 129.153 84.7182 126.552 85.7039C123.951 86.6895 121.993 87.6316 122.17 88.103C122.168 88.0913 121.338 85.8882 121.163 85.4286Z" fill="url(#paint2_linear_1_3)"/>
<path d="M126.615 90.5962C129.237 90.041 133.066 87.0746 132.491 85.5351C132.491 85.5351 133.26 87.5793 133.491 88.2046C134.094 89.8058 130.35 92.5536 127.621 93.2589L126.615 90.5962Z" fill="url(#paint3_linear_1_3)"/>
<path d="M169.961 81.1302C169.338 82.4051 157.417 78.6661 156.521 80.3464L154.379 84.6187C154.842 83.6226 166.856 87.19 167.751 85.54L169.961 81.1302Z" fill="url(#paint4_linear_1_3)"/>
<path d="M169.979 81.0911C170.765 79.5187 167.246 76.4906 163.003 74.3622L160.804 78.7281C165.047 80.8564 168.632 83.7656 167.785 85.4501C167.785 85.4501 169.598 81.845 169.979 81.0911Z" fill="url(#paint5_linear_1_3)"/>
<path d="M167.369 89.6732C166.215 91.9673 151.105 90.4831 149.951 92.7773L147.809 97.0495C148.272 96.0534 163.811 96.7457 165.147 94.0849L167.369 89.6732Z" fill="url(#paint6_linear_1_3)"/>
<path d="M159.167 106.589C157.692 109.525 142.257 116.905 137.272 127.863L135.13 132.136C136.975 128.459 152.318 120.191 156.945 111.001L159.167 106.589Z" fill="url(#paint7_linear_1_3)"/>
<path d="M129.849 162.451C128.375 165.387 114.055 171.599 108.705 182.231L106.564 186.503C109.357 180.946 123.982 174.112 127.632 166.856L129.849 162.451Z" fill="url(#paint8_linear_1_3)"/>
<path d="M167.253 89.8908C167.597 89.2149 165.779 87.388 161.698 85.3358C157.617 83.2837 156.202 80.9582 156.514 80.3418C156.514 80.3418 154.893 83.5664 154.403 84.5428C153.954 85.4343 155.507 87.4847 159.588 89.5369C163.669 91.589 165.518 93.3447 165.147 94.085C165.147 94.085 166.897 90.6107 167.253 89.8908Z" fill="url(#paint9_linear_1_3)"/>
<path d="M159.266 106.38C159.949 105.024 158.626 102.484 155.221 99.1126C151.845 95.7723 149.598 93.4786 149.918 92.8367C149.918 92.8367 148.238 96.1853 147.719 97.2026C147.252 98.1331 149.605 100.181 153.017 103.485C156.394 106.753 157.696 109.506 157.067 110.746C157.072 110.739 158.886 107.134 159.266 106.38Z" fill="url(#paint10_linear_1_3)"/>
<path d="M129.67 162.8C134.497 153.204 133.905 134.544 137.58 127.254C137.58 127.254 135.889 130.604 135.381 131.62C126.349 149.567 128.952 164.234 127.471 167.165L129.67 162.8Z" fill="url(#paint11_linear_1_3)"/>
<path d="M109.138 115.663C109.672 116.05 110.418 115.929 110.806 115.394C111.193 114.86 111.075 114.113 110.542 113.726C110.008 113.34 109.262 113.46 108.875 113.995C108.487 114.53 108.605 115.277 109.138 115.663Z" fill="url(#paint12_linear_1_3)"/>
<path d="M95.1496 74.3492C96.34 75.2117 98.0063 74.943 98.8713 73.749C99.7364 72.5551 99.4727 70.888 98.2823 70.0255C97.0919 69.163 95.4257 69.4318 94.5606 70.6257C93.6955 71.8197 93.9592 73.4867 95.1496 74.3492Z" fill="url(#paint13_linear_1_3)"/>
<path d="M131.87 68.5179C131.401 68.979 130.649 68.9857 130.19 68.5178C129.731 68.0498 129.726 67.2977 130.195 66.8366C130.664 66.3755 131.415 66.3688 131.875 66.8368C132.339 67.2979 132.339 68.0569 131.87 68.5179Z" fill="url(#paint14_linear_1_3)"/>
<path d="M210.306 93.4938C210.84 93.8801 211.586 93.7598 211.974 93.2249C212.361 92.6901 212.243 91.9433 211.71 91.557C211.176 91.1706 210.43 91.291 210.043 91.8258C209.655 92.3607 209.773 93.1074 210.306 93.4938Z" fill="url(#paint15_linear_1_3)"/>
<path d="M94.0173 162.135C94.5505 162.521 95.2969 162.401 95.6844 161.866C96.0719 161.331 95.9538 160.584 95.4206 160.198C94.8873 159.812 94.1409 159.932 93.7534 160.467C93.3659 161.002 93.484 161.749 94.0173 162.135Z" fill="url(#paint16_linear_1_3)"/>
<path d="M134.965 37.0016C135.498 37.3879 136.244 37.2676 136.632 36.7327C137.019 36.1979 136.901 35.4511 136.368 35.0648C135.835 34.6784 135.088 34.7988 134.701 35.3336C134.313 35.8685 134.431 36.6152 134.965 37.0016Z" fill="url(#paint17_linear_1_3)"/>
<path d="M103.651 170.145C103.182 170.606 102.431 170.613 101.971 170.145C101.512 169.677 101.507 168.925 101.976 168.464C102.445 168.003 103.197 167.996 103.656 168.464C104.12 168.925 104.113 169.679 103.651 170.145Z" fill="url(#paint18_linear_1_3)"/>
<path d="M71.3122 122.877C71.8454 123.263 72.5918 123.143 72.9793 122.608C73.3669 122.073 73.2487 121.327 72.7155 120.94C72.1823 120.554 71.4359 120.674 71.0483 121.209C70.6608 121.744 70.779 122.491 71.3122 122.877Z" fill="url(#paint19_linear_1_3)"/>
<path d="M156.568 68.0885C157.101 68.4748 157.848 68.3545 158.235 67.8196C158.623 67.2848 158.505 66.538 157.971 66.1517C157.438 65.7653 156.692 65.8857 156.304 66.4205C155.917 66.9554 156.035 67.7021 156.568 68.0885Z" fill="url(#paint20_linear_1_3)"/>
<path d="M58.8017 93.0034C59.4476 93.4713 60.3517 93.3255 60.8211 92.6777C61.2905 92.0299 61.1474 91.1254 60.5015 90.6574C59.8556 90.1894 58.9515 90.3352 58.4821 90.983C58.0128 91.6309 58.1559 92.5354 58.8017 93.0034Z" fill="url(#paint21_linear_1_3)"/>
<path d="M164.705 129.071C165.238 129.457 165.984 129.337 166.372 128.802C166.759 128.267 166.641 127.52 166.108 127.134C165.575 126.748 164.828 126.868 164.441 127.403C164.053 127.938 164.172 128.685 164.705 129.071Z" fill="url(#paint22_linear_1_3)"/>
<path d="M90.0982 116.541C89.6294 117.002 88.8779 117.009 88.4186 116.541C87.9593 116.073 87.9547 115.321 88.4236 114.86C88.8924 114.399 89.6439 114.392 90.1032 114.86C90.5674 115.321 90.5603 116.075 90.0982 116.541Z" fill="url(#paint23_linear_1_3)"/>
<path d="M201.427 120.704C202.377 121.392 203.707 121.178 204.397 120.225C205.088 119.272 204.877 117.942 203.927 117.253C202.977 116.565 201.647 116.779 200.957 117.732C200.266 118.685 200.477 120.016 201.427 120.704Z" fill="url(#paint24_linear_1_3)"/>
<path d="M62.276 137.838C61.8071 138.299 61.0557 138.306 60.5964 137.838C60.137 137.37 60.1324 136.617 60.6013 136.156C61.0702 135.695 61.8216 135.689 62.2809 136.157C62.7452 136.618 62.738 137.372 62.276 137.838Z" fill="url(#paint25_linear_1_3)"/>
<path d="M158.036 158.382C157.567 158.843 156.815 158.85 156.356 158.382C155.897 157.914 155.892 157.161 156.361 156.7C156.83 156.239 157.581 156.233 158.041 156.701C158.505 157.162 158.503 157.909 158.036 158.382Z" fill="url(#paint26_linear_1_3)"/>
<path d="M116.888 42.6446C117.422 43.031 118.168 42.9106 118.556 42.3758C118.943 41.841 118.825 41.0942 118.292 40.7078C117.758 40.3215 117.012 40.4419 116.625 40.9767C116.237 41.5115 116.355 42.2583 116.888 42.6446Z" fill="url(#paint27_linear_1_3)"/>
<path d="M122.375 135.789C122.183 135.983 121.859 135.987 121.671 135.788C121.478 135.597 121.475 135.272 121.674 135.083C121.866 134.89 122.19 134.885 122.378 135.084C122.571 135.276 122.567 135.596 122.375 135.789Z" fill="url(#paint28_linear_1_3)"/>
<path d="M79.7777 154.969C79.5856 155.163 79.2612 155.167 79.0732 154.968C78.8804 154.777 78.8772 154.452 79.0761 154.263C79.2682 154.07 79.5926 154.066 79.7805 154.264C79.9734 154.456 79.9698 154.776 79.7777 154.969Z" fill="url(#paint29_linear_1_3)"/>
<path d="M185.948 73.692C185.756 73.8856 185.431 73.8897 185.243 73.6911C185.05 73.4994 185.047 73.1747 185.246 72.986C185.438 72.7924 185.763 72.7883 185.95 72.9868C186.143 73.1786 186.145 73.4915 185.948 73.692Z" fill="url(#paint30_linear_1_3)"/>
<path d="M69.6214 112.989C69.4293 113.183 69.1049 113.187 68.917 112.988C68.7241 112.797 68.7209 112.472 68.9198 112.283C69.1119 112.09 69.4363 112.086 69.6243 112.284C69.8171 112.476 69.8185 112.789 69.6214 112.989Z" fill="url(#paint31_linear_1_3)"/>
<path d="M161.19 46.2271C160.998 46.4207 160.673 46.4249 160.485 46.2263C160.292 46.0345 160.289 45.7098 160.488 45.5212C160.68 45.3276 161.005 45.3234 161.193 45.522C161.392 45.7187 161.394 46.0316 161.19 46.2271Z" fill="url(#paint32_linear_1_3)"/>
<path d="M93.725 147.125C93.5328 147.318 93.2084 147.322 93.0205 147.124C92.8276 146.932 92.8244 146.607 93.0233 146.419C93.2154 146.225 93.5399 146.221 93.7278 146.419C93.9207 146.611 93.9171 146.931 93.725 147.125Z" fill="url(#paint33_linear_1_3)"/>
<path d="M118.586 103.539C118.394 103.733 118.07 103.737 117.882 103.538C117.689 103.347 117.686 103.022 117.885 102.833C118.077 102.64 118.401 102.635 118.589 102.834C118.789 103.031 118.785 103.35 118.586 103.539Z" fill="url(#paint34_linear_1_3)"/>
<path d="M131.351 174.032C131.049 174.334 130.562 174.334 130.261 174.033C129.961 173.732 129.962 173.244 130.263 172.943C130.565 172.641 131.052 172.641 131.353 172.942C131.653 173.242 131.652 173.731 131.351 174.032Z" fill="url(#paint35_linear_1_3)"/>
<path d="M75.4671 132.898C75.275 133.091 74.9506 133.095 74.7627 132.897C74.5698 132.705 74.5666 132.38 74.7655 132.192C74.9576 131.998 75.2821 131.994 75.47 132.192C75.6629 132.384 75.6593 132.704 75.4671 132.898Z" fill="url(#paint36_linear_1_3)"/>
<path d="M171.009 155.26C171.009 155.26 172.774 155.156 173.121 152.817C173.465 150.467 174.514 150.364 174.514 150.364L175.728 150.578C175.728 150.578 176.254 150.138 176.183 151.854C176.104 153.565 173.914 157.375 172.357 156.518C170.249 155.364 171.009 155.26 171.009 155.26Z" fill="url(#paint37_linear_1_3)"/>
<path d="M172.934 156.624C172.934 156.624 171.758 156.759 170.31 156.282C169.605 156.052 168.442 154.066 169.454 152.168C169.454 152.168 169.484 151.826 170.383 151.645C171.281 151.464 171.982 151.369 172.099 151.609C172.099 151.609 171.656 152.048 171.544 152.861C171.481 153.377 171.532 153.736 171.694 154.644C171.954 156.101 172.55 156.668 172.934 156.624Z" fill="url(#paint38_linear_1_3)"/>
<path d="M175.974 150.568C175.974 150.568 175.776 150.113 174.063 150.286C173.276 150.371 172.616 150.953 172.493 151.738C172.452 152.01 172.425 152.333 172.432 152.724C172.45 154.775 173.338 156.468 174.326 156.664C176.351 157.061 177.243 156.875 177.648 156.701C177.648 156.701 176.178 157.07 175.334 155.044C174.366 152.731 175.051 150.326 175.974 150.568Z" fill="url(#paint39_linear_1_3)"/>
<path d="M205.095 102.363C204.231 102.038 203.472 101.769 202.75 101.548C202.029 101.327 201.357 101.153 200.675 101.022C199.992 100.891 199.308 100.791 198.57 100.735C197.826 100.674 197.025 100.635 196.109 100.626C196.095 100.917 195.949 103.266 195.93 103.564C196.851 103.566 197.657 103.598 198.406 103.652C199.15 103.713 199.844 103.8 200.532 103.924C201.214 104.055 201.891 104.223 202.624 104.442C203.35 104.656 204.121 104.923 204.992 105.252C205.011 104.954 205.085 102.647 205.095 102.363Z" fill="url(#paint40_linear_1_3)"/>
<path d="M102.99 108.463C102.604 107.622 102.249 106.897 101.886 106.238C101.528 105.573 101.169 104.981 100.772 104.412C100.38 103.837 99.9568 103.291 99.4709 102.731C98.9899 102.164 98.4397 101.578 97.7962 100.935C97.5806 101.133 95.8391 102.72 95.6118 102.92C96.2621 103.568 96.8241 104.152 97.3168 104.717C97.8095 105.282 98.2398 105.833 98.6367 106.401C99.0337 106.969 99.3991 107.567 99.7639 108.237C100.134 108.9 100.496 109.631 100.882 110.472C101.109 110.272 102.782 108.666 102.99 108.463Z" fill="url(#paint41_linear_1_3)"/>
<path d="M141.125 155.977C141.258 155.065 141.346 154.255 141.402 153.506C141.458 152.756 141.48 152.054 141.461 151.364C141.442 150.674 141.381 149.986 141.276 149.244C141.171 148.502 141.028 147.712 140.845 146.82C140.558 146.872 138.235 147.259 137.937 147.313C138.133 148.215 138.283 149.01 138.395 149.756C138.501 150.498 138.568 151.192 138.596 151.898C138.621 152.593 138.607 153.3 138.558 154.055C138.508 154.809 138.415 155.626 138.289 156.543C138.569 156.486 140.845 156.035 141.125 155.977Z" fill="url(#paint42_linear_1_3)"/>
<path d="M57.6133 124.153C58.5652 124.728 59.4157 125.271 60.231 125.821C61.053 126.375 61.8399 126.934 62.6527 127.544C63.4606 128.161 64.3013 128.832 65.2242 129.605C66.147 130.377 67.159 131.256 68.3192 132.274C68.1621 131.889 66.8633 128.816 66.6994 128.427C65.5391 127.41 64.5272 126.531 63.5976 125.753C62.6747 124.981 61.834 124.309 61.0144 123.695C60.2016 123.085 59.4079 122.52 58.5858 121.966C57.7588 121.419 56.9033 120.882 55.9515 120.307C56.129 120.706 57.4513 123.775 57.6133 124.153Z" fill="url(#paint43_linear_1_3)"/>
<path d="M124.839 112.739C124.504 112.486 121.829 110.454 121.494 110.201C121.917 111.163 122.273 112.003 122.562 112.763C122.857 113.529 123.091 114.208 123.279 114.864C123.467 115.52 123.615 116.147 123.722 116.786C123.836 117.43 123.916 118.092 123.973 118.83C124.321 119.093 127.086 121.158 127.428 121.416C127.353 120.676 127.266 120.009 127.145 119.36C127.024 118.711 126.872 118.091 126.67 117.425C126.47 116.771 126.23 116.087 125.927 115.316C125.637 114.544 125.274 113.699 124.839 112.739Z" fill="url(#paint44_linear_1_3)"/>
<path d="M50.6936 103.996C50.3025 104.149 47.1773 105.4 46.7813 105.56C47.8257 105.693 48.7304 105.818 49.5295 105.96C50.3403 106.101 51.0436 106.246 51.7036 106.423C52.3637 106.6 52.9718 106.791 53.5756 107.03C54.1844 107.264 54.7938 107.539 55.4526 107.86C55.8536 107.693 59.0604 106.387 59.4564 106.227C58.7858 105.907 58.1665 105.646 57.546 105.415C56.9323 105.188 56.3174 104.992 55.6475 104.829C54.9825 104.659 54.2674 104.516 53.4517 104.382C52.6477 104.247 51.743 104.122 50.6936 103.996Z" fill="url(#paint45_linear_1_3)"/>
<path d="M166.63 56.9498C166.295 56.6967 163.62 54.6648 163.285 54.4116C163.708 55.3733 164.064 56.2134 164.353 56.9739C164.648 57.7393 164.882 58.4183 165.07 59.0745C165.258 59.7308 165.406 60.3575 165.513 60.9968C165.627 61.6409 165.707 62.3025 165.764 63.0402C166.112 63.3032 168.877 65.3688 169.219 65.6269C169.144 64.8862 169.057 64.2197 168.936 63.5706C168.815 62.9215 168.663 62.3016 168.461 61.6355C168.261 60.9811 168.021 60.2972 167.718 59.5268C167.428 58.7546 167.065 57.9096 166.63 56.9498Z" fill="url(#paint46_linear_1_3)"/>
<path d="M178.113 120.784C177.348 120.895 176.65 120.972 175.969 121.009C175.282 121.042 174.625 121.033 173.923 120.972C173.221 120.91 172.488 120.806 171.673 120.642C170.847 120.48 169.939 120.259 168.891 119.988C169.103 120.34 170.815 123.171 171.027 123.523C172.075 123.793 172.986 123.996 173.806 124.153C174.625 124.31 175.351 124.409 176.051 124.459C176.752 124.509 177.414 124.51 178.094 124.473C178.768 124.43 179.471 124.347 180.227 124.219C180.017 123.88 178.325 121.135 178.113 120.784Z" fill="url(#paint47_linear_1_3)"/>
<path d="M113.826 50.0045C113.704 50.8733 113.552 51.5845 113.339 52.1789C113.126 52.7734 112.853 53.2512 112.492 53.6346C112.131 54.018 111.681 54.2953 111.12 54.5124C110.551 54.7245 109.864 54.8714 109.039 54.9805C109.658 55.6997 114.644 61.4966 115.271 62.2207C116.088 62.095 116.754 61.9333 117.307 61.6996C117.86 61.4659 118.295 61.167 118.647 60.7669C118.994 60.3736 119.252 59.8742 119.45 59.2582C119.647 58.6421 119.789 57.9025 119.89 57.0189C119.272 56.3114 114.43 50.7021 113.826 50.0045Z" fill="url(#paint48_linear_1_3)"/>
<path d="M170.764 109.146C171.83 109.492 176.193 105.415 177.634 105.846L181.239 106.981C180.413 106.704 175.909 110.731 174.483 110.323L170.764 109.146Z" fill="url(#paint49_linear_1_3)"/>
<path d="M170.74 109.138C169.41 108.726 167.61 107.848 168.513 105.528L172.206 106.685C171.302 109.005 173.001 109.851 174.432 110.295C174.42 110.297 171.373 109.337 170.74 109.138Z" fill="url(#paint50_linear_1_3)"/>
<path d="M157.651 171.321C157.651 171.321 150.326 163.341 135.324 172.627L136.816 169.194C136.816 169.194 152.574 159.323 162.625 170.266L157.651 171.321Z" fill="url(#paint51_linear_1_3)"/>
<path d="M142.343 73.7135C142.343 73.7135 148.065 71.6824 143.981 64.927L145.933 65.8528C145.933 65.8528 150.302 72.9599 142.454 75.7493L142.343 73.7135Z" fill="url(#paint52_linear_1_3)"/>
<path d="M111.784 126.722C111.784 126.722 106.517 123.717 104.071 131.242L103.5 129.154C103.5 129.154 106.026 121.188 113.245 125.306L111.784 126.722Z" fill="url(#paint53_linear_1_3)"/>
<path d="M83.6187 86.6165C83.6187 86.6165 86.4826 78.9573 75.9793 77.3686L78.6274 76.1466C78.6274 76.1466 89.7345 77.7463 85.8105 88.2566L83.6187 86.6165Z" fill="url(#paint54_linear_1_3)"/>
<path d="M178.346 83.4101C178.346 83.4101 176.322 87.0913 181.534 88.684L180.096 89.1086C180.096 89.1086 174.569 87.4644 177.346 82.415L178.346 83.4101Z" fill="url(#paint55_linear_1_3)"/>
<path d="M60.0608 71.1606C60.0608 71.1606 58.0364 74.8418 63.2488 76.4345L61.811 76.8591C61.811 76.8591 56.2834 75.2148 59.0605 70.1655L60.0608 71.1606Z" fill="url(#paint56_linear_1_3)"/>
<path d="M99.8605 44.7945C99.8605 44.7945 98.1535 40.9682 93.7246 44.1759L94.2549 42.7713C94.2549 42.7713 98.9093 39.3526 101.251 44.6063L99.8605 44.7945Z" fill="url(#paint57_linear_1_3)"/>
<path d="M96.8715 146.659C96.8715 146.659 98.3158 141.861 92.4436 142.453L93.8917 141.37C93.8917 141.37 100.101 140.7 98.125 147.276L96.8715 146.659Z" fill="url(#paint58_linear_1_3)"/>
<path d="M192.36 71.7126C192.36 71.7126 193.804 66.9144 187.932 67.506L189.38 66.4232C189.38 66.4232 195.589 65.7532 193.613 72.3296L192.36 71.7126Z" fill="url(#paint59_linear_1_3)"/>
<path d="M110.968 81.6821C110.968 81.6821 113.425 78.1059 108.332 73.7295L109.835 73.8725C109.835 73.8725 115.237 78.452 111.866 83.3622L110.968 81.6821Z" fill="url(#paint60_linear_1_3)"/>
<path d="M75.239 142.8L75.4047 146.435C75.4047 146.435 79.6859 144.691 85.1178 145.008C83.5943 142.531 80.6819 141.055 75.239 142.8Z" fill="url(#paint61_linear_1_3)"/>
<path d="M80.9449 142.151C80.8707 142.139 80.8287 142.14 80.8287 142.14C80.859 142.141 80.9028 142.152 80.9449 142.151Z" fill="url(#paint62_linear_1_3)"/>
<path d="M85.1165 144.996C85.1233 145.001 85.1233 145.001 85.1184 145.007C87.5638 148.974 86.4434 155.514 86.4434 155.514L90.6463 154.379C91.051 150.658 90.4587 148.284 89.252 146.858C86.7135 143.75 83.0856 142.318 80.9412 142.158C81.4313 142.211 83.3941 142.593 85.1165 144.996Z" fill="url(#paint63_linear_1_3)"/>
<path d="M108.144 147.245C108.275 146.507 115.934 147.012 116.151 146.026L116.626 143.552C116.531 144.128 108.851 143.722 108.642 144.683L108.144 147.245Z" fill="url(#paint64_linear_1_3)"/>
<path d="M107.734 142.589C107.864 141.852 117.601 141.606 117.819 140.62L118.294 138.146C118.199 138.721 108.447 139.071 108.226 140.034L107.734 142.589Z" fill="url(#paint65_linear_1_3)"/>
<path d="M107.743 142.564C107.663 142.974 109.541 143.545 112.005 144.009C114.475 144.478 116.239 145.621 116.165 145.994C116.165 145.994 116.538 144.049 116.655 143.458C116.756 142.917 114.964 141.941 112.494 141.472C110.024 141.004 108.147 140.475 108.232 140.028C108.227 140.034 107.818 142.13 107.743 142.564Z" fill="url(#paint66_linear_1_3)"/>
<path d="M111.802 137.103C114.218 137.189 118.085 139.221 117.804 140.682C117.804 140.682 118.177 138.737 118.294 138.146C118.589 136.623 114.84 134.77 112.299 134.571L111.802 137.103Z" fill="url(#paint67_linear_1_3)"/>
<path d="M107.264 151.838C107.394 151.1 115.053 151.606 115.27 150.619L115.746 148.145C115.65 148.721 107.971 148.315 107.761 149.276L107.264 151.838Z" fill="url(#paint68_linear_1_3)"/>
<path d="M108.435 155.702C108.435 155.702 114.17 156.187 114.389 155.212L114.865 152.738C114.594 154.113 108.658 153.462 108.658 153.462L108.435 155.702Z" fill="url(#paint69_linear_1_3)"/>
<path d="M107.256 151.863C107.177 152.273 108.411 152.96 110.876 153.436C113.346 153.905 114.441 154.927 114.373 155.293C114.373 155.293 114.745 153.348 114.862 152.757C114.963 152.216 113.836 151.368 111.366 150.899C108.896 150.43 107.655 149.781 107.741 149.334C107.746 149.327 107.344 151.427 107.256 151.863Z" fill="url(#paint70_linear_1_3)"/>
<path d="M108.162 147.164C108.083 147.574 109.317 148.26 111.782 148.736C114.252 149.205 115.347 150.227 115.279 150.593C115.279 150.593 115.651 148.648 115.768 148.057C115.87 147.517 114.742 146.669 112.272 146.2C109.802 145.731 108.561 145.082 108.647 144.634C108.647 144.634 108.25 146.728 108.162 147.164Z" fill="url(#paint71_linear_1_3)"/>
<path d="M185.222 126.828C184.469 127.281 188.242 135.454 187.255 136.101L184.745 137.662C185.335 137.32 181.66 129.083 182.623 128.44L185.222 126.828Z" fill="#E32A3A"/>
<path d="M185.243 126.813C186.169 126.236 188.232 128.24 189.785 130.748L187.215 132.349C185.669 129.846 183.671 127.795 182.678 128.407C182.678 128.407 184.798 127.083 185.243 126.813Z" fill="url(#paint72_linear_1_3)"/>
<path d="M180.54 129.739C179.787 130.192 183.56 138.365 182.573 139.012L180.063 140.573C180.653 140.231 176.978 131.994 177.942 131.351L180.54 129.739Z" fill="#E32A3A"/>
<path d="M173.842 133.903C172.109 134.978 171.012 142.96 168.973 144.229L166.463 145.79C168.629 144.447 168.91 136.975 171.25 135.52L173.842 133.903Z" fill="#E32A3A"/>
<path d="M154.078 146.986C152.346 148.061 151.248 156.043 149.21 157.312L146.699 158.873C148.865 157.53 149.146 150.058 151.486 148.603L154.078 146.986Z" fill="#E32A3A"/>
<path d="M180.562 129.724C180.978 129.464 182.253 130.523 183.806 133.031C185.352 135.534 186.93 136.304 187.303 136.075C187.303 136.075 185.329 137.297 184.733 137.676C184.185 138.017 182.782 137.135 181.236 134.632C179.69 132.129 178.453 131.046 178.003 131.323C177.996 131.318 180.117 129.994 180.562 129.724Z" fill="url(#paint73_linear_1_3)"/>
<path d="M173.665 134.004C174.459 133.509 176.107 134.183 178.374 136.106C180.618 138.002 182.161 139.265 182.539 139.03C182.539 139.03 180.565 140.251 179.969 140.631C179.421 140.972 178.029 139.631 175.804 137.707C173.606 135.802 171.829 135.149 171.102 135.61C171.095 135.605 173.222 134.286 173.665 134.004Z" fill="url(#paint74_linear_1_3)"/>
<path d="M153.874 147.109C158.054 145.146 164.748 146.855 169.039 144.182C169.039 144.182 167.065 145.404 166.469 145.783C161.783 148.701 153.024 147.638 151.304 148.71L153.874 147.109Z" fill="url(#paint75_linear_1_3)"/>
<path d="M151.723 129.628C149.193 130.416 154.549 135.846 154.154 138.524C154.704 138.465 155.231 138.296 155.712 137.947C157.784 136.433 153.868 131.963 153.252 129.551C152.75 129.457 152.239 129.461 151.723 129.628Z" fill="url(#paint76_linear_1_3)"/>
<path d="M163.85 132.04C163.85 132.04 163.066 132.606 162.328 132.394C159.967 131.817 157.045 127.078 153.855 128.074C153.735 128.112 153.64 128.157 153.558 128.213L151.354 129.809C151.354 129.809 152.609 129.365 153.252 129.551C153.277 129.559 153.296 129.562 153.314 129.565C156.485 130.24 159.327 135.19 161.511 133.736L163.85 132.04Z" fill="url(#paint77_linear_1_3)"/>
<path d="M155.83 137.856C155.83 137.856 154.855 138.471 154.158 138.517C154.147 138.519 154.135 138.521 154.123 138.523C151.452 138.761 148.272 136.166 148.272 136.166L146.133 137.715C146.133 137.715 150.704 141.453 153.496 139.545L155.83 137.856Z" fill="url(#paint78_linear_1_3)"/>
<path d="M71.2871 96.5374C71.6046 97.745 81.7328 97.6475 82.2043 99.2579L83.2878 103.329C83.0551 102.391 72.8774 102.328 72.4096 100.741L71.2871 96.5374Z" fill="url(#paint79_linear_1_3)"/>
<path d="M71.2816 96.5022C71.2389 96.3464 74.6576 93.3739 76.8697 93.0112L77.9866 97.1796C74.7833 97.7082 71.9622 99.0545 72.3917 100.666C72.3966 100.659 71.4721 97.2122 71.2816 96.5022Z" fill="url(#paint80_linear_1_3)"/>
<path d="M73.3223 104.117C73.6398 105.325 83.768 105.227 84.2395 106.838L85.323 110.909C85.0903 109.971 74.9125 109.908 74.4448 108.321L73.3223 104.117Z" fill="url(#paint81_linear_1_3)"/>
<path d="M76.2344 114.953C76.9843 117.753 85.6317 123.706 86.5134 126.997L87.5969 131.068C86.6583 127.57 78.3723 122.95 77.3569 119.156L76.2344 114.953Z" fill="url(#paint82_linear_1_3)"/>
<path d="M73.3109 104.077C73.1326 103.407 74.6525 102.397 77.8557 101.869C82.0502 101.174 82.7002 101.135 82.1798 99.1777C82.1798 99.1777 83.0399 102.37 83.2968 103.346C83.5387 104.229 82.1759 105.508 78.9727 106.037C75.7694 106.566 74.2267 107.507 74.421 108.241C74.4259 108.234 73.5082 104.792 73.3109 104.077Z" fill="url(#paint83_linear_1_3)"/>
<path d="M76.3049 115.242C75.9559 113.949 77.1461 112.264 79.8867 110.485C82.6007 108.728 84.4164 107.496 84.2543 106.89C84.2543 106.89 85.1144 110.081 85.3712 111.058C85.6132 111.94 83.7485 112.94 81.0036 114.653C78.292 116.349 77.1062 118.215 77.4199 119.399C77.4199 119.399 76.4954 115.952 76.3049 115.242Z" fill="url(#paint84_linear_1_3)"/>
<path d="M192.471 113.475L194.516 112.17L195.525 113.868L192.585 114.733L192.471 113.475Z" fill="url(#paint85_linear_1_3)"/>
<path d="M189.063 149.819L186.688 149.949L186.65 147.997L189.576 148.682L189.063 149.819Z" fill="url(#paint86_linear_1_3)"/>
<path d="M142.074 53.3333L141.205 48.866L144.883 48.2548L144.369 53.9871L142.074 53.3333Z" fill="url(#paint87_linear_1_3)"/>
<path d="M193.532 84.6891L195.586 84.0869L196.022 85.7753L193.32 85.7834L193.532 84.6891Z" fill="url(#paint88_linear_1_3)"/>
<path d="M158.833 115.28L160.88 114.673L161.323 116.366L158.621 116.374L158.833 115.28Z" fill="url(#paint89_linear_1_3)"/>
<path d="M95.4988 128.619L93.6203 125.345L96.3505 123.881L97.4695 128.518L95.4988 128.619Z" fill="url(#paint90_linear_1_3)"/>
<path d="M98.0674 54.738L100.114 54.1308L100.557 55.8241L97.8552 55.8322L98.0674 54.738Z" fill="url(#paint91_linear_1_3)"/>
<path d="M182.885 114.955L183.873 114.007L184.623 114.831L183.084 115.64L182.885 114.955Z" fill="url(#paint92_linear_1_3)"/>
<path d="M165.633 143.274L166.267 142.443L166.924 142.981L165.873 143.759L165.633 143.274Z" fill="url(#paint93_linear_1_3)"/>
<path d="M139.713 117.911L138.794 117.849L138.869 117.102L139.961 117.498L139.713 117.911Z" fill="url(#paint94_linear_1_3)"/>
<path d="M103.09 92.1976L100.867 91.2732L101.684 89.4731L104.051 91.3861L103.09 92.1976Z" fill="url(#paint95_linear_1_3)"/>
<path d="M119.293 126.204L119.563 125.058L120.486 125.301L119.764 126.597L119.293 126.204Z" fill="url(#paint96_linear_1_3)"/>
<path d="M83.0387 66.9369L83.5328 68.0437L82.6054 68.4221L82.4009 66.9012L83.0387 66.9369Z" fill="url(#paint97_linear_1_3)"/>
<path d="M191.959 123.827L191.611 123.263L192.079 122.988L192.303 123.796L191.959 123.827Z" fill="url(#paint98_linear_1_3)"/>
<path d="M185.901 98.5556L187.693 98.2728L187.878 99.7486L185.599 99.4597L185.901 98.5556Z" fill="url(#paint99_linear_1_3)"/>
<path d="M163.137 161.402L166.297 160.904L166.623 163.502L162.618 162.991L163.137 161.402Z" fill="url(#paint100_linear_1_3)"/>
<path d="M128.087 50.3127L127.551 51.3387L126.725 50.8756L127.743 49.814L128.087 50.3127Z" fill="url(#paint101_linear_1_3)"/>
<path d="M141.284 141.533L140.812 140.182L141.93 139.827L142.034 141.629L141.284 141.533Z" fill="url(#paint102_linear_1_3)"/>
<path d="M143.158 88.5425L141.231 89.4134L140.575 87.8148L143.212 87.4377L143.158 88.5425Z" fill="url(#paint103_linear_1_3)"/>
<path d="M70.177 59.4893L68.2499 60.3602L67.6004 58.7664L70.2377 58.3893L70.177 59.4893Z" fill="url(#paint104_linear_1_3)"/>
<path d="M150.151 109.603L149.018 108.949L149.584 108.039L150.73 109.233L150.151 109.603Z" fill="url(#paint105_linear_1_3)"/>
<path d="M139.02 106.219L137.101 106.95L136.561 105.362L139.14 105.151L139.02 106.219Z" fill="url(#paint106_linear_1_3)"/>
<path d="M126.603 103.409L127.741 101.967L128.892 102.925L127.001 104.29L126.603 103.409Z" fill="url(#paint107_linear_1_3)"/>
<path d="M115.278 177.04L115.083 176.68L115.378 176.53L115.488 177.036L115.278 177.04Z" fill="url(#paint108_linear_1_3)"/>
<path d="M112.03 173.595L110.482 173.513L110.582 172.244L112.441 172.884L112.03 173.595Z" fill="url(#paint109_linear_1_3)"/>
<path d="M126.217 179.829C126.533 180.266 126.66 180.649 126.547 180.962C125.912 182.697 118.342 181.539 109.643 178.376C100.943 175.214 94.3991 171.252 95.0338 169.517C95.1467 169.204 95.4933 168.998 96.0192 168.859C95.3419 168.992 94.8934 169.239 94.7545 169.617C94.081 171.448 100.693 175.531 109.514 178.74C118.34 181.942 126.035 183.056 126.702 181.22C126.834 180.838 126.645 180.368 126.217 179.829Z" fill="#00728F"/>
<path d="M126.632 181.346L98.8171 218.891L98.8122 218.898C98.5861 219.181 97.8019 219.248 96.5789 218.975C94.7132 218.559 92.6322 217.582 91.9342 216.785C91.7716 216.594 91.7376 216.455 91.7425 216.334L94.7074 169.811L94.7142 169.816C94.5344 171.724 100.987 175.64 109.508 178.735C118.028 181.83 125.505 182.973 126.597 181.394L126.632 181.346Z" fill="url(#paint110_linear_1_3)"/>
<path d="M121.359 188.466C120.519 189.584 117.323 189.743 112.639 188.71C105.552 187.143 97.6714 183.409 95.0329 180.353C94.4202 179.639 94.1252 179.03 94.1547 178.531C94.221 177.352 94.3385 175.773 94.4116 174.599C94.3828 175.14 94.6735 175.797 95.3424 176.563C98.1861 179.85 106.694 183.893 114.34 185.575C119.392 186.687 122.81 186.522 123.713 185.304C122.991 186.258 122.077 187.519 121.359 188.466Z" fill="#F5F5F5"/>
<path d="M116.023 195.675C115.327 196.606 112.676 196.745 108.815 195.892C102.965 194.607 96.4692 191.522 94.2993 188.993C93.7911 188.407 93.5548 187.903 93.5856 187.488C93.6538 186.321 93.7613 184.756 93.8295 183.588C93.8043 184.038 94.0499 184.601 94.6026 185.24C96.9777 188.001 104.092 191.377 110.485 192.786C114.714 193.718 117.573 193.564 118.333 192.544L116.023 195.675Z" fill="#F5F5F5"/>
<path d="M111.191 202.2C110.632 202.929 108.49 203.009 105.376 202.313C100.664 201.26 95.4012 198.778 93.6393 196.773C93.222 196.305 93.0513 195.91 93.0716 195.582C93.1318 194.44 93.2536 192.927 93.3119 191.773C93.2972 192.137 93.4431 192.565 93.9117 193.092C95.8857 195.333 101.76 198.102 107.026 199.276C110.508 200.052 112.857 199.944 113.475 199.134L111.191 202.2Z" fill="#F5F5F5"/>
<path d="M106.358 208.713C105.934 209.269 104.277 209.338 101.899 208.8C98.3038 207.994 94.3025 206.104 92.9529 204.575C92.6383 204.222 92.5331 203.938 92.5479 203.689C92.6129 202.54 92.731 201.003 92.7961 199.854C92.782 200.146 92.8693 200.469 93.2285 200.875C94.7832 202.636 99.4094 204.823 103.559 205.75C106.299 206.362 108.152 206.28 108.64 205.635L106.358 208.713Z" fill="#F5F5F5"/>
<path d="M101.507 215.266C101.218 215.649 100.064 215.697 98.4224 215.329C95.9442 214.771 93.1858 213.469 92.2554 212.421C92.0415 212.172 92.0223 212.013 92.0364 211.836L92.2883 207.911C92.2798 208.123 92.2799 208.352 92.5383 208.653C93.6758 209.945 97.0708 211.542 100.111 212.226C102.127 212.678 103.464 212.607 103.823 212.139L101.507 215.266Z" fill="#F5F5F5"/>
</g>
<defs>
<linearGradient id="paint0_linear_1_3" x1="95.0379" y1="169.496" x2="126.522" y2="181.026" gradientUnits="userSpaceOnUse">
<stop stop-color="#2657E3"/>
<stop offset="1" stop-color="#019BB8"/>
</linearGradient>
<linearGradient id="paint1_linear_1_3" x1="156.105" y1="35.4656" x2="155.244" y2="33.1089" gradientUnits="userSpaceOnUse">
<stop stop-color="#7847FF"/>
<stop offset="0.7132" stop-color="#A694FF"/>
<stop offset="1" stop-color="#8985FF"/>
</linearGradient>
<linearGradient id="paint2_linear_1_3" x1="124.15" y1="82.2772" x2="127.844" y2="85.9858" gradientUnits="userSpaceOnUse">
<stop stop-color="#4D79F9"/>
<stop offset="1" stop-color="#01B5D6"/>
</linearGradient>
<linearGradient id="paint3_linear_1_3" x1="128.943" y1="88.2801" x2="131.802" y2="91.1505" gradientUnits="userSpaceOnUse">
<stop stop-color="#4D79F9"/>
<stop offset="1" stop-color="#01B5D6"/>
</linearGradient>
<linearGradient id="paint4_linear_1_3" x1="158.079" y1="78.7612" x2="166.292" y2="87.0082" gradientUnits="userSpaceOnUse">
<stop stop-color="#FF8700"/>
<stop offset="1" stop-color="#FF9900"/>
</linearGradient>
<linearGradient id="paint5_linear_1_3" x1="161.821" y1="75.5398" x2="169.747" y2="83.4976" gradientUnits="userSpaceOnUse">
<stop stop-color="#FF9D00"/>
<stop offset="1" stop-color="#FFCB00"/>
</linearGradient>
<linearGradient id="paint6_linear_1_3" x1="153.467" y1="89.2197" x2="161.754" y2="97.5402" gradientUnits="userSpaceOnUse">
<stop stop-color="#FF8700"/>
<stop offset="1" stop-color="#FF9900"/>
</linearGradient>
<linearGradient id="paint7_linear_1_3" x1="145.351" y1="117.549" x2="148.639" y2="120.85" gradientUnits="userSpaceOnUse">
<stop stop-color="#FF8700"/>
<stop offset="1" stop-color="#FF9900"/>
</linearGradient>
<linearGradient id="paint8_linear_1_3" x1="116.437" y1="172.694" x2="119.583" y2="175.853" gradientUnits="userSpaceOnUse">
<stop stop-color="#FF8700"/>
<stop offset="1" stop-color="#FF9900"/>
</linearGradient>
<linearGradient id="paint9_linear_1_3" x1="155.126" y1="81.73" x2="166.293" y2="92.9418" gradientUnits="userSpaceOnUse">
<stop stop-color="#FF9D00"/>
<stop offset="1" stop-color="#FFCB00"/>
</linearGradient>
<linearGradient id="paint10_linear_1_3" x1="147.246" y1="95.5002" x2="159.76" y2="108.066" gradientUnits="userSpaceOnUse">
<stop stop-color="#FF9D00"/>
<stop offset="1" stop-color="#FFCB00"/>
</linearGradient>
<linearGradient id="paint11_linear_1_3" x1="125.073" y1="139.708" x2="139.997" y2="154.692" gradientUnits="userSpaceOnUse">
<stop stop-color="#FF9D00"/>
<stop offset="1" stop-color="#FFCB00"/>
</linearGradient>
<linearGradient id="paint12_linear_1_3" x1="109.001" y1="113.853" x2="110.679" y2="115.538" gradientUnits="userSpaceOnUse">
<stop stop-color="#B459FF"/>
<stop offset="1" stop-color="#7C48FF"/>
</linearGradient>
<linearGradient id="paint13_linear_1_3" x1="94.8368" y1="70.3016" x2="98.5994" y2="74.0796" gradientUnits="userSpaceOnUse">
<stop stop-color="#B459FF"/>
<stop offset="1" stop-color="#7C48FF"/>
</linearGradient>
<linearGradient id="paint14_linear_1_3" x1="130.193" y1="66.8336" x2="131.871" y2="68.5185" gradientUnits="userSpaceOnUse">
<stop stop-color="#B459FF"/>
<stop offset="1" stop-color="#7C48FF"/>
</linearGradient>
<linearGradient id="paint15_linear_1_3" x1="210.17" y1="91.6789" x2="211.848" y2="93.3638" gradientUnits="userSpaceOnUse">
<stop stop-color="#B459FF"/>
<stop offset="1" stop-color="#7C48FF"/>
</linearGradient>
<linearGradient id="paint16_linear_1_3" x1="93.8798" y1="160.319" x2="95.5578" y2="162.004" gradientUnits="userSpaceOnUse">
<stop stop-color="#B459FF"/>
<stop offset="1" stop-color="#7C48FF"/>
</linearGradient>
<linearGradient id="paint17_linear_1_3" x1="134.827" y1="35.1889" x2="136.505" y2="36.8738" gradientUnits="userSpaceOnUse">
<stop stop-color="#B459FF"/>
<stop offset="1" stop-color="#7C48FF"/>
</linearGradient>
<linearGradient id="paint18_linear_1_3" x1="101.97" y1="168.458" x2="103.648" y2="170.143" gradientUnits="userSpaceOnUse">
<stop stop-color="#FF9D00"/>
<stop offset="1" stop-color="#FFCB00"/>
</linearGradient>
<linearGradient id="paint19_linear_1_3" x1="71.1801" y1="121.064" x2="72.8581" y2="122.749" gradientUnits="userSpaceOnUse">
<stop stop-color="#FF9D00"/>
<stop offset="1" stop-color="#FFCB00"/>
</linearGradient>
<linearGradient id="paint20_linear_1_3" x1="156.432" y1="66.2763" x2="158.11" y2="67.9612" gradientUnits="userSpaceOnUse">
<stop stop-color="#FF9D00"/>
<stop offset="1" stop-color="#FFCB00"/>
</linearGradient>
<linearGradient id="paint21_linear_1_3" x1="58.6289" y1="90.8038" x2="60.6705" y2="92.8537" gradientUnits="userSpaceOnUse">
<stop stop-color="#FF9D00"/>
<stop offset="1" stop-color="#FFCB00"/>
</linearGradient>
<linearGradient id="paint22_linear_1_3" x1="164.569" y1="127.257" x2="166.247" y2="128.942" gradientUnits="userSpaceOnUse">
<stop stop-color="#FF695D"/>
<stop offset="1" stop-color="#FF3B5D"/>
</linearGradient>
<linearGradient id="paint23_linear_1_3" x1="88.421" y1="114.852" x2="90.0991" y2="116.537" gradientUnits="userSpaceOnUse">
<stop stop-color="#FF695D"/>
<stop offset="1" stop-color="#FF3B5D"/>
</linearGradient>
<linearGradient id="paint24_linear_1_3" x1="201.176" y1="117.474" x2="204.175" y2="120.485" gradientUnits="userSpaceOnUse">
<stop stop-color="#FF695D"/>
<stop offset="1" stop-color="#FF3B5D"/>
</linearGradient>
<linearGradient id="paint25_linear_1_3" x1="60.5975" y1="136.15" x2="62.2755" y2="137.835" gradientUnits="userSpaceOnUse">
<stop stop-color="#FF695D"/>
<stop offset="1" stop-color="#FF3B5D"/>
</linearGradient>
<linearGradient id="paint26_linear_1_3" x1="156.36" y1="156.693" x2="158.039" y2="158.378" gradientUnits="userSpaceOnUse">
<stop stop-color="#CBFF48"/>
<stop offset="1" stop-color="#42DE09"/>
</linearGradient>
<linearGradient id="paint27_linear_1_3" x1="116.751" y1="40.8366" x2="118.429" y2="42.5214" gradientUnits="userSpaceOnUse">
<stop stop-color="#CBFF48"/>
<stop offset="1" stop-color="#42DE09"/>
</linearGradient>
<linearGradient id="paint28_linear_1_3" x1="121.667" y1="135.08" x2="122.373" y2="135.789" gradientUnits="userSpaceOnUse">
<stop stop-color="#01B5D6"/>
<stop offset="1" stop-color="#4D79F9"/>
</linearGradient>
<linearGradient id="paint29_linear_1_3" x1="79.0697" y1="154.259" x2="79.7757" y2="154.968" gradientUnits="userSpaceOnUse">
<stop stop-color="#01B5D6"/>
<stop offset="1" stop-color="#4D79F9"/>
</linearGradient>
<linearGradient id="paint30_linear_1_3" x1="185.244" y1="72.9828" x2="185.95" y2="73.6917" gradientUnits="userSpaceOnUse">
<stop stop-color="#FF695D"/>
<stop offset="1" stop-color="#FF3B5D"/>
</linearGradient>
<linearGradient id="paint31_linear_1_3" x1="68.9174" y1="112.277" x2="69.6235" y2="112.986" gradientUnits="userSpaceOnUse">
<stop stop-color="#FF695D"/>
<stop offset="1" stop-color="#FF3B5D"/>
</linearGradient>
<linearGradient id="paint32_linear_1_3" x1="160.488" y1="45.5174" x2="161.194" y2="46.2264" gradientUnits="userSpaceOnUse">
<stop stop-color="#FF695D"/>
<stop offset="1" stop-color="#FF3B5D"/>
</linearGradient>
<linearGradient id="paint33_linear_1_3" x1="93.0165" y1="146.415" x2="93.7226" y2="147.124" gradientUnits="userSpaceOnUse">
<stop stop-color="#FF9D00"/>
<stop offset="1" stop-color="#FFCB00"/>
</linearGradient>
<linearGradient id="paint34_linear_1_3" x1="117.882" y1="102.832" x2="118.588" y2="103.541" gradientUnits="userSpaceOnUse">
<stop stop-color="#FF695D"/>
<stop offset="1" stop-color="#FF3B5D"/>
</linearGradient>
<linearGradient id="paint35_linear_1_3" x1="130.264" y1="172.942" x2="131.349" y2="174.031" gradientUnits="userSpaceOnUse">
<stop stop-color="#B459FF"/>
<stop offset="1" stop-color="#7C48FF"/>
</linearGradient>
<linearGradient id="paint36_linear_1_3" x1="74.7579" y1="132.188" x2="75.464" y2="132.897" gradientUnits="userSpaceOnUse">
<stop stop-color="#FF695D"/>
<stop offset="1" stop-color="#FF3B5D"/>
</linearGradient>
<linearGradient id="paint37_linear_1_3" x1="173.185" y1="156.68" x2="173.884" y2="150.285" gradientUnits="userSpaceOnUse">
<stop stop-color="#943ADE"/>
<stop offset="1" stop-color="#531ED9"/>
</linearGradient>
<linearGradient id="paint38_linear_1_3" x1="170.835" y1="156.5" x2="171.39" y2="151.426" gradientUnits="userSpaceOnUse">
<stop stop-color="#B459FF"/>
<stop offset="1" stop-color="#7C48FF"/>
</linearGradient>
<linearGradient id="paint39_linear_1_3" x1="174.784" y1="156.77" x2="175.492" y2="150.3" gradientUnits="userSpaceOnUse">
<stop stop-color="#B459FF"/>
<stop offset="1" stop-color="#7C48FF"/>
</linearGradient>
<linearGradient id="paint40_linear_1_3" x1="203.953" y1="106.278" x2="197.273" y2="99.4759" gradientUnits="userSpaceOnUse">
<stop stop-color="#CBFF48"/>
<stop offset="1" stop-color="#42DE09"/>
</linearGradient>
<linearGradient id="paint41_linear_1_3" x1="99.4348" y1="110.477" x2="99.4081" y2="100.926" gradientUnits="userSpaceOnUse">
<stop stop-color="#CBFF48"/>
<stop offset="1" stop-color="#42DE09"/>
</linearGradient>
<linearGradient id="paint42_linear_1_3" x1="137.054" y1="155.752" x2="142.211" y2="147.701" gradientUnits="userSpaceOnUse">
<stop stop-color="#CBFF48"/>
<stop offset="1" stop-color="#42DE09"/>
</linearGradient>
<linearGradient id="paint43_linear_1_3" x1="56.6151" y1="119.762" x2="67.7114" y2="132.797" gradientUnits="userSpaceOnUse">
<stop stop-color="#FF695D"/>
<stop offset="1" stop-color="#FF3B5D"/>
</linearGradient>
<linearGradient id="paint44_linear_1_3" x1="128.725" y1="120.121" x2="120.16" y2="111.521" gradientUnits="userSpaceOnUse">
<stop stop-color="#FF695D"/>
<stop offset="1" stop-color="#FF3B5D"/>
</linearGradient>
<linearGradient id="paint45_linear_1_3" x1="59.0238" y1="104.456" x2="47.2131" y2="107.338" gradientUnits="userSpaceOnUse">
<stop stop-color="#B459FF"/>
<stop offset="1" stop-color="#7C48FF"/>
</linearGradient>
<linearGradient id="paint46_linear_1_3" x1="170.52" y1="64.332" x2="161.955" y2="55.7322" gradientUnits="userSpaceOnUse">
<stop stop-color="#FF695D"/>
<stop offset="1" stop-color="#FF3B5D"/>
</linearGradient>
<linearGradient id="paint47_linear_1_3" x1="178.428" y1="126.008" x2="170.7" y2="118.198" gradientUnits="userSpaceOnUse">
<stop stop-color="#FF695D"/>
<stop offset="1" stop-color="#FF3B5D"/>
</linearGradient>
<linearGradient id="paint48_linear_1_3" x1="118.906" y1="60.4995" x2="111.13" y2="52.6919" gradientUnits="userSpaceOnUse">
<stop stop-color="#CBFF48"/>
<stop offset="1" stop-color="#42DE09"/>
</linearGradient>
<linearGradient id="paint49_linear_1_3" x1="180.68" y1="109.235" x2="171.336" y2="106.881" gradientUnits="userSpaceOnUse">
<stop stop-color="#943ADE"/>
<stop offset="1" stop-color="#531ED9"/>
</linearGradient>
<linearGradient id="paint50_linear_1_3" x1="174.811" y1="108.748" x2="168.09" y2="107.054" gradientUnits="userSpaceOnUse">
<stop stop-color="#B459FF"/>
<stop offset="1" stop-color="#7C48FF"/>
</linearGradient>
<linearGradient id="paint51_linear_1_3" x1="135.062" y1="170.578" x2="162.232" y2="167.174" gradientUnits="userSpaceOnUse">
<stop stop-color="#B459FF"/>
<stop offset="1" stop-color="#7C48FF"/>
</linearGradient>
<linearGradient id="paint52_linear_1_3" x1="145.273" y1="65.035" x2="144.37" y2="75.9071" gradientUnits="userSpaceOnUse">
<stop stop-color="#CBFF48"/>
<stop offset="1" stop-color="#42DE09"/>
</linearGradient>
<linearGradient id="paint53_linear_1_3" x1="103.316" y1="130.196" x2="112.154" y2="123.79" gradientUnits="userSpaceOnUse">
<stop stop-color="#4D79F9"/>
<stop offset="1" stop-color="#01B5D6"/>
</linearGradient>
<linearGradient id="paint54_linear_1_3" x1="77.2043" y1="76.1269" x2="87.6101" y2="86.4304" gradientUnits="userSpaceOnUse">
<stop stop-color="#FF9D00"/>
<stop offset="1" stop-color="#FFCB00"/>
</linearGradient>
<linearGradient id="paint55_linear_1_3" x1="180.821" y1="89.2262" x2="176.298" y2="83.2126" gradientUnits="userSpaceOnUse">
<stop stop-color="#4D79F9"/>
<stop offset="1" stop-color="#01B5D6"/>
</linearGradient>
<linearGradient id="paint56_linear_1_3" x1="62.5354" y1="76.9761" x2="58.0122" y2="70.9625" gradientUnits="userSpaceOnUse">
<stop stop-color="#4D79F9"/>
<stop offset="1" stop-color="#01B5D6"/>
</linearGradient>
<linearGradient id="paint57_linear_1_3" x1="93.731" y1="43.2798" x2="101.262" y2="43.3186" gradientUnits="userSpaceOnUse">
<stop stop-color="#4D79F9"/>
<stop offset="1" stop-color="#01B5D6"/>
</linearGradient>
<linearGradient id="paint58_linear_1_3" x1="93.0987" y1="141.562" x2="99.0722" y2="146.003" gradientUnits="userSpaceOnUse">
<stop stop-color="#FF695D"/>
<stop offset="1" stop-color="#FF3B5D"/>
</linearGradient>
<linearGradient id="paint59_linear_1_3" x1="188.591" y1="66.6202" x2="194.564" y2="71.0606" gradientUnits="userSpaceOnUse">
<stop stop-color="#FF695D"/>
<stop offset="1" stop-color="#FF3B5D"/>
</linearGradient>
<linearGradient id="paint60_linear_1_3" x1="109.112" y1="73.4027" x2="113.077" y2="82.8543" gradientUnits="userSpaceOnUse">
<stop stop-color="#FF695D"/>
<stop offset="1" stop-color="#FF3B5D"/>
</linearGradient>
<linearGradient id="paint61_linear_1_3" x1="75.2241" y1="142.824" x2="84.1257" y2="147.083" gradientUnits="userSpaceOnUse">
<stop stop-color="#943ADE"/>
<stop offset="1" stop-color="#531ED9"/>
</linearGradient>
<linearGradient id="paint62_linear_1_3" x1="80.8332" y1="142.123" x2="80.933" y2="142.17" gradientUnits="userSpaceOnUse">
<stop stop-color="#FF695D"/>
<stop offset="1" stop-color="#FF3B5D"/>
</linearGradient>
<linearGradient id="paint63_linear_1_3" x1="78.9347" y1="146.349" x2="91.592" y2="152.406" gradientUnits="userSpaceOnUse">
<stop stop-color="#B459FF"/>
<stop offset="1" stop-color="#7C48FF"/>
</linearGradient>
<linearGradient id="paint64_linear_1_3" x1="116.03" y1="146.459" x2="108.746" y2="144.32" gradientUnits="userSpaceOnUse">
<stop stop-color="#2657E3"/>
<stop offset="1" stop-color="#019BB8"/>
</linearGradient>
<linearGradient id="paint65_linear_1_3" x1="117.506" y1="141.68" x2="108.516" y2="139.04" gradientUnits="userSpaceOnUse">
<stop stop-color="#2657E3"/>
<stop offset="1" stop-color="#019BB8"/>
</linearGradient>
<linearGradient id="paint66_linear_1_3" x1="116.656" y1="144.317" x2="107.737" y2="141.698" gradientUnits="userSpaceOnUse">
<stop stop-color="#4D79F9"/>
<stop offset="1" stop-color="#01B5D6"/>
</linearGradient>
<linearGradient id="paint67_linear_1_3" x1="118.438" y1="138.528" x2="111.712" y2="136.552" gradientUnits="userSpaceOnUse">
<stop stop-color="#4D79F9"/>
<stop offset="1" stop-color="#01B5D6"/>
</linearGradient>
<linearGradient id="paint68_linear_1_3" x1="115.145" y1="151.055" x2="107.862" y2="148.917" gradientUnits="userSpaceOnUse">
<stop stop-color="#2657E3"/>
<stop offset="1" stop-color="#019BB8"/>
</linearGradient>
<linearGradient id="paint69_linear_1_3" x1="114.441" y1="155.031" x2="108.691" y2="153.342" gradientUnits="userSpaceOnUse">
<stop stop-color="#2657E3"/>
<stop offset="1" stop-color="#019BB8"/>
</linearGradient>
<linearGradient id="paint70_linear_1_3" x1="114.918" y1="153.434" x2="107.206" y2="151.17" gradientUnits="userSpaceOnUse">
<stop stop-color="#4D79F9"/>
<stop offset="1" stop-color="#01B5D6"/>
</linearGradient>
<linearGradient id="paint71_linear_1_3" x1="115.821" y1="148.739" x2="108.11" y2="146.475" gradientUnits="userSpaceOnUse">
<stop stop-color="#4D79F9"/>
<stop offset="1" stop-color="#01B5D6"/>
</linearGradient>
<linearGradient id="paint72_linear_1_3" x1="183.033" y1="127.712" x2="189.597" y2="131.101" gradientUnits="userSpaceOnUse">
<stop stop-color="#FF695D"/>
<stop offset="1" stop-color="#FF3B5D"/>
</linearGradient>
<linearGradient id="paint73_linear_1_3" x1="177.97" y1="131.362" x2="187.258" y2="136.158" gradientUnits="userSpaceOnUse">
<stop stop-color="#FF695D"/>
<stop offset="1" stop-color="#FF3B5D"/>
</linearGradient>
<linearGradient id="paint74_linear_1_3" x1="171.712" y1="134.417" x2="182.143" y2="139.804" gradientUnits="userSpaceOnUse">
<stop stop-color="#FF695D"/>
<stop offset="1" stop-color="#FF3B5D"/>
</linearGradient>
<linearGradient id="paint75_linear_1_3" x1="154.085" y1="143.312" x2="166.245" y2="149.592" gradientUnits="userSpaceOnUse">
<stop stop-color="#FF695D"/>
<stop offset="1" stop-color="#FF3B5D"/>
</linearGradient>
<linearGradient id="paint76_linear_1_3" x1="150.068" y1="132.277" x2="157.016" y2="135.649" gradientUnits="userSpaceOnUse">
<stop stop-color="#2657E3"/>
<stop offset="1" stop-color="#019BB8"/>
</linearGradient>
<linearGradient id="paint77_linear_1_3" x1="152.12" y1="128.227" x2="163.11" y2="133.56" gradientUnits="userSpaceOnUse">
<stop stop-color="#4D79F9"/>
<stop offset="1" stop-color="#01B5D6"/>
</linearGradient>
<linearGradient id="paint78_linear_1_3" x1="146.959" y1="136.018" x2="154.861" y2="139.853" gradientUnits="userSpaceOnUse">
<stop stop-color="#4D79F9"/>
<stop offset="1" stop-color="#01B5D6"/>
</linearGradient>
<linearGradient id="paint79_linear_1_3" x1="71.8774" y1="95.2397" x2="84.3887" y2="100.916" gradientUnits="userSpaceOnUse">
<stop stop-color="#5BC900"/>
<stop offset="0.5351" stop-color="#A0E000"/>
<stop offset="1" stop-color="#66CD00"/>
</linearGradient>
<linearGradient id="paint80_linear_1_3" x1="72.123" y1="94.6353" x2="77.9438" y2="97.2761" gradientUnits="userSpaceOnUse">
<stop stop-color="#CBFF48"/>
<stop offset="1" stop-color="#42DE09"/>
</linearGradient>
<linearGradient id="paint81_linear_1_3" x1="73.9092" y1="102.817" x2="86.4205" y2="108.493" gradientUnits="userSpaceOnUse">
<stop stop-color="#5BC900"/>
<stop offset="0.5351" stop-color="#A0E000"/>
<stop offset="1" stop-color="#66CD00"/>
</linearGradient>
<linearGradient id="paint82_linear_1_3" x1="75.2286" y1="117.158" x2="90.7192" y2="124.186" gradientUnits="userSpaceOnUse">
<stop stop-color="#5BC900"/>
<stop offset="0.5351" stop-color="#A0E000"/>
<stop offset="1" stop-color="#66CD00"/>
</linearGradient>
<linearGradient id="paint83_linear_1_3" x1="74.773" y1="100.614" x2="83.0444" y2="104.367" gradientUnits="userSpaceOnUse">
<stop stop-color="#CBFF48"/>
<stop offset="1" stop-color="#42DE09"/>
</linearGradient>
<linearGradient id="paint84_linear_1_3" x1="77.9347" y1="110.602" x2="84.3973" y2="113.534" gradientUnits="userSpaceOnUse">
<stop stop-color="#CBFF48"/>
<stop offset="1" stop-color="#42DE09"/>
</linearGradient>
<linearGradient id="paint85_linear_1_3" x1="193.025" y1="112.92" x2="194.744" y2="114.647" gradientUnits="userSpaceOnUse">
<stop stop-color="#FF9D00"/>
<stop offset="1" stop-color="#FFCB00"/>
</linearGradient>
<linearGradient id="paint86_linear_1_3" x1="186.736" y1="147.911" x2="188.847" y2="150.03" gradientUnits="userSpaceOnUse">
<stop stop-color="#FF695D"/>
<stop offset="1" stop-color="#FF3B5D"/>
</linearGradient>
<linearGradient id="paint87_linear_1_3" x1="145.07" y1="48.3927" x2="141.611" y2="52.9819" gradientUnits="userSpaceOnUse">
<stop stop-color="#FF9D00"/>
<stop offset="1" stop-color="#FFCB00"/>
</linearGradient>
<linearGradient id="paint88_linear_1_3" x1="195.964" y1="85.8691" x2="193.678" y2="84.4522" gradientUnits="userSpaceOnUse">
<stop stop-color="#FF695D"/>
<stop offset="1" stop-color="#FF3B5D"/>
</linearGradient>
<linearGradient id="paint89_linear_1_3" x1="161.264" y1="116.46" x2="158.978" y2="115.043" gradientUnits="userSpaceOnUse">
<stop stop-color="#FF695D"/>
<stop offset="1" stop-color="#FF3B5D"/>
</linearGradient>
<linearGradient id="paint90_linear_1_3" x1="96.5334" y1="123.94" x2="95.047" y2="128.469" gradientUnits="userSpaceOnUse">
<stop stop-color="#FF695D"/>
<stop offset="1" stop-color="#FF3B5D"/>
</linearGradient>
<linearGradient id="paint91_linear_1_3" x1="100.497" y1="55.9159" x2="98.2115" y2="54.4991" gradientUnits="userSpaceOnUse">
<stop stop-color="#FF9D00"/>
<stop offset="1" stop-color="#FFCB00"/>
</linearGradient>
<linearGradient id="paint92_linear_1_3" x1="183.251" y1="114.589" x2="184.057" y2="115.398" gradientUnits="userSpaceOnUse">
<stop stop-color="#FF695D"/>
<stop offset="1" stop-color="#FF3B5D"/>
</linearGradient>
<linearGradient id="paint93_linear_1_3" x1="165.869" y1="142.84" x2="166.463" y2="143.436" gradientUnits="userSpaceOnUse">
<stop stop-color="#FF695D"/>
<stop offset="1" stop-color="#FF3B5D"/>
</linearGradient>
<linearGradient id="paint94_linear_1_3" x1="138.837" y1="117.132" x2="139.665" y2="117.962" gradientUnits="userSpaceOnUse">
<stop stop-color="#FF695D"/>
<stop offset="1" stop-color="#FF3B5D"/>
</linearGradient>
<linearGradient id="paint95_linear_1_3" x1="101.146" y1="90.0083" x2="103.28" y2="92.1514" gradientUnits="userSpaceOnUse">
<stop stop-color="#FF695D"/>
<stop offset="1" stop-color="#FF3B5D"/>
</linearGradient>
<linearGradient id="paint96_linear_1_3" x1="119.381" y1="125.238" x2="120.25" y2="126.111" gradientUnits="userSpaceOnUse">
<stop stop-color="#FF9D00"/>
<stop offset="1" stop-color="#FFCB00"/>
</linearGradient>
<linearGradient id="paint97_linear_1_3" x1="82.2263" y1="67.0778" x2="83.359" y2="68.2151" gradientUnits="userSpaceOnUse">
<stop stop-color="#4D79F9"/>
<stop offset="1" stop-color="#01B5D6"/>
</linearGradient>
<linearGradient id="paint98_linear_1_3" x1="191.743" y1="123.131" x2="192.355" y2="123.745" gradientUnits="userSpaceOnUse">
<stop stop-color="#FF695D"/>
<stop offset="1" stop-color="#FF3B5D"/>
</linearGradient>
<linearGradient id="paint99_linear_1_3" x1="186.121" y1="98.3379" x2="187.702" y2="99.9248" gradientUnits="userSpaceOnUse">
<stop stop-color="#FF9D00"/>
<stop offset="1" stop-color="#FFCB00"/>
</linearGradient>
<linearGradient id="paint100_linear_1_3" x1="163.53" y1="161.013" x2="166.312" y2="163.806" gradientUnits="userSpaceOnUse">
<stop stop-color="#FF9D00"/>
<stop offset="1" stop-color="#FFCB00"/>
</linearGradient>
<linearGradient id="paint101_linear_1_3" x1="127.223" y1="50.3332" x2="127.887" y2="50.9995" gradientUnits="userSpaceOnUse">
<stop stop-color="#B459FF"/>
<stop offset="1" stop-color="#7C48FF"/>
</linearGradient>
<linearGradient id="paint102_linear_1_3" x1="140.966" y1="140.031" x2="142.296" y2="141.366" gradientUnits="userSpaceOnUse">
<stop stop-color="#CBFF48"/>
<stop offset="1" stop-color="#42DE09"/>
</linearGradient>
<linearGradient id="paint103_linear_1_3" x1="141.099" y1="87.2964" x2="142.746" y2="88.9494" gradientUnits="userSpaceOnUse">
<stop stop-color="#FF695D"/>
<stop offset="1" stop-color="#FF3B5D"/>
</linearGradient>
<linearGradient id="paint104_linear_1_3" x1="68.1206" y1="58.2453" x2="69.7669" y2="59.8982" gradientUnits="userSpaceOnUse">
<stop stop-color="#FF695D"/>
<stop offset="1" stop-color="#FF3B5D"/>
</linearGradient>
<linearGradient id="paint105_linear_1_3" x1="149.213" y1="108.409" x2="150.38" y2="109.58" gradientUnits="userSpaceOnUse">
<stop stop-color="#FF695D"/>
<stop offset="1" stop-color="#FF3B5D"/>
</linearGradient>
<linearGradient id="paint106_linear_1_3" x1="136.999" y1="104.922" x2="138.65" y2="106.581" gradientUnits="userSpaceOnUse">
<stop stop-color="#FF9D00"/>
<stop offset="1" stop-color="#FFCB00"/>
</linearGradient>
<linearGradient id="paint107_linear_1_3" x1="127.022" y1="102.678" x2="128.079" y2="103.739" gradientUnits="userSpaceOnUse">
<stop stop-color="#4D79F9"/>
<stop offset="1" stop-color="#01B5D6"/>
</linearGradient>
<linearGradient id="paint108_linear_1_3" x1="115.153" y1="176.608" x2="115.535" y2="176.992" gradientUnits="userSpaceOnUse">
<stop stop-color="#FF695D"/>
<stop offset="1" stop-color="#FF3B5D"/>
</linearGradient>
<linearGradient id="paint109_linear_1_3" x1="110.547" y1="172.283" x2="111.942" y2="173.683" gradientUnits="userSpaceOnUse">
<stop stop-color="#4D79F9"/>
<stop offset="1" stop-color="#01B5D6"/>
</linearGradient>
<linearGradient id="paint110_linear_1_3" x1="86.8681" y1="191.205" x2="118.748" y2="202.88" gradientUnits="userSpaceOnUse">
<stop stop-color="#4D79F9"/>
<stop offset="1" stop-color="#01B5D6"/>
</linearGradient>
<clipPath id="clip0_1_3">
<rect width="152" height="186" fill="white" transform="translate(109.812 0.131836) rotate(35.9251)"/>
</clipPath>
</defs>
</svg>
