<svg width="16" height="14" viewBox="0 0 16 14" fill="none" xmlns="http://www.w3.org/2000/svg">
<path d="M8 2.21214C8.97333 1.56547 10.295 1.16797 11.75 1.16797C13.2058 1.16797 14.5267 1.56547 15.5 2.21214V13.0455C14.5267 12.3988 13.2058 12.0013 11.75 12.0013C10.295 12.0013 8.97333 12.3988 8 13.0455M8 2.21214V13.0455V2.21214ZM8 2.21214C7.02667 1.56547 5.705 1.16797 4.25 1.16797C2.795 1.16797 1.47333 1.56547 0.5 2.21214V13.0455C1.47333 12.3988 2.795 12.0013 4.25 12.0013C5.705 12.0013 7.02667 12.3988 8 13.0455V2.21214Z" stroke="#4E4E4E" stroke-linecap="round" stroke-linejoin="round"/>
</svg>
