<svg width="20" height="20" viewBox="0 0 20 20" fill="none" xmlns="http://www.w3.org/2000/svg">
<path d="M10 5.21214C10.9733 4.56547 12.295 4.16797 13.75 4.16797C15.2058 4.16797 16.5267 4.56547 17.5 5.21214V16.0455C16.5267 15.3988 15.2058 15.0013 13.75 15.0013C12.295 15.0013 10.9733 15.3988 10 16.0455M10 5.21214V16.0455V5.21214ZM10 5.21214C9.02667 4.56547 7.705 4.16797 6.25 4.16797C4.795 4.16797 3.47333 4.56547 2.5 5.21214V16.0455C3.47333 15.3988 4.795 15.0013 6.25 15.0013C7.705 15.0013 9.02667 15.3988 10 16.0455V5.21214Z" stroke="#4E4E4E" stroke-linecap="round" stroke-linejoin="round"/>
</svg>
