<svg width="20" height="20" viewBox="0 0 20 20" fill="none" xmlns="http://www.w3.org/2000/svg">
<path d="M3.59837 5.26633C3.25014 5.61455 2.97391 6.02795 2.78546 6.48293C2.597 6.9379 2.5 7.42554 2.5 7.918C2.5 8.41046 2.597 8.8981 2.78546 9.35307C2.97391 9.80805 3.25014 10.2214 3.59837 10.5697L10 16.9713L16.4017 10.5697C17.105 9.8664 17.5001 8.91257 17.5001 7.918C17.5001 6.92343 17.105 5.9696 16.4017 5.26633C15.6984 4.56307 14.7446 4.16798 13.75 4.16798C12.7555 4.16798 11.8016 4.56307 11.0984 5.26633L10 6.36467L8.9017 5.26633C8.55348 4.91811 8.14008 4.64188 7.68511 4.45342C7.23013 4.26497 6.74249 4.16797 6.25003 4.16797C5.75757 4.16797 5.26993 4.26497 4.81496 4.45342C4.35998 4.64188 3.94659 4.91811 3.59837 5.26633Z" stroke="#646464" stroke-linecap="round" stroke-linejoin="round"/>
</svg>
