<svg width="16" height="26" viewBox="0 0 16 26" fill="none" xmlns="http://www.w3.org/2000/svg">
<path d="M8 10.9297C4.135 10.9297 1 14.1338 1 18.0862C1 22.0387 4.135 25.2428 8 25.2428C11.865 25.2428 15 22.0387 15 18.0862C15 14.1338 11.865 10.9297 8 10.9297ZM8 23.1981C5.238 23.1981 3 20.909 3 18.0862C3 15.2635 5.238 12.9744 8 12.9744C10.762 12.9744 13 15.2635 13 18.0862C13 20.909 10.762 23.1981 8 23.1981ZM9.484 18.7866L11 17.297L8.917 17.0036L8 15.0693L7.083 17.0036L5 17.297L6.516 18.7866L6.147 20.9029L8 19.8887L9.854 20.9029L9.484 18.7866ZM4 0.706055L9.958 8.88497H6L0 0.706055H4ZM10.604 8.06094L16 0.706055H12L8.624 5.34145L10.604 8.06094Z" fill="#4B4B4B"/>
</svg>
