<svg width="18" height="21" viewBox="0 0 18 21" fill="none" xmlns="http://www.w3.org/2000/svg">
<path d="M14.657 14.6572L10.414 18.9002C10.2284 19.0859 10.0081 19.2333 9.76556 19.3338C9.52303 19.4344 9.26305 19.4861 9.0005 19.4861C8.73796 19.4861 8.47798 19.4344 8.23544 19.3338C7.99291 19.2333 7.77256 19.0859 7.587 18.9002L3.343 14.6572C2.22422 13.5384 1.46234 12.1129 1.15369 10.5611C0.845043 9.00922 1.00349 7.40071 1.60901 5.93893C2.21452 4.47714 3.2399 3.22774 4.55548 2.3487C5.87107 1.46967 7.41777 1.00049 9 1.00049C10.5822 1.00049 12.1289 1.46967 13.4445 2.3487C14.7601 3.22774 15.7855 4.47714 16.391 5.93893C16.9965 7.40071 17.155 9.00922 16.8463 10.5611C16.5377 12.1129 15.7758 13.5384 14.657 14.6572V14.6572Z" stroke="#4B4B4B" stroke-width="2" stroke-linecap="round" stroke-linejoin="round"/>
</svg>
