<svg width="19" height="21" viewBox="0 0 19 21" fill="none" xmlns="http://www.w3.org/2000/svg">
<path d="M14.9929 14.6567L10.7499 18.8997C10.5644 19.0854 10.344 19.2328 10.1015 19.3333C9.85896 19.4339 9.59899 19.4856 9.33644 19.4856C9.07389 19.4856 8.81392 19.4339 8.57138 19.3333C8.32884 19.2328 8.1085 19.0854 7.92294 18.8997L3.67894 14.6567C2.56016 13.5379 1.79828 12.1124 1.48963 10.5606C1.18098 9.00873 1.33943 7.40022 1.94494 5.93844C2.55046 4.47665 3.57584 3.22725 4.89142 2.34821C6.20701 1.46918 7.75371 1 9.33594 1C10.9182 1 12.4649 1.46918 13.7805 2.34821C15.096 3.22725 16.1214 4.47665 16.7269 5.93844C17.3325 7.40022 17.4909 9.00873 17.1823 10.5606C16.8736 12.1124 16.1117 13.5379 14.9929 14.6567V14.6567Z" stroke="#0190D6" stroke-width="2" stroke-linecap="round" stroke-linejoin="round"/>
<path d="M12.3359 9C12.3359 9.79565 12.0199 10.5587 11.4573 11.1213C10.8946 11.6839 10.1316 12 9.33594 12C8.54029 12 7.77723 11.6839 7.21462 11.1213C6.65201 10.5587 6.33594 9.79565 6.33594 9C6.33594 8.20435 6.65201 7.44129 7.21462 6.87868C7.77723 6.31607 8.54029 6 9.33594 6C10.1316 6 10.8946 6.31607 11.4573 6.87868C12.0199 7.44129 12.3359 8.20435 12.3359 9V9Z" stroke="#0190D6" stroke-width="2" stroke-linecap="round" stroke-linejoin="round"/>
</svg>
