<svg width="24" height="25" viewBox="0 0 24 25" fill="none" xmlns="http://www.w3.org/2000/svg">
<path d="M14.752 11.4193L11.555 9.23932C11.4043 9.13648 11.229 9.07746 11.048 9.06856C10.867 9.05967 10.687 9.10123 10.5274 9.1888C10.3677 9.27638 10.2342 9.40668 10.1414 9.56577C10.0485 9.72487 9.99961 9.90678 10 10.0921V14.4509C9.99998 14.6361 10.0491 14.8177 10.1421 14.9765C10.2352 15.1353 10.3686 15.2653 10.5282 15.3527C10.6879 15.44 10.8677 15.4814 11.0485 15.4724C11.2293 15.4634 11.4044 15.4044 11.555 15.3017L14.752 13.1217C14.889 13.0283 15.0013 12.9018 15.0789 12.7534C15.1566 12.605 15.1972 12.4393 15.1972 12.271C15.1972 12.1027 15.1566 11.937 15.0789 11.7886C15.0013 11.6402 14.889 11.5137 14.752 11.4203V11.4193Z" fill="white" stroke="white" stroke-width="2" stroke-linecap="round" stroke-linejoin="round"/>
<path d="M21 12.2698C21 13.4783 20.7672 14.6749 20.3149 15.7914C19.8626 16.9079 19.1997 17.9223 18.364 18.7769C17.5282 19.6314 16.5361 20.3092 15.4442 20.7717C14.3522 21.2342 13.1819 21.4722 12 21.4722C10.8181 21.4722 9.64778 21.2342 8.55585 20.7717C7.46392 20.3092 6.47177 19.6314 5.63604 18.7769C4.80031 17.9223 4.13738 16.9079 3.68508 15.7914C3.23279 14.6749 3 13.4783 3 12.2698C3 9.82916 3.94821 7.48849 5.63604 5.7627C7.32387 4.03692 9.61305 3.06738 12 3.06738C14.3869 3.06738 16.6761 4.03692 18.364 5.7627C20.0518 7.48849 21 9.82916 21 12.2698Z" stroke="white" stroke-width="2" stroke-linecap="round" stroke-linejoin="round"/>
</svg>
