<svg width="13" height="14" viewBox="0 0 13 14" fill="none" xmlns="http://www.w3.org/2000/svg">
<path d="M9.70907 5.61484L4.38073 2.0615C4.1295 1.89388 3.83743 1.79768 3.53576 1.78317C3.23409 1.76867 2.93414 1.83641 2.66799 1.97916C2.40183 2.12191 2.17946 2.3343 2.02466 2.59363C1.86985 2.85296 1.78842 3.14948 1.78907 3.4515V10.5565C1.78902 10.8582 1.87089 11.1543 2.02594 11.4132C2.18099 11.672 2.40341 11.8839 2.66946 12.0263C2.93551 12.1686 3.23521 12.2361 3.53659 12.2215C3.83798 12.2068 4.12973 12.1106 4.38073 11.9432L9.70907 8.38984C9.93733 8.23763 10.1245 8.03143 10.2539 7.78953C10.3834 7.54764 10.4511 7.27752 10.4511 7.00317C10.4511 6.72882 10.3834 6.4587 10.2539 6.21681C10.1245 5.97491 9.93733 5.76704 9.70907 5.61484Z" fill="white" stroke="white" stroke-width="3.33333" stroke-linecap="round" stroke-linejoin="round"/>
</svg>
