<svg width="20" height="22" viewBox="0 0 20 22" fill="none" xmlns="http://www.w3.org/2000/svg">
<path d="M19 13.3597C16.1405 14.5418 13.0844 15.1476 10 15.1438C6.817 15.1438 3.78 14.5099 1 13.3597M10 12.0767H10.01M14 5.94248V3.89776C14 3.35546 13.7893 2.83538 13.4142 2.45191C13.0391 2.06845 12.5304 1.85303 12 1.85303H8C7.46957 1.85303 6.96086 2.06845 6.58579 2.45191C6.21071 2.83538 6 3.35546 6 3.89776V5.94248H14ZM3 20.2556H17C17.5304 20.2556 18.0391 20.0402 18.4142 19.6567C18.7893 19.2732 19 18.7531 19 18.2109V7.98721C19 7.44492 18.7893 6.92483 18.4142 6.54137C18.0391 6.15791 17.5304 5.94248 17 5.94248H3C2.46957 5.94248 1.96086 6.15791 1.58579 6.54137C1.21071 6.92483 1 7.44492 1 7.98721V18.2109C1 18.7531 1.21071 19.2732 1.58579 19.6567C1.96086 20.0402 2.46957 20.2556 3 20.2556Z" stroke="#4B4B4B" stroke-width="2" stroke-linecap="round" stroke-linejoin="round"/>
</svg>
