<svg width="185" height="212" viewBox="0 0 185 212" fill="none" xmlns="http://www.w3.org/2000/svg">
<g clip-path="url(#clip0_2_631)">
<path d="M143.574 140.823C144.397 142.477 138.35 147.176 130.071 151.317C121.793 155.458 114.416 157.484 113.593 155.831C112.77 154.177 118.817 149.478 127.096 145.337C135.373 141.188 142.751 139.17 143.574 140.823Z" fill="url(#paint0_linear_2_631)"/>
<path d="M56.0586 19.6061L55.9577 18.3398L57.9243 17.8937L58.2605 19.3216L56.0586 19.6061Z" fill="url(#paint1_linear_2_631)"/>
<path d="M66.4603 75.7754C67.2224 76.1037 71.4238 68.7177 72.4567 69.1237L75.0268 70.2095C74.4469 69.9413 70.1356 77.288 69.114 76.897L66.4603 75.7754Z" fill="#007F9F"/>
<path d="M70.4868 79.0213C71.2489 79.3496 77.4069 70.5083 78.4482 70.9127L81.0183 71.9986C80.4383 71.7304 74.1621 80.5339 73.1405 80.1429L70.4868 79.0213Z" fill="#007F9F"/>
<path d="M70.5144 79.0335C70.0882 78.8564 70.713 76.7684 71.7864 74.2021C72.8597 71.6358 72.8829 69.3008 72.4929 69.134C72.4929 69.134 74.5057 69.9817 75.1269 70.2421C75.6842 70.4803 75.4938 72.7439 74.4205 75.3102C73.3471 77.8765 72.6846 79.9458 73.1485 80.1416C73.1387 80.1349 70.9684 79.2225 70.5144 79.0335Z" fill="url(#paint2_linear_2_631)"/>
<path d="M78.016 78.6286C79.4155 76.3438 79.8952 71.524 78.3823 70.8824C78.3823 70.8824 80.3951 71.7301 81.0081 71.9921C82.585 72.6559 82.0056 77.2631 80.6402 79.73L78.016 78.6286Z" fill="url(#paint3_linear_2_631)"/>
<path d="M100.953 40.6505C101.45 41.9796 90.537 48.0628 91.1407 49.8689L92.7695 54.3617C92.3644 53.3409 103.217 47.072 102.634 45.2877L100.953 40.6505Z" fill="url(#paint4_linear_2_631)"/>
<path d="M100.937 40.6106C100.336 38.9581 95.7175 39.4305 91.254 41.0476L92.9113 45.6465C97.3749 44.0293 101.952 43.4276 102.592 45.2011C102.592 45.2011 101.222 41.4052 100.937 40.6106Z" fill="url(#paint5_linear_2_631)"/>
<path d="M105.373 48.407C106.244 50.8226 94.7755 60.7717 95.6473 63.1873L97.2761 67.68C96.8711 66.6593 108.06 55.8544 107.047 53.0539L105.373 48.407Z" fill="url(#paint6_linear_2_631)"/>
<path d="M112.012 65.9953C113.13 69.0845 107.872 85.3658 112.4 96.5209L114.029 101.014C112.628 97.1464 117.177 80.3211 113.687 70.6423L112.012 65.9953Z" fill="url(#paint7_linear_2_631)"/>
<path d="M132.406 125.696C133.523 128.785 128.185 143.454 132.225 154.649L133.854 159.142C131.74 153.292 136.836 137.975 134.079 130.335L132.406 125.696Z" fill="url(#paint8_linear_2_631)"/>
<path d="M105.45 48.6411C105.197 47.9262 102.62 47.9897 98.3237 49.5412C94.0272 51.0928 91.3657 50.5211 91.1326 49.8707C91.1326 49.8707 92.3589 53.2652 92.731 54.2921C93.0695 55.2312 95.6256 55.5142 99.9221 53.9626C104.219 52.4111 106.765 52.2762 107.047 53.0543C107.047 53.0543 105.728 49.3944 105.45 48.6411Z" fill="url(#paint9_linear_2_631)"/>
<path d="M111.929 65.7792C111.414 64.3507 108.661 63.5648 103.871 63.7179C99.1245 63.8716 95.9139 63.9255 95.668 63.2519C95.668 63.2519 96.9439 66.7741 97.3253 67.8508C97.6798 68.8296 100.784 68.5299 105.53 68.325C110.225 68.1212 113.119 69.0691 113.587 70.378C113.585 70.3697 112.215 66.5738 111.929 65.7792Z" fill="url(#paint10_linear_2_631)"/>
<path d="M132.535 126.066C128.889 115.962 114.935 103.559 112.169 95.8781C112.169 95.8781 113.439 99.4101 113.827 100.477C120.645 119.377 133.083 127.574 134.193 130.665L132.535 126.066Z" fill="url(#paint11_linear_2_631)"/>
<path d="M84.1952 108.555C84.8424 108.434 85.2683 107.809 85.1465 107.16C85.0247 106.511 84.4013 106.083 83.7541 106.205C83.107 106.326 82.681 106.951 82.8028 107.6C82.9246 108.249 83.548 108.677 84.1952 108.555Z" fill="url(#paint12_linear_2_631)"/>
<path d="M44.5816 90.2992C46.0263 90.0281 46.9772 88.6336 46.7053 87.1845C46.4334 85.7354 45.0418 84.7804 43.597 85.0514C42.1522 85.3225 41.2014 86.717 41.4733 88.1661C41.7451 89.6152 43.1368 90.5702 44.5816 90.2992Z" fill="url(#paint13_linear_2_631)"/>
<path d="M65.6008 59.6306C65.6131 60.2881 65.1012 60.8382 64.4456 60.8499C63.79 60.8615 63.2408 60.3476 63.2285 59.6901C63.2162 59.0326 63.7281 58.4825 64.3837 58.4709C65.0377 58.451 65.5885 58.9731 65.6008 59.6306Z" fill="url(#paint14_linear_2_631)"/>
<path d="M137.674 19.8626C138.322 19.7412 138.748 19.1165 138.626 18.4674C138.504 17.8183 137.881 17.3905 137.233 17.5119C136.586 17.6333 136.16 18.258 136.282 18.9071C136.404 19.5562 137.027 19.984 137.674 19.8626Z" fill="url(#paint15_linear_2_631)"/>
<path d="M107.534 151.492C108.181 151.371 108.607 150.746 108.485 150.097C108.364 149.448 107.74 149.02 107.093 149.141C106.446 149.263 106.02 149.887 106.142 150.537C106.264 151.186 106.887 151.614 107.534 151.492Z" fill="url(#paint16_linear_2_631)"/>
<path d="M44.8486 35.7098C45.4958 35.5883 45.9217 34.9637 45.8 34.3145C45.6782 33.6654 45.0548 33.2376 44.4076 33.359C43.7604 33.4805 43.3345 34.1051 43.4563 34.7543C43.5781 35.4034 44.2014 35.8312 44.8486 35.7098Z" fill="url(#paint17_linear_2_631)"/>
<path d="M119.975 150.007C119.987 150.664 119.475 151.215 118.82 151.226C118.164 151.238 117.615 150.724 117.603 150.067C117.59 149.409 118.102 148.859 118.758 148.847C119.412 148.827 119.954 149.351 119.975 150.007Z" fill="url(#paint18_linear_2_631)"/>
<path d="M63.419 140.978C64.0662 140.856 64.4921 140.232 64.3703 139.583C64.2486 138.933 63.6252 138.506 62.978 138.627C62.3308 138.748 61.9049 139.373 62.0267 140.022C62.1485 140.671 62.7718 141.099 63.419 140.978Z" fill="url(#paint19_linear_2_631)"/>
<path d="M82.2743 41.4046C82.9214 41.2831 83.3474 40.6585 83.2256 40.0094C83.1038 39.3602 82.4804 38.9324 81.8332 39.0538C81.186 39.1753 80.7601 39.7999 80.8819 40.4491C81.0037 41.0982 81.6271 41.526 82.2743 41.4046Z" fill="url(#paint20_linear_2_631)"/>
<path d="M33.1276 129.516C33.9115 129.369 34.4274 128.612 34.2799 127.826C34.1323 127.04 33.3773 126.521 32.5933 126.669C31.8094 126.816 31.2935 127.572 31.441 128.359C31.5885 129.145 32.3436 129.663 33.1276 129.516Z" fill="url(#paint21_linear_2_631)"/>
<path d="M132.142 77.4355C132.79 77.3141 133.216 76.6894 133.094 76.0403C132.972 75.3911 132.349 74.9633 131.701 75.0847C131.054 75.2062 130.628 75.8308 130.75 76.48C130.872 77.1291 131.495 77.5569 132.142 77.4355Z" fill="url(#paint22_linear_2_631)"/>
<path d="M71.7387 122.982C71.751 123.64 71.2391 124.19 70.5835 124.202C69.9278 124.213 69.3787 123.699 69.3664 123.042C69.3541 122.384 69.8659 121.834 70.5216 121.823C71.1756 121.803 71.7181 122.326 71.7387 122.982Z" fill="url(#paint23_linear_2_631)"/>
<path d="M151.322 45.0216C152.475 44.8052 153.234 43.6923 153.017 42.5357C152.8 41.3792 151.69 40.617 150.537 40.8333C149.383 41.0496 148.625 42.1626 148.842 43.3191C149.059 44.4757 150.169 45.2379 151.322 45.0216Z" fill="url(#paint24_linear_2_631)"/>
<path d="M68.066 157.827C68.0783 158.484 67.5664 159.034 66.9108 159.046C66.2552 159.057 65.706 158.544 65.6937 157.886C65.6814 157.229 66.1933 156.678 66.8489 156.667C67.503 156.647 68.0455 157.171 68.066 157.827Z" fill="url(#paint25_linear_2_631)"/>
<path d="M148.835 102.434C148.848 103.092 148.336 103.642 147.68 103.654C147.025 103.665 146.475 103.151 146.463 102.494C146.451 101.836 146.963 101.286 147.618 101.275C148.272 101.255 148.813 101.77 148.835 102.434Z" fill="url(#paint26_linear_2_631)"/>
<path d="M36.5143 52.7136C37.1615 52.5922 37.5874 51.9675 37.4656 51.3184C37.3438 50.6693 36.7205 50.2415 36.0733 50.3629C35.4261 50.4843 35.0002 51.109 35.122 51.7581C35.2437 52.4073 35.8671 52.835 36.5143 52.7136Z" fill="url(#paint27_linear_2_631)"/>
<path d="M107.91 112.786C107.918 113.059 107.698 113.297 107.424 113.297C107.153 113.305 106.915 113.084 106.914 112.81C106.906 112.538 107.126 112.299 107.4 112.299C107.671 112.291 107.901 112.514 107.91 112.786Z" fill="url(#paint28_linear_2_631)"/>
<path d="M92.5394 156.902C92.5478 157.175 92.3277 157.413 92.0543 157.413C91.7825 157.421 91.5445 157.2 91.5443 156.926C91.5359 156.653 91.756 156.415 92.0294 156.415C92.3013 156.407 92.531 156.629 92.5394 156.902Z" fill="url(#paint29_linear_2_631)"/>
<path d="M106.547 23.9289C106.555 24.2015 106.335 24.4399 106.062 24.4398C105.79 24.4479 105.552 24.227 105.552 23.9528C105.543 23.6802 105.763 23.4418 106.037 23.4419C106.309 23.4338 106.537 23.648 106.547 23.9289Z" fill="url(#paint30_linear_2_631)"/>
<path d="M55.0779 135.405C55.0863 135.678 54.8662 135.916 54.5928 135.916C54.321 135.924 54.083 135.703 54.0829 135.429C54.0744 135.157 54.2945 134.918 54.5679 134.918C54.8398 134.91 55.0679 135.125 55.0779 135.405Z" fill="url(#paint31_linear_2_631)"/>
<path d="M69.5816 23.015C69.59 23.2876 69.3699 23.526 69.0965 23.5259C68.8247 23.534 68.5867 23.3131 68.5865 23.0389C68.5781 22.7663 68.7982 22.5279 69.0716 22.528C69.3517 22.5183 69.5798 22.7326 69.5816 23.015Z" fill="url(#paint32_linear_2_631)"/>
<path d="M96.4358 141.382C96.4443 141.654 96.2242 141.893 95.9508 141.892C95.6789 141.901 95.441 141.68 95.4408 141.405C95.4324 141.133 95.6525 140.895 95.9259 140.895C96.1977 140.886 96.4274 141.109 96.4358 141.382Z" fill="url(#paint33_linear_2_631)"/>
<path d="M81.8907 93.3585C81.8991 93.6312 81.679 93.8695 81.4056 93.8694C81.1337 93.8776 80.8958 93.6566 80.8956 93.3824C80.8872 93.1098 81.1073 92.8714 81.3807 92.8716C81.6608 92.8619 81.8905 93.0844 81.8907 93.3585Z" fill="url(#paint34_linear_2_631)"/>
<path d="M141.846 132.57C141.858 132.996 141.522 133.351 141.097 133.362C140.672 133.373 140.319 133.037 140.307 132.61C140.296 132.184 140.631 131.83 141.056 131.819C141.481 131.808 141.834 132.144 141.846 132.57Z" fill="url(#paint35_linear_2_631)"/>
<path d="M73.5511 144.853C73.5596 145.125 73.3395 145.363 73.0661 145.363C72.7942 145.372 72.5563 145.151 72.5561 144.876C72.5477 144.604 72.7678 144.365 73.0412 144.366C73.313 144.357 73.5427 144.58 73.5511 144.853Z" fill="url(#paint36_linear_2_631)"/>
<path d="M155.49 90.8692C155.49 90.8692 156.629 89.5159 155.17 87.6562C153.7 85.7897 154.347 84.9572 154.347 84.9572L155.337 84.2231C155.337 84.2231 155.379 83.5382 156.576 84.7704C157.764 86.0041 159.024 90.2148 157.331 90.7551C155.044 91.4928 155.49 90.8692 155.49 90.8692Z" fill="url(#paint37_linear_2_631)"/>
<path d="M157.805 90.4094C157.805 90.4094 157.094 91.3567 155.752 92.0798C155.101 92.4334 152.858 91.9115 152.177 89.8716C152.177 89.8716 151.949 89.6144 152.436 88.8376C152.922 88.0609 153.335 87.4864 153.59 87.5672C153.59 87.5672 153.604 88.19 154.117 88.8306C154.449 89.2311 154.744 89.4413 155.514 89.948C156.752 90.7612 157.572 90.7186 157.805 90.4094Z" fill="url(#paint38_linear_2_631)"/>
<path d="M155.499 84.0381C155.499 84.0381 155.032 83.8687 153.98 85.2313C153.501 85.8611 153.469 86.741 153.955 87.3697C154.123 87.5865 154.34 87.8287 154.628 88.0916C156.129 89.4895 157.969 90.0096 158.791 89.427C160.472 88.2292 160.95 87.454 161.103 87.0397C161.103 87.0397 160.36 88.3615 158.308 87.5811C155.963 86.693 154.688 84.5415 155.499 84.0381Z" fill="url(#paint39_linear_2_631)"/>
<path d="M140.529 29.7456C139.699 30.1498 138.982 30.5157 138.326 30.8873C137.669 31.259 137.08 31.6265 136.516 32.0323C135.951 32.4381 135.408 32.8657 134.86 33.3626C134.305 33.861 133.725 34.4153 133.089 35.0745C133.29 35.2852 134.895 37.0063 135.098 37.2252C135.733 36.5577 136.311 35.9951 136.865 35.4884C137.421 34.99 137.961 34.5459 138.524 34.1318C139.089 33.726 139.676 33.3502 140.339 32.9687C140.994 32.5888 141.718 32.213 142.556 31.8073C142.353 31.5884 140.729 29.9479 140.529 29.7456Z" fill="url(#paint40_linear_2_631)"/>
<path d="M74.7402 108.067C73.8641 107.769 73.0927 107.528 72.3653 107.339C71.6363 107.142 70.9594 106.995 70.2738 106.892C69.5866 106.781 68.8989 106.713 68.1582 106.68C67.4159 106.64 66.6122 106.636 65.7028 106.661C65.6978 106.953 65.6529 109.31 65.6413 109.612C66.5589 109.585 67.3693 109.579 68.1183 109.61C68.8673 109.641 69.5632 109.707 70.2489 109.81C70.9345 109.913 71.6196 110.058 72.3569 110.254C73.0926 110.442 73.8722 110.681 74.7483 110.979C74.7599 110.677 74.7434 108.358 74.7402 108.067Z" fill="url(#paint41_linear_2_631)"/>
<path d="M135.46 113.058C134.889 112.334 134.362 111.713 133.857 111.157C133.351 110.6 132.856 110.102 132.342 109.641C131.828 109.181 131.287 108.751 130.676 108.317C130.065 107.884 129.393 107.444 128.619 106.964C128.46 107.208 127.143 109.16 126.977 109.414C127.767 109.891 128.447 110.329 129.067 110.761C129.678 111.195 130.228 111.623 130.76 112.089C131.281 112.548 131.785 113.045 132.299 113.6C132.813 114.154 133.341 114.784 133.921 115.506C134.072 115.263 135.309 113.3 135.46 113.058Z" fill="url(#paint42_linear_2_631)"/>
<path d="M54.9244 151.8C55.9966 151.505 56.976 151.261 57.9353 151.047C58.9029 150.831 59.8504 150.645 60.852 150.474C61.8552 150.311 62.9209 150.163 64.1165 150.024C65.3121 149.886 66.646 149.755 68.1826 149.613C67.7956 149.463 64.6714 148.292 64.2762 148.144C62.7396 148.286 61.4057 148.416 60.2019 148.557C59.0062 148.695 57.9406 148.844 56.9307 149.016C55.9291 149.187 54.9733 149.375 54.0058 149.591C53.0397 149.815 52.0619 150.067 50.9896 150.362C51.4014 150.508 54.5389 151.658 54.9244 151.8Z" fill="url(#paint43_linear_2_631)"/>
<path d="M92.8702 95.1459C92.4561 95.2151 89.1411 95.7599 88.727 95.829C89.7161 96.1833 90.5705 96.5028 91.3212 96.8161C92.0802 97.1278 92.734 97.425 93.3398 97.7398C93.9456 98.0546 94.5019 98.3786 95.0396 98.7404C95.5856 99.1007 96.1213 99.4972 96.6958 99.9635C97.1264 99.8913 100.528 99.3046 100.95 99.2339C100.361 98.7789 99.8166 98.384 99.2623 98.0253C98.7081 97.6666 98.1534 97.3508 97.5311 97.0391C96.9186 96.7342 96.2565 96.4385 95.4893 96.1283C94.7287 95.8083 93.866 95.4903 92.8702 95.1459Z" fill="url(#paint44_linear_2_631)"/>
<path d="M35.532 142.962C35.3744 143.351 34.1333 146.48 33.9773 146.878C34.7919 146.211 35.5049 145.64 36.1576 145.158C36.8171 144.666 37.4064 144.255 37.9886 143.898C38.5707 143.54 39.1276 143.23 39.717 142.957C40.3049 142.675 40.9237 142.422 41.6102 142.164C41.7646 141.758 43.0217 138.532 43.1777 138.134C42.4846 138.402 41.8689 138.671 41.2743 138.963C40.688 139.253 40.1228 139.564 39.5438 139.939C38.9632 140.305 38.3672 140.725 37.7093 141.225C37.0581 141.716 36.3451 142.287 35.532 142.962Z" fill="url(#paint45_linear_2_631)"/>
<path d="M81.1077 26.4393C80.6935 26.5084 77.3786 27.0532 76.9644 27.1224C77.9535 27.4766 78.8079 27.7961 79.5587 28.1094C80.3177 28.4212 80.9715 28.7184 81.5773 29.0331C82.1831 29.3479 82.7393 29.672 83.2771 30.0338C83.8231 30.394 84.3588 30.7905 84.9332 31.2568C85.3639 31.1846 88.765 30.5979 89.1874 30.5272C88.598 30.0723 88.054 29.6774 87.4998 29.3186C86.9456 28.9599 86.3908 28.6441 85.7685 28.3325C85.156 28.0275 84.494 27.7319 83.7267 27.4217C82.9662 27.1017 82.1035 26.7837 81.1077 26.4393Z" fill="url(#paint46_linear_2_631)"/>
<path d="M135.347 62.0023C134.902 62.6342 134.477 63.1938 134.036 63.7134C133.587 64.2347 133.129 64.7062 132.602 65.1736C132.074 65.641 131.494 66.1012 130.815 66.5799C130.129 67.0684 129.345 67.5755 128.427 68.1503C128.828 68.2379 132.061 68.9423 132.462 69.0299C133.38 68.4551 134.153 67.933 134.831 67.446C135.508 66.959 136.08 66.5004 136.597 66.0263C137.115 65.5522 137.572 65.0723 138.012 64.5526C138.445 64.0345 138.868 63.4667 139.295 62.8296C138.904 62.7487 135.748 62.0899 135.347 62.0023Z" fill="url(#paint47_linear_2_631)"/>
<path d="M39.7514 59.9984C40.2986 60.684 40.7101 61.2837 40.9953 61.8472C41.2804 62.4106 41.4391 62.9378 41.4693 63.4633C41.4996 63.9889 41.3916 64.5062 41.1629 65.0632C40.926 65.6217 40.5602 66.2216 40.0716 66.896C41.0197 66.9409 48.6575 67.3073 49.6139 67.3506C50.0844 66.6711 50.4255 66.0759 50.6361 65.5137C50.8467 64.9515 50.9284 64.4306 50.8801 63.8999C50.8333 63.3774 50.6483 62.8466 50.3369 62.2795C50.0254 61.7124 49.5861 61.1008 49.0141 60.4198C48.0757 60.3816 40.6732 60.0396 39.7514 59.9984Z" fill="url(#paint48_linear_2_631)"/>
<path d="M121.844 59.3343C122.828 58.7983 122.87 52.8268 124.173 52.0767L127.476 50.2403C126.707 50.6501 126.533 56.6894 125.256 57.443L121.844 59.3343Z" fill="url(#paint49_linear_2_631)"/>
<path d="M121.821 59.3462C120.608 60.028 118.732 60.7312 117.669 58.4801L121.049 56.595C122.112 58.8462 123.895 58.1946 125.201 57.4612C125.194 57.471 122.402 59.0232 121.821 59.3462Z" fill="url(#paint50_linear_2_631)"/>
<path d="M157.964 111.612C157.964 111.612 147.134 111.442 143.558 128.719L142.092 125.275C142.092 125.275 145.763 107.047 160.619 107.275L157.964 111.612Z" fill="url(#paint51_linear_2_631)"/>
<path d="M76.5749 55.6005C76.5749 55.6005 79.036 50.049 71.3226 48.3687L73.3374 47.5879C73.3374 47.5879 81.5017 49.3037 78.1295 56.9197L76.5749 55.6005Z" fill="url(#paint52_linear_2_631)"/>
<path d="M94.043 114.24C94.043 114.24 88.2389 115.997 92.0204 122.948L90.1117 121.927C90.1117 121.927 86.0658 114.614 94.02 112.205L94.043 114.24Z" fill="url(#paint53_linear_2_631)"/>
<path d="M45.5575 107.107C45.5575 107.107 41.9666 99.7603 33.59 106.293L34.524 103.53C34.524 103.53 43.3238 96.5667 48.2556 106.643L45.5575 107.107Z" fill="url(#paint54_linear_2_631)"/>
<path d="M108.374 36.1309C108.374 36.1309 109.655 40.1321 114.396 37.4433L113.715 38.7791C113.715 38.7791 108.72 41.6613 106.964 36.1727L108.374 36.1309Z" fill="url(#paint55_linear_2_631)"/>
<path d="M18.1358 113.58C18.1358 113.58 19.4162 117.582 24.157 114.893L23.4765 116.229C23.4765 116.229 18.4814 119.111 16.7255 113.622L18.1358 113.58Z" fill="url(#paint56_linear_2_631)"/>
<path d="M26.3649 66.5541C26.3649 66.5541 22.4131 65.162 21.6961 70.5833L21.0411 69.2324C21.0411 69.2324 21.76 63.5022 27.1848 65.4149L26.3649 66.5541Z" fill="url(#paint57_linear_2_631)"/>
<path d="M98.2621 138.777C98.2621 138.777 95.7718 134.429 92.163 139.099L92.3728 137.303C92.3728 137.303 96.1563 132.335 99.572 138.292L98.2621 138.777Z" fill="url(#paint58_linear_2_631)"/>
<path d="M109.52 17.9125C109.52 17.9125 107.029 13.5642 103.421 18.2342L103.63 16.4383C103.63 16.4383 107.414 11.4699 110.829 17.4268L109.52 17.9125Z" fill="url(#paint59_linear_2_631)"/>
<path d="M60.7837 83.858C60.7837 83.858 59.8766 79.6153 53.197 80.303L54.3348 79.3098C54.3348 79.3098 61.3744 78.5374 62.6209 84.3616L60.7837 83.858Z" fill="url(#paint60_linear_2_631)"/>
<path d="M80.5835 151.828L83.3366 154.208C83.3366 154.208 85.0144 149.9 88.9798 146.174C86.134 145.577 83.0598 146.677 80.5835 151.828Z" fill="url(#paint61_linear_2_631)"/>
<path d="M84.0361 147.239C83.9762 147.285 83.9479 147.316 83.9479 147.316C83.9696 147.295 84.0077 147.27 84.0361 147.239Z" fill="url(#paint62_linear_2_631)"/>
<path d="M88.9702 146.167C88.9784 146.166 88.9784 146.166 88.98 146.174C93.5411 147.126 97.5192 152.438 97.5192 152.438L99.5852 148.606C97.1619 145.753 95.0313 144.55 93.1664 144.446C89.1644 144.151 85.6294 145.8 84.0384 147.247C84.4143 146.928 86.0415 145.765 88.9702 146.167Z" fill="url(#paint63_linear_2_631)"/>
<path d="M106.439 130.996C105.993 130.394 111.628 125.181 111.061 124.345L109.592 122.299C109.944 122.764 104.368 128.06 104.922 128.873L106.439 130.996Z" fill="url(#paint64_linear_2_631)"/>
<path d="M102.777 128.092C102.331 127.491 108.85 120.253 108.283 119.416L106.814 117.37C107.166 117.835 100.714 125.155 101.261 125.978L102.777 128.092Z" fill="url(#paint65_linear_2_631)"/>
<path d="M102.765 128.069C103.008 128.409 104.714 127.437 106.745 125.968C108.784 124.497 110.827 124.003 111.047 124.313C111.047 124.313 109.891 122.704 109.543 122.213C109.22 121.768 107.279 122.398 105.24 123.868C103.201 125.339 101.526 126.339 101.26 125.969C101.262 125.977 102.502 127.715 102.765 128.069Z" fill="url(#paint66_linear_2_631)"/>
<path d="M101.592 121.366C103.316 119.671 107.451 118.261 108.318 119.47C108.318 119.47 107.162 117.861 106.814 117.37C105.911 116.108 101.988 117.556 100.096 119.264L101.592 121.366Z" fill="url(#paint67_linear_2_631)"/>
<path d="M109.168 134.794C108.722 134.192 114.356 128.98 113.79 128.143L112.321 126.097C112.673 126.562 107.097 131.858 107.651 132.671L109.168 134.794Z" fill="url(#paint68_linear_2_631)"/>
<path d="M112.779 136.602C112.779 136.602 117.075 132.771 116.518 131.941L115.049 129.895C115.861 131.036 111.306 134.899 111.306 134.899L112.779 136.602Z" fill="url(#paint69_linear_2_631)"/>
<path d="M109.182 134.817C109.425 135.157 110.772 134.733 112.813 133.27C114.852 131.799 116.347 131.707 116.565 132.009C116.565 132.009 115.409 130.401 115.061 129.909C114.738 129.464 113.347 129.7 111.308 131.17C109.269 132.641 107.944 133.095 107.679 132.725C107.677 132.717 108.925 134.454 109.182 134.817Z" fill="url(#paint70_linear_2_631)"/>
<path d="M106.393 130.927C106.636 131.267 107.983 130.843 110.024 129.381C112.063 127.91 113.558 127.818 113.777 128.119C113.777 128.119 112.621 126.511 112.272 126.02C111.95 125.575 110.559 125.81 108.519 127.281C106.48 128.752 105.156 129.206 104.89 128.836C104.89 128.836 106.137 130.564 106.393 130.927Z" fill="url(#paint71_linear_2_631)"/>
<path d="M144.624 60.9978C144.435 61.8559 152.963 64.7372 152.754 65.899L152.161 68.795C152.318 68.1314 143.811 65.1347 144.007 63.9926L144.624 60.9978Z" fill="#E32A3A"/>
<path d="M144.627 60.9716C144.845 59.9025 147.719 59.7832 150.608 60.3809L150.002 63.3478C147.122 62.7485 144.259 62.7887 144.021 63.9302C144.021 63.9302 144.518 61.4806 144.627 60.9716Z" fill="url(#paint72_linear_2_631)"/>
<path d="M143.518 66.3988C143.329 67.2569 151.857 70.1382 151.648 71.3L151.055 74.196C151.212 73.5324 142.705 70.5357 142.901 69.3936L143.518 66.3988Z" fill="#E32A3A"/>
<path d="M141.934 74.1255C141.523 76.1221 146.564 82.4082 146.082 84.7606L145.489 87.6566C146.004 85.1609 140.773 79.8188 141.325 77.1188L141.934 74.1255Z" fill="#E32A3A"/>
<path d="M137.841 97.471C137.429 99.4675 142.47 105.754 141.989 108.106L141.396 111.002C141.91 108.506 136.679 103.164 137.232 100.464L137.841 97.471Z" fill="#E32A3A"/>
<path d="M143.521 66.3726C143.619 65.8915 145.265 65.6941 148.154 66.2918C151.034 66.891 152.678 66.2741 152.768 65.8458C152.768 65.8458 152.298 68.1191 152.163 68.8127C152.034 69.4453 150.429 69.8579 147.548 69.2587C144.668 68.6595 143.031 68.8124 142.923 69.3296C142.915 69.3312 143.412 66.8815 143.521 66.3726Z" fill="url(#paint73_linear_2_631)"/>
<path d="M141.886 74.3232C142.073 73.4056 143.695 72.6728 146.65 72.3497C149.57 72.0246 151.548 71.7735 151.637 71.337C151.637 71.337 151.166 73.6102 151.032 74.3038C150.903 74.9364 148.971 75.0245 146.045 75.3166C143.151 75.6024 141.455 76.4433 141.289 77.2885C141.281 77.29 141.786 74.8388 141.886 74.3232Z" fill="url(#paint74_linear_2_631)"/>
<path d="M137.79 97.7036C139.239 93.3187 145.083 89.6345 146.093 84.681C146.093 84.681 145.623 86.9542 145.488 87.6478C144.384 93.0561 137.589 98.6838 137.184 100.67L137.79 97.7036Z" fill="url(#paint75_linear_2_631)"/>
<path d="M123.62 87.2433C122.451 89.6218 130.077 89.4679 131.749 91.5962C132.085 91.1561 132.325 90.657 132.402 90.0684C132.728 87.5225 126.79 87.2913 124.615 86.0799C124.201 86.3802 123.853 86.7541 123.62 87.2433Z" fill="url(#paint76_linear_2_631)"/>
<path d="M133.71 80.0981C133.71 80.0981 133.582 81.056 132.92 81.4458C130.878 82.7629 125.428 81.6262 123.958 84.6268C123.902 84.7401 123.869 84.8404 123.854 84.9377L123.497 87.6351C123.497 87.6351 124.038 86.4198 124.615 86.0801C124.638 86.0672 124.653 86.0559 124.668 86.0445C127.339 84.2067 132.887 85.5478 133.333 82.9621L133.71 80.0981Z" fill="url(#paint77_linear_2_631)"/>
<path d="M132.417 89.9204C132.417 89.9204 132.193 91.0505 131.747 91.5883C131.741 91.5982 131.734 91.608 131.727 91.6178C130.063 93.7209 125.992 94.2447 125.992 94.2447L125.646 96.863C125.646 96.863 131.503 96.1155 132.039 92.7761L132.417 89.9204Z" fill="url(#paint78_linear_2_631)"/>
<path d="M44.2795 122.882C45.3745 123.482 52.269 116.062 53.7624 116.827L57.4633 118.841C56.6221 118.364 49.577 125.71 48.1032 124.958L44.2795 122.882Z" fill="url(#paint79_linear_2_631)"/>
<path d="M44.2501 122.862C44.1077 122.786 44.3007 118.26 45.5587 116.404L49.353 118.46C47.5338 121.149 46.5712 124.123 48.0362 124.919C48.0346 124.911 44.8967 123.212 44.2501 122.862Z" fill="url(#paint80_linear_2_631)"/>
<path d="M51.1819 126.617C52.2769 127.217 59.1714 119.797 60.6647 120.562L64.3656 122.576C63.5245 122.099 56.4793 129.445 55.0056 128.693L51.1819 126.617Z" fill="url(#paint81_linear_2_631)"/>
<path d="M61.051 131.955C63.5996 133.336 73.8686 131.152 76.8641 132.775L80.565 134.789C77.3796 133.064 68.3269 135.902 64.8747 134.031L61.051 131.955Z" fill="url(#paint82_linear_2_631)"/>
<path d="M51.145 126.598C50.536 126.267 50.848 124.469 52.6671 121.78C55.0475 118.257 55.4665 117.758 53.6873 116.79C53.6873 116.79 56.5961 118.36 57.4816 118.846C58.2887 119.277 58.2806 121.146 56.4614 123.835C54.6423 126.524 54.2648 128.292 54.931 128.655C54.9295 128.647 51.7998 126.946 51.145 126.598Z" fill="url(#paint83_linear_2_631)"/>
<path d="M61.3098 132.103C60.1312 131.467 59.726 129.444 60.3191 126.231C60.9103 123.052 61.2643 120.886 60.7126 120.587C60.7126 120.587 63.6215 122.158 64.507 122.643C65.314 123.074 64.7572 125.115 64.1135 128.286C63.48 131.421 64.0189 133.565 65.0943 134.152C65.0943 134.152 61.9564 132.453 61.3098 132.103Z" fill="url(#paint84_linear_2_631)"/>
<path d="M139.915 46.5524L140.373 44.17L142.3 44.6054L140.907 47.3345L139.915 46.5524Z" fill="url(#paint85_linear_2_631)"/>
<path d="M163.956 74.0197L162.417 75.8337L160.975 74.5192L163.484 72.866L163.956 74.0197Z" fill="url(#paint86_linear_2_631)"/>
<path d="M61.5948 41.7795L57.7538 39.3383L59.8394 36.2479L63.6476 40.5632L61.5948 41.7795Z" fill="url(#paint87_linear_2_631)"/>
<path d="M119.747 25.9854L120.722 24.0802L122.247 24.925L120.395 26.892L119.747 25.9854Z" fill="url(#paint88_linear_2_631)"/>
<path d="M118.092 72.2142L119.059 70.3105L120.593 71.1538L118.741 73.1207L118.092 72.2142Z" fill="url(#paint89_linear_2_631)"/>
<path d="M84.2212 127.368L80.552 126.479L81.3666 123.49L85.5031 125.868L84.2212 127.368Z" fill="url(#paint90_linear_2_631)"/>
<path d="M32.3506 74.6941L33.3176 72.7904L34.8512 73.6337L32.9991 75.6007L32.3506 74.6941Z" fill="url(#paint91_linear_2_631)"/>
<path d="M134.397 54.529L134.388 53.1598L135.503 53.182L135.031 54.8557L134.397 54.529Z" fill="url(#paint92_linear_2_631)"/>
<path d="M143.092 86.5288L142.924 85.4978L143.767 85.391L143.609 86.6888L143.092 86.5288Z" fill="url(#paint93_linear_2_631)"/>
<path d="M106.854 87.9045L106.176 88.5285L105.686 87.9609L106.724 87.4404L106.854 87.9045Z" fill="url(#paint94_linear_2_631)"/>
<path d="M62.9998 96.8091L60.7998 97.7874L60.0548 95.9564L63.0717 95.5532L62.9998 96.8091Z" fill="url(#paint95_linear_2_631)"/>
<path d="M98.8307 108.432L98.1848 107.448L98.9958 106.945L99.4409 108.361L98.8307 108.432Z" fill="url(#paint96_linear_2_631)"/>
<path d="M30.8715 93.994L32.0149 94.3965L31.6518 95.33L30.407 94.4325L30.8715 93.994Z" fill="url(#paint97_linear_2_631)"/>
<path d="M147.078 54.043L146.429 53.9077L146.552 53.3791L147.292 53.7715L147.078 54.043Z" fill="url(#paint98_linear_2_631)"/>
<path d="M124.566 41.0615L125.592 39.5665L126.791 40.4469L125.014 41.9028L124.566 41.0615Z" fill="url(#paint99_linear_2_631)"/>
<path d="M154.536 100.808L156.348 98.1718L158.458 99.7209L155.333 102.278L154.536 100.808Z" fill="url(#paint100_linear_2_631)"/>
<path d="M49.7826 49.8569L50.1589 50.9517L49.2548 51.2327L49.1842 49.7636L49.7826 49.8569Z" fill="url(#paint101_linear_2_631)"/>
<path d="M125.083 103.009L123.777 102.422L124.288 101.367L125.669 102.53L125.083 103.009Z" fill="url(#paint102_linear_2_631)"/>
<path d="M87.9017 65.2062L87.2087 67.2042L85.5968 66.5812L87.1367 64.4072L87.9017 65.2062Z" fill="url(#paint103_linear_2_631)"/>
<path d="M16.6195 98.2097L15.9265 100.208L14.3229 99.5832L15.8628 97.4092L16.6195 98.2097Z" fill="url(#paint104_linear_2_631)"/>
<path d="M108 74.6137L106.746 74.9862L106.475 73.9489L108.13 73.9382L108 74.6137Z" fill="url(#paint105_linear_2_631)"/>
<path d="M97.8882 80.3668L97.0992 82.2629L95.5754 81.5633L97.1959 79.5456L97.8882 80.3668Z" fill="url(#paint106_linear_2_631)"/>
<path d="M87.309 87.4494L87.0448 85.631L88.5323 85.4548L88.2228 87.7664L87.309 87.4494Z" fill="url(#paint107_linear_2_631)"/>
<path d="M132.977 146.307L132.581 146.202L132.675 145.884L133.118 146.152L132.977 146.307Z" fill="url(#paint108_linear_2_631)"/>
<path d="M128.241 146.296L127.117 147.364L126.265 146.418L128.008 145.509L128.241 146.296Z" fill="url(#paint109_linear_2_631)"/>
<path d="M142.524 140.284C143.058 140.355 143.424 140.526 143.573 140.824C144.396 142.477 138.35 147.176 130.071 151.317C121.792 155.458 114.416 157.485 113.593 155.831C113.443 155.534 113.532 155.14 113.792 154.663C113.423 155.246 113.294 155.742 113.473 156.102C114.339 157.85 121.85 155.859 130.247 151.661C138.641 147.456 144.742 142.635 143.868 140.889C143.681 140.529 143.21 140.344 142.524 140.284Z" fill="#00728F"/>
<path d="M143.911 141.026L152.039 187.039L152.041 187.047C152.091 187.406 151.6 188.021 150.561 188.722C148.976 189.79 146.835 190.629 145.777 190.588C145.527 190.575 145.402 190.504 145.318 190.417L113.582 156.27L113.59 156.268C114.851 157.711 122.132 155.72 130.239 151.663C138.345 147.605 144.317 142.963 143.922 141.084L143.911 141.026Z" fill="url(#paint110_linear_2_631)"/>
<path d="M145.454 149.75C145.687 151.129 143.605 153.559 139.634 156.249C133.622 160.316 125.492 163.469 121.459 163.283C120.519 163.237 119.874 163.032 119.532 162.668C118.722 161.809 117.656 160.638 116.854 159.777C117.227 160.17 117.904 160.411 118.92 160.452C123.262 160.649 132.048 157.252 138.528 152.858C142.81 149.955 145.04 147.36 144.777 145.867C144.972 147.047 145.26 148.579 145.454 149.75Z" fill="#F5F5F5"/>
<path d="M147.017 158.582C147.215 159.727 145.492 161.747 142.218 163.964C137.262 167.327 130.555 169.922 127.227 169.758C126.452 169.724 125.923 169.549 125.644 169.241C124.843 168.389 123.781 167.234 122.98 166.382C123.289 166.71 123.867 166.918 124.711 166.957C128.349 167.131 135.692 164.288 141.111 160.615C144.696 158.186 146.551 156.005 146.333 154.752L147.017 158.582Z" fill="#F5F5F5"/>
<path d="M148.432 166.577C148.576 167.484 147.161 169.095 144.514 170.877C140.509 173.573 135.088 175.687 132.421 175.588C131.794 175.568 131.391 175.421 131.166 175.18C130.378 174.351 129.363 173.222 128.566 172.386C128.82 172.647 129.231 172.836 129.936 172.858C132.92 172.966 138.97 170.606 143.445 167.59C146.402 165.596 147.939 163.816 147.776 162.81L148.432 166.577Z" fill="#F5F5F5"/>
<path d="M149.836 174.565C149.949 175.255 148.859 176.505 146.833 177.862C143.776 179.918 139.651 181.523 137.613 181.451C137.141 181.437 136.862 181.318 136.691 181.136C135.902 180.299 134.868 179.156 134.078 178.319C134.28 178.529 134.575 178.688 135.116 178.706C137.464 178.789 142.233 176.934 145.76 174.559C148.089 172.991 149.304 171.589 149.171 170.791L149.836 174.565Z" fill="#F5F5F5"/>
<path d="M151.257 182.593C151.337 183.067 150.578 183.937 149.182 184.876C147.073 186.292 144.231 187.399 142.83 187.353C142.502 187.338 142.373 187.242 142.254 187.11L139.578 184.228C139.726 184.38 139.892 184.537 140.289 184.557C142.009 184.62 145.503 183.253 148.09 181.516C149.805 180.364 150.673 179.344 150.581 178.761L151.257 182.593Z" fill="#F5F5F5"/>
</g>
<defs>
<linearGradient id="paint0_linear_2_631" x1="113.58" y1="155.813" x2="143.603" y2="140.886" gradientUnits="userSpaceOnUse">
<stop stop-color="#2657E3"/>
<stop offset="1" stop-color="#019BB8"/>
</linearGradient>
<linearGradient id="paint1_linear_2_631" x1="58.2719" y1="19.3058" x2="55.9691" y2="18.3099" gradientUnits="userSpaceOnUse">
<stop stop-color="#7847FF"/>
<stop offset="0.7132" stop-color="#A694FF"/>
<stop offset="1" stop-color="#8985FF"/>
</linearGradient>
<linearGradient id="paint2_linear_2_631" x1="70.281" y1="74.6973" x2="75.5136" y2="74.5662" gradientUnits="userSpaceOnUse">
<stop stop-color="#4D79F9"/>
<stop offset="1" stop-color="#01B5D6"/>
</linearGradient>
<linearGradient id="paint3_linear_2_631" x1="77.9351" y1="75.3461" x2="81.9849" y2="75.2446" gradientUnits="userSpaceOnUse">
<stop stop-color="#4D79F9"/>
<stop offset="1" stop-color="#01B5D6"/>
</linearGradient>
<linearGradient id="paint4_linear_2_631" x1="91.0613" y1="47.6476" x2="102.697" y2="47.3561" gradientUnits="userSpaceOnUse">
<stop stop-color="#FF8700"/>
<stop offset="1" stop-color="#FF9900"/>
</linearGradient>
<linearGradient id="paint5_linear_2_631" x1="91.2966" y1="42.715" x2="102.524" y2="42.4338" gradientUnits="userSpaceOnUse">
<stop stop-color="#FF9D00"/>
<stop offset="1" stop-color="#FFCB00"/>
</linearGradient>
<linearGradient id="paint6_linear_2_631" x1="95.4826" y1="58.188" x2="107.222" y2="57.8939" gradientUnits="userSpaceOnUse">
<stop stop-color="#FF8700"/>
<stop offset="1" stop-color="#FF9900"/>
</linearGradient>
<linearGradient id="paint7_linear_2_631" x1="110.468" y1="83.5623" x2="115.126" y2="83.4456" gradientUnits="userSpaceOnUse">
<stop stop-color="#FF8700"/>
<stop offset="1" stop-color="#FF9900"/>
</linearGradient>
<linearGradient id="paint8_linear_2_631" x1="130.618" y1="142.477" x2="135.075" y2="142.366" gradientUnits="userSpaceOnUse">
<stop stop-color="#FF8700"/>
<stop offset="1" stop-color="#FF9900"/>
</linearGradient>
<linearGradient id="paint9_linear_2_631" x1="91.1864" y1="51.8325" x2="107.005" y2="51.4363" gradientUnits="userSpaceOnUse">
<stop stop-color="#FF9D00"/>
<stop offset="1" stop-color="#FFCB00"/>
</linearGradient>
<linearGradient id="paint10_linear_2_631" x1="95.7637" y1="67.0238" x2="113.493" y2="66.5797" gradientUnits="userSpaceOnUse">
<stop stop-color="#FF9D00"/>
<stop offset="1" stop-color="#FFCB00"/>
</linearGradient>
<linearGradient id="paint11_linear_2_631" x1="112.61" y1="113.523" x2="133.751" y2="112.993" gradientUnits="userSpaceOnUse">
<stop stop-color="#FF9D00"/>
<stop offset="1" stop-color="#FFCB00"/>
</linearGradient>
<linearGradient id="paint12_linear_2_631" x1="82.7863" y1="107.41" x2="85.1635" y2="107.351" gradientUnits="userSpaceOnUse">
<stop stop-color="#B459FF"/>
<stop offset="1" stop-color="#7C48FF"/>
</linearGradient>
<linearGradient id="paint13_linear_2_631" x1="41.4279" y1="87.7427" x2="46.7583" y2="87.6092" gradientUnits="userSpaceOnUse">
<stop stop-color="#B459FF"/>
<stop offset="1" stop-color="#7C48FF"/>
</linearGradient>
<linearGradient id="paint14_linear_2_631" x1="63.2251" y1="59.6893" x2="65.6023" y2="59.6298" gradientUnits="userSpaceOnUse">
<stop stop-color="#B459FF"/>
<stop offset="1" stop-color="#7C48FF"/>
</linearGradient>
<linearGradient id="paint15_linear_2_631" x1="136.263" y1="18.7138" x2="138.64" y2="18.6543" gradientUnits="userSpaceOnUse">
<stop stop-color="#B459FF"/>
<stop offset="1" stop-color="#7C48FF"/>
</linearGradient>
<linearGradient id="paint16_linear_2_631" x1="106.121" y1="150.343" x2="108.499" y2="150.284" gradientUnits="userSpaceOnUse">
<stop stop-color="#B459FF"/>
<stop offset="1" stop-color="#7C48FF"/>
</linearGradient>
<linearGradient id="paint17_linear_2_631" x1="43.438" y1="34.5631" x2="45.8153" y2="34.5036" gradientUnits="userSpaceOnUse">
<stop stop-color="#B459FF"/>
<stop offset="1" stop-color="#7C48FF"/>
</linearGradient>
<linearGradient id="paint18_linear_2_631" x1="117.594" y1="150.067" x2="119.971" y2="150.008" gradientUnits="userSpaceOnUse">
<stop stop-color="#FF9D00"/>
<stop offset="1" stop-color="#FFCB00"/>
</linearGradient>
<linearGradient id="paint19_linear_2_631" x1="62.0119" y1="139.827" x2="64.3891" y2="139.767" gradientUnits="userSpaceOnUse">
<stop stop-color="#FF9D00"/>
<stop offset="1" stop-color="#FFCB00"/>
</linearGradient>
<linearGradient id="paint20_linear_2_631" x1="80.8652" y1="40.2569" x2="83.2424" y2="40.1974" gradientUnits="userSpaceOnUse">
<stop stop-color="#FF9D00"/>
<stop offset="1" stop-color="#FFCB00"/>
</linearGradient>
<linearGradient id="paint21_linear_2_631" x1="31.4119" y1="128.129" x2="34.3041" y2="128.056" gradientUnits="userSpaceOnUse">
<stop stop-color="#FF9D00"/>
<stop offset="1" stop-color="#FFCB00"/>
</linearGradient>
<linearGradient id="paint22_linear_2_631" x1="130.733" y1="76.2869" x2="133.11" y2="76.2273" gradientUnits="userSpaceOnUse">
<stop stop-color="#FF695D"/>
<stop offset="1" stop-color="#FF3B5D"/>
</linearGradient>
<linearGradient id="paint23_linear_2_631" x1="69.3589" y1="123.038" x2="71.7361" y2="122.979" gradientUnits="userSpaceOnUse">
<stop stop-color="#FF695D"/>
<stop offset="1" stop-color="#FF3B5D"/>
</linearGradient>
<linearGradient id="paint24_linear_2_631" x1="148.805" y1="42.9824" x2="153.053" y2="42.876" gradientUnits="userSpaceOnUse">
<stop stop-color="#FF695D"/>
<stop offset="1" stop-color="#FF3B5D"/>
</linearGradient>
<linearGradient id="paint25_linear_2_631" x1="65.6865" y1="157.884" x2="68.0637" y2="157.825" gradientUnits="userSpaceOnUse">
<stop stop-color="#FF695D"/>
<stop offset="1" stop-color="#FF3B5D"/>
</linearGradient>
<linearGradient id="paint26_linear_2_631" x1="146.457" y1="102.489" x2="148.834" y2="102.429" gradientUnits="userSpaceOnUse">
<stop stop-color="#CBFF48"/>
<stop offset="1" stop-color="#42DE09"/>
</linearGradient>
<linearGradient id="paint27_linear_2_631" x1="35.1071" y1="51.57" x2="37.4843" y2="51.5105" gradientUnits="userSpaceOnUse">
<stop stop-color="#CBFF48"/>
<stop offset="1" stop-color="#42DE09"/>
</linearGradient>
<linearGradient id="paint28_linear_2_631" x1="106.908" y1="112.813" x2="107.908" y2="112.788" gradientUnits="userSpaceOnUse">
<stop stop-color="#01B5D6"/>
<stop offset="1" stop-color="#4D79F9"/>
</linearGradient>
<linearGradient id="paint29_linear_2_631" x1="91.5365" y1="156.927" x2="92.5368" y2="156.902" gradientUnits="userSpaceOnUse">
<stop stop-color="#01B5D6"/>
<stop offset="1" stop-color="#4D79F9"/>
</linearGradient>
<linearGradient id="paint30_linear_2_631" x1="105.548" y1="23.952" x2="106.548" y2="23.9269" gradientUnits="userSpaceOnUse">
<stop stop-color="#FF695D"/>
<stop offset="1" stop-color="#FF3B5D"/>
</linearGradient>
<linearGradient id="paint31_linear_2_631" x1="54.0767" y1="135.427" x2="55.077" y2="135.402" gradientUnits="userSpaceOnUse">
<stop stop-color="#FF695D"/>
<stop offset="1" stop-color="#FF3B5D"/>
</linearGradient>
<linearGradient id="paint32_linear_2_631" x1="68.5835" y1="23.0367" x2="69.5838" y2="23.0116" gradientUnits="userSpaceOnUse">
<stop stop-color="#FF695D"/>
<stop offset="1" stop-color="#FF3B5D"/>
</linearGradient>
<linearGradient id="paint33_linear_2_631" x1="95.4333" y1="141.408" x2="96.4335" y2="141.383" gradientUnits="userSpaceOnUse">
<stop stop-color="#FF9D00"/>
<stop offset="1" stop-color="#FFCB00"/>
</linearGradient>
<linearGradient id="paint34_linear_2_631" x1="80.8932" y1="93.3837" x2="81.8934" y2="93.3587" gradientUnits="userSpaceOnUse">
<stop stop-color="#FF695D"/>
<stop offset="1" stop-color="#FF3B5D"/>
</linearGradient>
<linearGradient id="paint35_linear_2_631" x1="140.307" y1="132.609" x2="141.844" y2="132.571" gradientUnits="userSpaceOnUse">
<stop stop-color="#B459FF"/>
<stop offset="1" stop-color="#7C48FF"/>
</linearGradient>
<linearGradient id="paint36_linear_2_631" x1="72.5483" y1="144.88" x2="73.5486" y2="144.854" gradientUnits="userSpaceOnUse">
<stop stop-color="#FF695D"/>
<stop offset="1" stop-color="#FF3B5D"/>
</linearGradient>
<linearGradient id="paint37_linear_2_631" x1="158.018" y1="90.2657" x2="153.856" y2="85.3605" gradientUnits="userSpaceOnUse">
<stop stop-color="#943ADE"/>
<stop offset="1" stop-color="#531ED9"/>
</linearGradient>
<linearGradient id="paint38_linear_2_631" x1="156.272" y1="91.848" x2="152.969" y2="87.9553" gradientUnits="userSpaceOnUse">
<stop stop-color="#B459FF"/>
<stop offset="1" stop-color="#7C48FF"/>
</linearGradient>
<linearGradient id="paint39_linear_2_631" x1="159.183" y1="89.1667" x2="154.973" y2="84.2039" gradientUnits="userSpaceOnUse">
<stop stop-color="#B459FF"/>
<stop offset="1" stop-color="#7C48FF"/>
</linearGradient>
<linearGradient id="paint40_linear_2_631" x1="142.586" y1="33.2673" x2="133.054" y2="33.4386" gradientUnits="userSpaceOnUse">
<stop stop-color="#CBFF48"/>
<stop offset="1" stop-color="#42DE09"/>
</linearGradient>
<linearGradient id="paint41_linear_2_631" x1="73.7569" y1="112.034" x2="66.8042" y2="105.484" gradientUnits="userSpaceOnUse">
<stop stop-color="#CBFF48"/>
<stop offset="1" stop-color="#42DE09"/>
</linearGradient>
<linearGradient id="paint42_linear_2_631" x1="132.497" y1="115.859" x2="130.199" y2="106.578" gradientUnits="userSpaceOnUse">
<stop stop-color="#CBFF48"/>
<stop offset="1" stop-color="#42DE09"/>
</linearGradient>
<linearGradient id="paint43_linear_2_631" x1="51.0499" y1="149.505" x2="68.1444" y2="150.414" gradientUnits="userSpaceOnUse">
<stop stop-color="#FF695D"/>
<stop offset="1" stop-color="#FF3B5D"/>
</linearGradient>
<linearGradient id="paint44_linear_2_631" x1="100.902" y1="97.4011" x2="88.768" y2="97.7051" gradientUnits="userSpaceOnUse">
<stop stop-color="#FF695D"/>
<stop offset="1" stop-color="#FF3B5D"/>
</linearGradient>
<linearGradient id="paint45_linear_2_631" x1="41.5948" y1="137.231" x2="35.5645" y2="147.787" gradientUnits="userSpaceOnUse">
<stop stop-color="#B459FF"/>
<stop offset="1" stop-color="#7C48FF"/>
</linearGradient>
<linearGradient id="paint46_linear_2_631" x1="89.1417" y1="28.6926" x2="77.0081" y2="28.9965" gradientUnits="userSpaceOnUse">
<stop stop-color="#FF695D"/>
<stop offset="1" stop-color="#FF3B5D"/>
</linearGradient>
<linearGradient id="paint47_linear_2_631" x1="139.356" y1="65.3663" x2="128.371" y2="65.6055" gradientUnits="userSpaceOnUse">
<stop stop-color="#FF695D"/>
<stop offset="1" stop-color="#FF3B5D"/>
</linearGradient>
<linearGradient id="paint48_linear_2_631" x1="50.8641" y1="63.528" x2="39.8482" y2="63.804" gradientUnits="userSpaceOnUse">
<stop stop-color="#CBFF48"/>
<stop offset="1" stop-color="#42DE09"/>
</linearGradient>
<linearGradient id="paint49_linear_2_631" x1="128.729" y1="52.1963" x2="120.593" y2="57.3605" gradientUnits="userSpaceOnUse">
<stop stop-color="#943ADE"/>
<stop offset="1" stop-color="#531ED9"/>
</linearGradient>
<linearGradient id="paint50_linear_2_631" x1="124.338" y1="56.1224" x2="118.486" y2="59.837" gradientUnits="userSpaceOnUse">
<stop stop-color="#B459FF"/>
<stop offset="1" stop-color="#7C48FF"/>
</linearGradient>
<linearGradient id="paint51_linear_2_631" x1="141.891" y1="127.5" x2="158.104" y2="105.434" gradientUnits="userSpaceOnUse">
<stop stop-color="#B459FF"/>
<stop offset="1" stop-color="#7C48FF"/>
</linearGradient>
<linearGradient id="paint52_linear_2_631" x1="72.2895" y1="47.505" x2="79.5619" y2="55.6369" gradientUnits="userSpaceOnUse">
<stop stop-color="#CBFF48"/>
<stop offset="1" stop-color="#42DE09"/>
</linearGradient>
<linearGradient id="paint53_linear_2_631" x1="90.7418" y1="122.776" x2="92.1688" y2="111.955" gradientUnits="userSpaceOnUse">
<stop stop-color="#4D79F9"/>
<stop offset="1" stop-color="#01B5D6"/>
</linearGradient>
<linearGradient id="paint54_linear_2_631" x1="33.531" y1="104.55" x2="48.1674" y2="104.081" gradientUnits="userSpaceOnUse">
<stop stop-color="#FF9D00"/>
<stop offset="1" stop-color="#FFCB00"/>
</linearGradient>
<linearGradient id="paint55_linear_2_631" x1="114.299" y1="38.3336" x2="106.823" y2="37.4817" gradientUnits="userSpaceOnUse">
<stop stop-color="#4D79F9"/>
<stop offset="1" stop-color="#01B5D6"/>
</linearGradient>
<linearGradient id="paint56_linear_2_631" x1="24.0596" y1="115.783" x2="16.5831" y2="114.931" gradientUnits="userSpaceOnUse">
<stop stop-color="#4D79F9"/>
<stop offset="1" stop-color="#01B5D6"/>
</linearGradient>
<linearGradient id="paint57_linear_2_631" x1="21.05" y1="69.9624" x2="26.2569" y2="64.522" gradientUnits="userSpaceOnUse">
<stop stop-color="#4D79F9"/>
<stop offset="1" stop-color="#01B5D6"/>
</linearGradient>
<linearGradient id="paint58_linear_2_631" x1="91.9671" y1="138.011" x2="99.2987" y2="136.728" gradientUnits="userSpaceOnUse">
<stop stop-color="#FF695D"/>
<stop offset="1" stop-color="#FF3B5D"/>
</linearGradient>
<linearGradient id="paint59_linear_2_631" x1="103.23" y1="17.1468" x2="110.562" y2="15.8638" gradientUnits="userSpaceOnUse">
<stop stop-color="#FF695D"/>
<stop offset="1" stop-color="#FF3B5D"/>
</linearGradient>
<linearGradient id="paint60_linear_2_631" x1="53.4965" y1="79.5117" x2="63.085" y2="83.133" gradientUnits="userSpaceOnUse">
<stop stop-color="#FF695D"/>
<stop offset="1" stop-color="#FF3B5D"/>
</linearGradient>
<linearGradient id="paint61_linear_2_631" x1="80.5908" y1="151.856" x2="89.8045" y2="148.322" gradientUnits="userSpaceOnUse">
<stop stop-color="#943ADE"/>
<stop offset="1" stop-color="#531ED9"/>
</linearGradient>
<linearGradient id="paint62_linear_2_631" x1="83.9387" y1="147.301" x2="84.042" y2="147.261" gradientUnits="userSpaceOnUse">
<stop stop-color="#FF695D"/>
<stop offset="1" stop-color="#FF3B5D"/>
</linearGradient>
<linearGradient id="paint63_linear_2_631" x1="85.7017" y1="151.586" x2="98.8029" y2="146.562" gradientUnits="userSpaceOnUse">
<stop stop-color="#B459FF"/>
<stop offset="1" stop-color="#7C48FF"/>
</linearGradient>
<linearGradient id="paint64_linear_2_631" x1="111.291" y1="124.731" x2="104.73" y2="128.547" gradientUnits="userSpaceOnUse">
<stop stop-color="#2657E3"/>
<stop offset="1" stop-color="#019BB8"/>
</linearGradient>
<linearGradient id="paint65_linear_2_631" x1="108.838" y1="120.373" x2="100.739" y2="125.084" gradientUnits="userSpaceOnUse">
<stop stop-color="#2657E3"/>
<stop offset="1" stop-color="#019BB8"/>
</linearGradient>
<linearGradient id="paint66_linear_2_631" x1="110.168" y1="122.803" x2="102.133" y2="127.477" gradientUnits="userSpaceOnUse">
<stop stop-color="#4D79F9"/>
<stop offset="1" stop-color="#01B5D6"/>
</linearGradient>
<linearGradient id="paint67_linear_2_631" x1="107.19" y1="117.528" x2="101.13" y2="121.053" gradientUnits="userSpaceOnUse">
<stop stop-color="#4D79F9"/>
<stop offset="1" stop-color="#01B5D6"/>
</linearGradient>
<linearGradient id="paint68_linear_2_631" x1="114.02" y1="128.534" x2="107.459" y2="132.351" gradientUnits="userSpaceOnUse">
<stop stop-color="#2657E3"/>
<stop offset="1" stop-color="#019BB8"/>
</linearGradient>
<linearGradient id="paint69_linear_2_631" x1="116.422" y1="131.779" x2="111.242" y2="134.793" gradientUnits="userSpaceOnUse">
<stop stop-color="#2657E3"/>
<stop offset="1" stop-color="#019BB8"/>
</linearGradient>
<linearGradient id="paint70_linear_2_631" x1="115.591" y1="130.335" x2="108.644" y2="134.376" gradientUnits="userSpaceOnUse">
<stop stop-color="#4D79F9"/>
<stop offset="1" stop-color="#01B5D6"/>
</linearGradient>
<linearGradient id="paint71_linear_2_631" x1="112.804" y1="126.45" x2="105.857" y2="130.492" gradientUnits="userSpaceOnUse">
<stop stop-color="#4D79F9"/>
<stop offset="1" stop-color="#01B5D6"/>
</linearGradient>
<linearGradient id="paint72_linear_2_631" x1="143.761" y1="63.1946" x2="150.735" y2="60.7606" gradientUnits="userSpaceOnUse">
<stop stop-color="#FF695D"/>
<stop offset="1" stop-color="#FF3B5D"/>
</linearGradient>
<linearGradient id="paint73_linear_2_631" x1="142.929" y1="69.3805" x2="152.798" y2="65.9362" gradientUnits="userSpaceOnUse">
<stop stop-color="#FF695D"/>
<stop offset="1" stop-color="#FF3B5D"/>
</linearGradient>
<linearGradient id="paint74_linear_2_631" x1="140.843" y1="76.0248" x2="151.926" y2="72.1567" gradientUnits="userSpaceOnUse">
<stop stop-color="#FF695D"/>
<stop offset="1" stop-color="#FF3B5D"/>
</linearGradient>
<linearGradient id="paint75_linear_2_631" x1="135.178" y1="94.9392" x2="148.099" y2="90.4296" gradientUnits="userSpaceOnUse">
<stop stop-color="#FF695D"/>
<stop offset="1" stop-color="#FF3B5D"/>
</linearGradient>
<linearGradient id="paint76_linear_2_631" x1="124.404" y1="90.2666" x2="131.63" y2="87.5413" gradientUnits="userSpaceOnUse">
<stop stop-color="#2657E3"/>
<stop offset="1" stop-color="#019BB8"/>
</linearGradient>
<linearGradient id="paint77_linear_2_631" x1="122.875" y1="85.991" x2="134.305" y2="81.6804" gradientUnits="userSpaceOnUse">
<stop stop-color="#4D79F9"/>
<stop offset="1" stop-color="#01B5D6"/>
</linearGradient>
<linearGradient id="paint78_linear_2_631" x1="124.982" y1="95.0961" x2="133.201" y2="91.9966" gradientUnits="userSpaceOnUse">
<stop stop-color="#4D79F9"/>
<stop offset="1" stop-color="#01B5D6"/>
</linearGradient>
<linearGradient id="paint79_linear_2_631" x1="43.7433" y1="121.561" x2="56.4683" y2="116.382" gradientUnits="userSpaceOnUse">
<stop stop-color="#5BC900"/>
<stop offset="0.5351" stop-color="#A0E000"/>
<stop offset="1" stop-color="#66CD00"/>
</linearGradient>
<linearGradient id="paint80_linear_2_631" x1="43.4734" y1="120.967" x2="49.3936" y2="118.557" gradientUnits="userSpaceOnUse">
<stop stop-color="#CBFF48"/>
<stop offset="1" stop-color="#42DE09"/>
</linearGradient>
<linearGradient id="paint81_linear_2_631" x1="50.6416" y1="125.297" x2="63.3666" y2="120.117" gradientUnits="userSpaceOnUse">
<stop stop-color="#5BC900"/>
<stop offset="0.5351" stop-color="#A0E000"/>
<stop offset="1" stop-color="#66CD00"/>
</linearGradient>
<linearGradient id="paint82_linear_2_631" x1="61.9607" y1="134.202" x2="77.7159" y2="127.789" gradientUnits="userSpaceOnUse">
<stop stop-color="#5BC900"/>
<stop offset="0.5351" stop-color="#A0E000"/>
<stop offset="1" stop-color="#66CD00"/>
</linearGradient>
<linearGradient id="paint83_linear_2_631" x1="49.6362" y1="123.155" x2="58.0489" y2="119.731" gradientUnits="userSpaceOnUse">
<stop stop-color="#CBFF48"/>
<stop offset="1" stop-color="#42DE09"/>
</linearGradient>
<linearGradient id="paint84_linear_2_631" x1="59.0618" y1="127.728" x2="65.6348" y2="125.053" gradientUnits="userSpaceOnUse">
<stop stop-color="#CBFF48"/>
<stop offset="1" stop-color="#42DE09"/>
</linearGradient>
<linearGradient id="paint85_linear_2_631" x1="139.893" y1="45.7686" x2="142.329" y2="45.7076" gradientUnits="userSpaceOnUse">
<stop stop-color="#FF9D00"/>
<stop offset="1" stop-color="#FFCB00"/>
</linearGradient>
<linearGradient id="paint86_linear_2_631" x1="160.971" y1="74.3973" x2="163.962" y2="74.3224" gradientUnits="userSpaceOnUse">
<stop stop-color="#FF695D"/>
<stop offset="1" stop-color="#FF3B5D"/>
</linearGradient>
<linearGradient id="paint87_linear_2_631" x1="60.0681" y1="36.2069" x2="61.0211" y2="41.8741" gradientUnits="userSpaceOnUse">
<stop stop-color="#FF9D00"/>
<stop offset="1" stop-color="#FFCB00"/>
</linearGradient>
<linearGradient id="paint88_linear_2_631" x1="122.276" y1="25.0312" x2="119.675" y2="25.7164" gradientUnits="userSpaceOnUse">
<stop stop-color="#FF695D"/>
<stop offset="1" stop-color="#FF3B5D"/>
</linearGradient>
<linearGradient id="paint89_linear_2_631" x1="120.621" y1="71.261" x2="118.02" y2="71.9461" gradientUnits="userSpaceOnUse">
<stop stop-color="#FF695D"/>
<stop offset="1" stop-color="#FF3B5D"/>
</linearGradient>
<linearGradient id="paint90_linear_2_631" x1="81.5358" y1="123.399" x2="83.8014" y2="127.592" gradientUnits="userSpaceOnUse">
<stop stop-color="#FF695D"/>
<stop offset="1" stop-color="#FF3B5D"/>
</linearGradient>
<linearGradient id="paint91_linear_2_631" x1="34.8769" y1="73.74" x2="32.2763" y2="74.4252" gradientUnits="userSpaceOnUse">
<stop stop-color="#FF9D00"/>
<stop offset="1" stop-color="#FFCB00"/>
</linearGradient>
<linearGradient id="paint92_linear_2_631" x1="134.383" y1="54.0119" x2="135.525" y2="53.9833" gradientUnits="userSpaceOnUse">
<stop stop-color="#FF695D"/>
<stop offset="1" stop-color="#FF3B5D"/>
</linearGradient>
<linearGradient id="paint93_linear_2_631" x1="142.94" y1="86.059" x2="143.781" y2="86.0379" gradientUnits="userSpaceOnUse">
<stop stop-color="#FF695D"/>
<stop offset="1" stop-color="#FF3B5D"/>
</linearGradient>
<linearGradient id="paint94_linear_2_631" x1="105.686" y1="88.0044" x2="106.858" y2="87.975" gradientUnits="userSpaceOnUse">
<stop stop-color="#FF695D"/>
<stop offset="1" stop-color="#FF3B5D"/>
</linearGradient>
<linearGradient id="paint95_linear_2_631" x1="60.0735" y1="96.7148" x2="63.0973" y2="96.6391" gradientUnits="userSpaceOnUse">
<stop stop-color="#FF695D"/>
<stop offset="1" stop-color="#FF3B5D"/>
</linearGradient>
<linearGradient id="paint96_linear_2_631" x1="98.1905" y1="107.704" x2="99.4218" y2="107.674" gradientUnits="userSpaceOnUse">
<stop stop-color="#FF9D00"/>
<stop offset="1" stop-color="#FFCB00"/>
</linearGradient>
<linearGradient id="paint97_linear_2_631" x1="30.4151" y1="94.6807" x2="32.0198" y2="94.6406" gradientUnits="userSpaceOnUse">
<stop stop-color="#4D79F9"/>
<stop offset="1" stop-color="#01B5D6"/>
</linearGradient>
<linearGradient id="paint98_linear_2_631" x1="146.425" y1="53.7208" x2="147.291" y2="53.6991" gradientUnits="userSpaceOnUse">
<stop stop-color="#FF695D"/>
<stop offset="1" stop-color="#FF3B5D"/>
</linearGradient>
<linearGradient id="paint99_linear_2_631" x1="124.559" y1="40.752" x2="126.798" y2="40.6959" gradientUnits="userSpaceOnUse">
<stop stop-color="#FF9D00"/>
<stop offset="1" stop-color="#FFCB00"/>
</linearGradient>
<linearGradient id="paint100_linear_2_631" x1="154.524" y1="100.255" x2="158.466" y2="100.156" gradientUnits="userSpaceOnUse">
<stop stop-color="#FF9D00"/>
<stop offset="1" stop-color="#FFCB00"/>
</linearGradient>
<linearGradient id="paint101_linear_2_631" x1="49.2033" y1="50.4983" x2="50.1434" y2="50.4748" gradientUnits="userSpaceOnUse">
<stop stop-color="#B459FF"/>
<stop offset="1" stop-color="#7C48FF"/>
</linearGradient>
<linearGradient id="paint102_linear_2_631" x1="123.773" y1="102.207" x2="125.658" y2="102.16" gradientUnits="userSpaceOnUse">
<stop stop-color="#CBFF48"/>
<stop offset="1" stop-color="#42DE09"/>
</linearGradient>
<linearGradient id="paint103_linear_2_631" x1="85.5811" y1="65.8441" x2="87.9133" y2="65.7856" gradientUnits="userSpaceOnUse">
<stop stop-color="#FF695D"/>
<stop offset="1" stop-color="#FF3B5D"/>
</linearGradient>
<linearGradient id="paint104_linear_2_631" x1="14.3022" y1="98.8471" x2="16.6344" y2="98.7887" gradientUnits="userSpaceOnUse">
<stop stop-color="#FF695D"/>
<stop offset="1" stop-color="#FF3B5D"/>
</linearGradient>
<linearGradient id="paint105_linear_2_631" x1="106.488" y1="74.4725" x2="108.141" y2="74.4312" gradientUnits="userSpaceOnUse">
<stop stop-color="#FF695D"/>
<stop offset="1" stop-color="#FF3B5D"/>
</linearGradient>
<linearGradient id="paint106_linear_2_631" x1="95.5571" y1="80.9426" x2="97.8971" y2="80.884" gradientUnits="userSpaceOnUse">
<stop stop-color="#FF9D00"/>
<stop offset="1" stop-color="#FFCB00"/>
</linearGradient>
<linearGradient id="paint107_linear_2_631" x1="87.0669" y1="86.6418" x2="88.5637" y2="86.6043" gradientUnits="userSpaceOnUse">
<stop stop-color="#4D79F9"/>
<stop offset="1" stop-color="#01B5D6"/>
</linearGradient>
<linearGradient id="paint108_linear_2_631" x1="132.577" y1="146.101" x2="133.118" y2="146.088" gradientUnits="userSpaceOnUse">
<stop stop-color="#FF695D"/>
<stop offset="1" stop-color="#FF3B5D"/>
</linearGradient>
<linearGradient id="paint109_linear_2_631" x1="126.27" y1="146.47" x2="128.245" y2="146.421" gradientUnits="userSpaceOnUse">
<stop stop-color="#4D79F9"/>
<stop offset="1" stop-color="#01B5D6"/>
</linearGradient>
<linearGradient id="paint110_linear_2_631" x1="123.722" y1="176.674" x2="154.122" y2="161.559" gradientUnits="userSpaceOnUse">
<stop stop-color="#4D79F9"/>
<stop offset="1" stop-color="#01B5D6"/>
</linearGradient>
<clipPath id="clip0_2_631">
<rect width="152" height="186" fill="white" transform="translate(0.784393 28.6143) rotate(-10.6261)"/>
</clipPath>
</defs>
</svg>
