<svg width="20" height="20" viewBox="0 0 20 20" fill="none" xmlns="http://www.w3.org/2000/svg">
<path d="M3.08765 14.0684C2.52888 14.0704 1.98324 14.2379 1.51956 14.5497C1.05589 14.8615 0.694966 15.3037 0.482331 15.8204C0.269696 16.3372 0.214879 16.9053 0.324798 17.4532C0.434716 18.001 0.704444 18.504 1.09995 18.8988C1.49545 19.2935 1.99901 19.5622 2.54708 19.671C3.09515 19.7799 3.66318 19.7239 4.17949 19.5103C4.6958 19.2966 5.13726 18.9348 5.44816 18.4705C5.75906 18.0062 5.92547 17.4603 5.9264 16.9015C5.92405 16.1498 5.62403 15.4297 5.09201 14.8988C4.55999 14.3678 3.8393 14.0692 3.08765 14.0684Z" fill="#0190D6"/>
<path d="M0.25 6.75V10.807C2.6875 10.807 5.02844 11.5284 6.75016 13.2497C8.47188 14.9709 9.18766 17.3072 9.18766 19.7498H13.2498C13.2498 12.6455 7.35953 6.75 0.25 6.75Z" fill="#0190D6"/>
<path d="M0.25 0.25V4.3075C8.93359 4.3075 15.6822 11.0612 15.6822 19.75H19.75C19.75 8.99969 11.0158 0.25 0.25 0.25Z" fill="#0190D6"/>
</svg>
