<svg width="21" height="20" viewBox="0 0 21 20" fill="none" xmlns="http://www.w3.org/2000/svg">
<path d="M1.33594 3C1.33594 2.46957 1.54665 1.96086 1.92172 1.58579C2.2968 1.21071 2.8055 1 3.33594 1H6.61594C6.82573 1.00016 7.03016 1.0663 7.20029 1.18905C7.37043 1.3118 7.49764 1.48496 7.56394 1.684L9.06194 6.177C9.13784 6.40534 9.12886 6.65339 9.03665 6.87564C8.94445 7.0979 8.77519 7.27945 8.55994 7.387L6.30294 8.517C7.40926 10.9655 9.3704 12.9267 11.8189 14.033L12.9489 11.776C13.0565 11.5607 13.238 11.3915 13.4603 11.2993C13.6825 11.2071 13.9306 11.1981 14.1589 11.274L18.6519 12.772C18.8511 12.8383 19.0244 12.9657 19.1472 13.136C19.2699 13.3064 19.336 13.511 19.3359 13.721V17C19.3359 17.5304 19.1252 18.0391 18.7502 18.4142C18.3751 18.7893 17.8664 19 17.3359 19H16.3359C8.05194 19 1.33594 12.284 1.33594 4V3Z" stroke="#0190D6" stroke-width="2" stroke-linecap="round" stroke-linejoin="round"/>
</svg>
