<svg width="20" height="24" viewBox="0 0 20 24" fill="none" xmlns="http://www.w3.org/2000/svg">
<path d="M17.3233 5.56219C17.1715 5.4837 17.0236 5.39765 16.8804 5.30438C16.4638 5.02896 16.0818 4.70445 15.7427 4.33781C14.8943 3.36703 14.5774 2.38219 14.4607 1.69266H14.4654C14.3679 1.12031 14.4082 0.75 14.4143 0.75H10.5499V15.6928C10.5499 15.8934 10.5499 16.0917 10.5415 16.2877C10.5415 16.312 10.5391 16.3345 10.5377 16.3608C10.5377 16.3716 10.5377 16.3828 10.5354 16.3941V16.4025C10.4946 16.9386 10.3228 17.4566 10.0349 17.9107C9.74701 18.3648 9.35194 18.7413 8.88443 19.0069C8.39718 19.2841 7.8461 19.4295 7.28552 19.4288C5.48505 19.4288 4.02583 17.9606 4.02583 16.1475C4.02583 14.3344 5.48505 12.8663 7.28552 12.8663C7.62634 12.8659 7.96506 12.9196 8.28912 13.0252L8.2938 9.09047C7.31007 8.9634 6.31067 9.04158 5.35866 9.32008C4.40666 9.59858 3.5227 10.0714 2.76255 10.7086C2.09649 11.2873 1.53653 11.9778 1.10786 12.7491C0.94474 13.0303 0.329271 14.1605 0.25474 15.9947C0.207865 17.0358 0.520521 18.1144 0.669584 18.5602V18.5695C0.763334 18.832 1.12661 19.7278 1.71865 20.483C2.19604 21.0887 2.76006 21.6208 3.39255 22.0622V22.0528L3.40193 22.0622C5.27271 23.3334 7.34693 23.25 7.34693 23.25C7.70599 23.2355 8.9088 23.25 10.2747 22.6027C11.7897 21.885 12.6522 20.8158 12.6522 20.8158C13.2032 20.1769 13.6414 19.4488 13.9479 18.6628C14.2976 17.7436 14.4143 16.6411 14.4143 16.2005V8.27297C14.4611 8.30109 15.0855 8.71406 15.0855 8.71406C15.0855 8.71406 15.9851 9.29063 17.3885 9.66609C18.3954 9.93328 19.7519 9.98953 19.7519 9.98953V6.15328C19.2766 6.20484 18.3115 6.05484 17.3233 5.56219Z" fill="#0190D6"/>
</svg>
