<svg width="24" height="26" viewBox="0 0 24 26" fill="none" xmlns="http://www.w3.org/2000/svg">
<path d="M12 15.1724L21 10.0606L12 4.94873L3 10.0606L12 15.1724Z" stroke="#4B4B4B" stroke-width="2"/>
<path d="M11.9996 15.1724L18.1596 11.6738C18.9701 13.7779 19.2001 16.0692 18.8246 18.2977C16.2882 18.5494 13.8968 19.6233 11.9996 21.3628C10.1026 19.6235 7.71167 18.5496 5.17559 18.2977C4.79979 16.0692 5.02982 13.7779 5.84059 11.6738L11.9996 15.1724Z" stroke="#4B4B4B" stroke-width="2"/>
<path d="M8 21.3066V13.6388L12 11.3671M12 15.1724L21 10.0606L12 4.94873L3 10.0606L12 15.1724ZM12 15.1724L18.16 11.6738C18.9705 13.778 19.2005 16.0692 18.825 18.2977C16.2886 18.5494 13.8972 19.6234 12 21.3628C10.1031 19.6236 7.71208 18.5496 5.176 18.2977C4.8002 16.0692 5.03023 13.7779 5.841 11.6738L12 15.1724Z" stroke="#4B4B4B" stroke-width="2" stroke-linecap="round" stroke-linejoin="round"/>
</svg>
