<?xml version="1.0" standalone="no"?>
<!DOCTYPE svg PUBLIC "-//W3C//DTD SVG 1.1//EN" "http://www.w3.org/Graphics/SVG/1.1/DTD/svg11.dtd" >
<svg xmlns="http://www.w3.org/2000/svg" xmlns:xlink="http://www.w3.org/1999/xlink" version="1.1">
<metadata>
Created by FontForge 20180930 at Mon Oct  8 19:13:44 2018
 By root
This is a copyright by Dan P. Lyons for DLE TV. 2017 All rights reserved.
</metadata>
<defs>
<font id="Bubblewump" horiz-adv-x="1099" >
  <font-face 
    font-family="Bubblewump"
    font-weight="400"
    font-stretch="normal"
    units-per-em="2048"
    panose-1="2 0 5 0 0 0 0 0 0 0"
    ascent="1638"
    descent="-410"
    x-height="1024"
    cap-height="1395"
    bbox="-135 -404 2645 1649"
    underline-thickness="150"
    underline-position="-292"
    unicode-range="U+0020-00D6"
  />
    <missing-glyph />
    <glyph glyph-name="space" unicode=" " horiz-adv-x="305" 
 />
    <glyph glyph-name="space" unicode="&#xa0;" horiz-adv-x="305" 
 />
    <glyph glyph-name="exclam" unicode="!" horiz-adv-x="384" 
d="M281 2q-51 -53 -120 -53q-158 0 -158 166q0 153 143 181q-120 26 -120 148v836q0 154 151 154q152 0 152 -154v-836q0 -124 -122 -148q126 -26 126 -163q0 -76 -52 -131z" />
    <glyph glyph-name="quotedbl" unicode="&#x22;" horiz-adv-x="624" 
d="M5 1028v250q0 149 150 149q149 0 149 -149v-250q0 -149 -149 -149q-150 0 -150 149zM308 1028v250q0 149 150 149q151 0 151 -149v-250q0 -149 -151 -149q-150 0 -150 149z" />
    <glyph glyph-name="numbersign" unicode="#" horiz-adv-x="1511" 
d="M670 340h-79l-82 -285q-32 -106 -145 -106q-150 0 -150 145q0 18 4 36l59 210h-85q-150 0 -150 149q0 150 150 150h172l32 109h-121q-149 0 -149 149q0 150 149 150h210l77 272q31 106 146 106q149 0 149 -147q0 -17 -4 -34l-57 -197h80l79 272q31 106 144 106
q149 0 149 -149q0 -27 -8 -55l-52 -174h58q150 0 150 -150q0 -149 -150 -149h-145l-31 -109h92q150 0 150 -150q0 -149 -150 -149h-178l-84 -285q-31 -106 -143 -106q-150 0 -150 149q0 30 11 64zM789 748h-82l-30 -109h80z" />
    <glyph glyph-name="dollar" unicode="$" horiz-adv-x="1220" 
d="M823 1019q-5 36 -76 59v-260q376 -127 376 -400q0 -157 -106 -267q-100 -103 -270 -142v-6q0 -140 -152 -140q-147 0 -147 140v2q-301 60 -396 295l-2 5q-4 10 -6 20q-4 17 -4 35q0 50 42 92q46 47 114 47q110 0 146 -102q25 -66 106 -102v313q-148 53 -233 133
q-107 100 -107 235q0 160 105 261q90 86 235 114q2 140 147 140q139 0 151 -131q153 -19 251 -90q122 -89 122 -238q0 -135 -145 -135q-135 0 -151 122zM448 1070q-27 -28 -27 -81q0 -7 5 -16q7 -12 22 -25v122zM811 426q-1 8 -7 17q-6 12 -19 23q-15 14 -38 29v-211
q65 43 65 130z" />
    <glyph glyph-name="percent" unicode="%" horiz-adv-x="1474" 
d="M497 76q-41 -76 -127 -76q-146 0 -146 134q0 34 21 72l347 591q-91 -64 -202 -64q-144 0 -247 96t-103 231q0 133 103 229q103 95 247 95q146 0 249 -102q103 -103 103 -248v-17l158 285q40 74 127 74q146 0 146 -136q0 -38 -17 -65l-353 -599q88 59 195 59
q145 0 248 -95t103 -230q0 -134 -103 -230q-103 -94 -248 -94t-248 102q-104 102 -104 248v10zM1035 331q-16 9 -37 9q-22 0 -39 -9q-16 -9 -16 -21q0 -29 55 -29q54 0 54 29q0 12 -17 21zM430 1079q-16 8 -40 8q-22 0 -37 -8q-16 -8 -16 -20q0 -29 53 -29q56 0 56 29
q0 12 -16 20z" />
    <glyph glyph-name="ampersand" unicode="&#x26;" horiz-adv-x="1334" 
d="M1189 189q35 -41 35 -93q0 -147 -148 -147q-69 0 -113 53l-81 98q-161 -159 -369 -159q-181 0 -321 118q-154 129 -154 324q0 146 78 258q61 88 174 160q-42 63 -63 121q-27 72 -27 145q0 144 112 253q112 107 258 107t258 -107q113 -108 113 -249q0 -213 -194 -350
l85 -103q38 93 136 93q147 0 147 -148q0 -41 -21 -104q-14 -42 -42 -103zM552 947q71 43 89 73q7 12 7 25v22q0 20 -24 42q-25 24 -54 24q-25 0 -50 -22t-25 -44q0 -44 57 -120zM691 329l-204 244q-154 -90 -154 -190q0 -65 60 -108q53 -37 120 -37q97 0 178 91z" />
    <glyph glyph-name="quotesingle" unicode="'" horiz-adv-x="401" 
d="M36 1028v250q0 149 150 149q149 0 149 -149v-250q0 -149 -149 -149q-150 0 -150 149z" />
    <glyph glyph-name="parenleft" unicode="(" horiz-adv-x="738" 
d="M340 -150q-25 31 -48 64q-65 91 -114 190q-66 129 -102 265q-44 164 -44 331q0 252 105 486q100 222 276 387q54 51 108 51q150 0 150 -151q0 -73 -56 -116q-120 -97 -200 -277q-84 -189 -84 -380q0 -105 25 -214q22 -99 64 -195q75 -175 181 -286q45 -45 45 -109
q0 -63 -47 -106q-44 -42 -102 -42q-40 0 -75 20q-25 14 -47 38z" />
    <glyph glyph-name="parenright" unicode=")" horiz-adv-x="738" 
d="M328 -194q-22 -24 -47 -38q-35 -20 -75 -20q-58 0 -102 42q-47 43 -47 106q0 64 45 109q106 111 181 286q42 96 64 195q25 109 25 214q0 191 -84 380q-80 180 -200 277q-56 43 -56 116q0 151 150 151q54 0 108 -51q176 -165 276 -387q105 -234 105 -486q0 -167 -44 -331
q-36 -136 -102 -265q-49 -99 -114 -190q-23 -33 -48 -64z" />
    <glyph glyph-name="asterisk" unicode="*" horiz-adv-x="796" 
d="M546 1305q148 0 148 -146q0 -93 -82 -133q16 -34 16 -68q0 -147 -147 -147q-57 0 -102 45q-43 -45 -105 -45q-150 0 -150 150q0 33 16 64q-79 42 -79 132q0 146 145 146q13 0 24 -2q20 126 146 126q124 0 146 -124z" />
    <glyph glyph-name="plus" unicode="+" horiz-adv-x="890" 
d="M571 365v-111q0 -148 -147 -148q-148 0 -148 148v111h-112q-150 0 -150 149q0 148 150 148h112v92q0 147 148 147q147 0 147 -147v-92h115q147 0 147 -148q0 -149 -147 -149h-115z" />
    <glyph glyph-name="comma" unicode="," horiz-adv-x="517" 
d="M405 16q-16 -48 -49 -128q-20 -47 -46 -73q-39 -38 -96 -38q-141 0 -141 137q0 27 10 51l29 76q-12 32 -12 65q0 72 50 126q51 55 122 55q157 0 157 -156q0 -42 -24 -115z" />
    <glyph glyph-name="hyphen" unicode="-" horiz-adv-x="886" 
d="M193 365q-147 0 -147 147t147 147h461q148 0 148 -147t-148 -147h-461z" />
    <glyph glyph-name="hyphen" unicode="&#xad;" horiz-adv-x="886" 
d="M193 365q-147 0 -147 147t147 147h461q148 0 148 -147t-148 -147h-461z" />
    <glyph glyph-name="period" unicode="." horiz-adv-x="421" 
d="M34 117q0 71 50 126q51 56 122 56q158 0 158 -166q0 -75 -51 -129q-51 -55 -121 -55q-158 0 -158 168z" />
    <glyph glyph-name="slash" unicode="/" 
d="M722 1356q42 76 131 76q149 0 149 -146q0 -27 -9 -55q-4 -10 -9 -21l-8 -17l-650 -1169q-43 -77 -128 -77q-152 0 -152 149q0 39 19 72z" />
    <glyph glyph-name="zero" unicode="0" horiz-adv-x="1240" 
d="M973 213q-164 -219 -402 -219q-229 0 -379 203q-141 191 -141 454q0 284 158 496q165 223 405 223q229 0 378 -203q140 -191 140 -456q0 -286 -159 -498zM766 968q-68 103 -152 103q-98 0 -179 -115q-87 -124 -87 -299q0 -153 70 -261q67 -103 153 -103q97 0 179 115
q87 124 87 298q0 153 -71 262z" />
    <glyph glyph-name="one" unicode="1" horiz-adv-x="810" 
d="M67 1076l238 234q43 48 108 48q152 0 152 -137l-14 -922h32q154 0 154 -149q0 -150 -150 -150h-405q-150 0 -150 150q0 149 150 149h68l7 358q1 39 2 69q1 79 3 145q-39 -23 -86 -23q-150 0 -150 135q0 53 41 93z" />
    <glyph glyph-name="two" unicode="2" horiz-adv-x="1064" 
d="M379 1004l-46 -36l-42 -42q-12 -12 -25 -20q-36 -23 -80 -23q-66 0 -110 48q-40 45 -40 103q0 66 81 144q74 71 159 114q116 60 241 60q192 0 321 -109q128 -108 128 -267q0 -156 -120 -278q-46 -47 -115 -93l-61 -39l-60 -36q-100 -59 -149 -102q-70 -60 -97 -131h469
q149 0 149 -150q0 -147 -149 -147h-685q-104 0 -104 134q0 123 36 223q32 89 92 163q51 62 125 117q53 39 135 87q235 141 235 226q0 103 -150 103q-67 0 -138 -49z" />
    <glyph glyph-name="three" unicode="3" horiz-adv-x="1095" 
d="M303 987q-26 -12 -54 -12q-70 0 -113 49q-37 43 -37 100q0 90 109 157q58 36 128 58q86 27 175 27q188 0 320 -99q135 -103 135 -256q0 -143 -113 -252q143 -123 143 -323q0 -117 -48 -208q-43 -81 -121 -138q-137 -100 -314 -100q-146 0 -270 68q-126 71 -178 185
q-21 46 -21 83q0 145 150 145q86 0 130 -79q8 -14 20 -28q16 -20 36 -34q55 -41 129 -41q76 0 127 37q59 42 59 118q0 86 -83 130q-60 32 -134 32q-149 0 -149 150q0 149 151 149q68 0 129 34q58 33 58 65q0 7 -8 17q-9 11 -25 20q-44 24 -123 24q-59 0 -107 -19
q-32 -12 -61 -34z" />
    <glyph glyph-name="four" unicode="4" horiz-adv-x="1023" 
d="M839 137q0 -139 -151 -139q-150 0 -150 139v151l-369 5q-149 0 -149 137q0 37 23 76l519 793q43 67 126 67q151 0 151 -139v-668q115 -23 115 -136q0 -105 -115 -135v-151zM538 733l-105 -172l105 -3v175z" />
    <glyph glyph-name="five" unicode="5" horiz-adv-x="1128" 
d="M338 23q-72 25 -135 70q-104 75 -144 160q-15 35 -15 69q0 149 150 149q45 0 80 -24q24 -16 45 -47q74 -105 194 -105q85 0 153 70q70 74 70 176q0 162 -184 162q-70 0 -157.5 -49.5t-151.5 -49.5q-151 0 -151 149l1 18l50 451q11 124 149 124h543q149 0 149 -150
q0 -122 -149 -122h-407l-7 -107q64 15 131 15q208 0 345 -119q138 -131 138 -320q0 -224 -156 -387q-156 -162 -366 -162q-91 0 -175 29z" />
    <glyph glyph-name="six" unicode="6" horiz-adv-x="1101" 
d="M554 676q-72 0 -139 -25q-46 -18 -88 -48q-2 -19 -2 -39v-38q0 -141 68 -197q49 -40 143 -40q9 0 19 1q13 2 26 6q33 11 59 32q74 61 74 190q0 99 -64 136q-23 14 -53 19l-24 2zM721 1112q-133 -55 -226 -144q30 3 59 3q193 0 319 -117q134 -124 134 -333
q0 -150 -55 -263q-47 -96 -131 -161q-69 -53 -156 -81q-70 -22 -129 -22q-207 0 -343 116q-76 65 -116 162q-45 106 -45 245q0 194 73 359q60 135 168 246q44 46 95 86q43 34 90 64q36 23 75 43q14 8 28 15q6 2 12 5l12 6q9 4 15 7q10 3 18 6q22 6 43 6q145 0 145 -129
q0 -86 -85 -119z" />
    <glyph glyph-name="seven" unicode="7" horiz-adv-x="1009" 
d="M416 78q-39 -76 -134 -76q-150 0 -150 136q0 30 19 62l465 840h-428q-150 0 -150 150q0 149 150 149h669q150 0 150 -140q0 -28 -15 -59z" />
    <glyph glyph-name="eight" unicode="8" horiz-adv-x="1103" 
d="M864 115q-137 -121 -341 -121q-207 0 -343 115q-138 115 -138 291q3 108 54 196q43 74 119 132q-112 95 -112 246q0 178 134 290q125 106 307 106q184 0 305 -102q123 -104 123 -266q0 -82 -38 -153q-32 -62 -89 -110q158 -133 158 -322q0 -181 -139 -302zM546 631
q-106 -48 -149 -85q-58 -52 -58 -126q0 -127 184 -127q76 0 128 38q57 42 57 113q0 123 -162 187zM544 1120h-12l-43 -8q-13 -4 -25 -10q-66 -30 -66 -98q0 -66 131 -108q92 40 124 77q22 26 22 63q0 83 -131 84z" />
    <glyph glyph-name="nine" unicode="9" horiz-adv-x="1101" 
d="M485 684q72 0 139 26q50 18 87 47q3 26 3 77q0 141 -68 197q-49 40 -143 40q-8 0 -19 -2l-25 -6q-33 -10 -60 -31q-74 -61 -74 -189q0 -99 64 -137q23 -14 53 -19l24 -2zM318 248q131 56 224 144q-29 -3 -57 -3q-194 0 -319 117q-134 124 -134 335q0 149 55 261
q47 96 131 161q69 53 156 81q70 22 129 22q208 0 343 -116q76 -66 116 -162q45 -106 45 -245q0 -194 -73 -359q-61 -135 -168 -246q-44 -46 -96 -86q-42 -34 -89 -64q-37 -23 -75 -43q-14 -8 -28 -15q-6 -3 -12 -5l-45 -19q-21 -6 -41 -6q-147 0 -147 129q0 84 85 119z" />
    <glyph glyph-name="colon" unicode=":" horiz-adv-x="464" 
d="M30 117q0 71 50 126q51 56 122 56q156 0 156 -166q0 -75 -50 -129q-51 -55 -122 -55q-156 0 -156 168zM126 666q-43 49 -43 116q0 72 50 126q51 57 122 57q158 0 158 -164q0 -76 -50 -131q-51 -56 -122 -56q-70 0 -115 52z" />
    <glyph glyph-name="semicolon" unicode=";" horiz-adv-x="538" 
d="M203 667q-42 48 -42 115q0 72 50 126q51 57 122 57q156 0 156 -164q0 -76 -50 -131q-51 -56 -122 -56q-70 0 -114 53zM399 16q-16 -48 -49 -128q-20 -47 -46 -73q-39 -38 -96 -38q-141 0 -141 137q0 27 10 51l29 76q-12 32 -12 65q0 72 50 126q51 55 122 55
q157 0 157 -156q0 -42 -24 -115z" />
    <glyph glyph-name="less" unicode="&#x3c;" horiz-adv-x="1089" 
d="M119 381q-66 44 -66 127q0 81 69 125l629 402q39 24 80 24q150 0 150 -152q0 -83 -69 -125l-435 -277l402 -268q67 -48 67 -124q0 -150 -150 -150q-43 0 -83 25z" />
    <glyph glyph-name="equal" unicode="=" horiz-adv-x="992" 
d="M208 547q-147 0 -147 147q0 150 147 150h533q149 0 149 -150q0 -147 -149 -147h-533zM208 178q-147 0 -147 148q0 149 147 149h533q149 0 149 -149q0 -148 -149 -148h-533z" />
    <glyph glyph-name="greater" unicode="&#x3e;" horiz-adv-x="1089" 
d="M330 -12q-39 -25 -83 -25q-149 0 -149 150q0 76 67 124l402 268l-435 277q-69 42 -69 125q0 152 150 152q41 0 80 -24l629 -402q69 -44 69 -125q0 -83 -66 -127z" />
    <glyph glyph-name="question" unicode="?" horiz-adv-x="1074" 
d="M159 117q0 152 144 179q-70 44 -70 126q0 69 53 113l113 96q76 67 132 123q71 71 110 126q46 65 46 105q0 80 -44 128q-55 58 -171 58q-55 0 -106 -33q-36 -24 -83 -76q-39 -44 -103 -44q-150 0 -150 149q0 39 23 76q8 14 21 29l21 25q66 69 150 113q109 56 227 56
q224 0 365 -133q143 -134 143 -348q0 -88 -28 -167q-25 -67 -72 -130q-36 -48 -91 -101l-89 -82q-134 -124 -198 -173q-58 -46 -92 -54q79 -47 79 -145q0 -75 -50 -129q-51 -55 -122 -55q-158 0 -158 168z" />
    <glyph glyph-name="at" unicode="@" horiz-adv-x="1678" 
d="M1302 0q0 -73 -72 -127q-136 -98 -401 -98q-317 0 -541 212q-229 216 -229 531q0 332 221 554t553 222q302 0 510 -205q209 -207 209 -509q0 -117 -34 -207q-30 -77 -85 -133q-47 -47 -108 -76q-49 -23 -103 -33q80 -43 80 -131zM839 68q148 0 223 47l26 15
q-119 20 -202 99q-96 -77 -206 -77q-119 0 -198 61q149 -145 357 -145zM366 489q0 180 117 314q122 139 297 139q116 0 224 -67q85 -56 85 -134q0 -46 -27 -85q31 -42 31 -91q0 -16 -2 -31l-5 -25q0 -2 -3 -11l-2 -9q-2 -11 -2 -18q0 -47 58 -49h19q11 1 20 2q23 4 38 17
q41 34 41 139q0 170 -106 287q-117 130 -316 130q-195 0 -329 -120q-148 -134 -148 -359q0 -83 28 -157q-18 60 -18 128zM819 641q-21 8 -37 8q-121 0 -121 -160q0 -34 7 -41q2 -3 6 -2h6q8 0 27 19q17 17 37 46q47 62 64 107z" />
    <glyph glyph-name="A" unicode="A" horiz-adv-x="1261" 
d="M781 1314l416 -1123q9 -25 9 -52q0 -141 -154 -141q-107 0 -144 104l-133 383l-346 -77l-124 -310q-40 -98 -141 -98q-154 0 -154 141q0 30 10 52l73 171q-58 43 -58 113q0 114 118 139l49 9l293 695q38 89 144 89q108 0 142 -95zM560 697l114 25l-47 143z" />
    <glyph glyph-name="B" unicode="B" horiz-adv-x="1218" 
d="M917 110q-244 -114 -707 -114q-73 0 -117 32q-55 39 -55 121v1104q0 142 152 142h348q157 0 272 -51q95 -42 156 -117q48 -58 71 -131q17 -52 17 -93q0 -129 -68 -227q180 -107 180 -322q0 -228 -249 -344zM345 578v-270q516 18 516 153q0 53 -66 86q-63 31 -157 31h-293
zM345 1087v-202h275q129 0 129 108l-1 5q0 6 -2 12q-5 17 -22 32q-50 45 -186 45h-193z" />
    <glyph glyph-name="C" unicode="C" horiz-adv-x="1277" 
d="M1192 261q-202 -265 -533 -265q-269 0 -458 179q-191 181 -191 443q0 300 209 543q207 240 455 240q79 0 154 -17q63 -15 118 -41q15 6 29 8q9 1 24 1q154 0 154 -152v-123q0 -153 -154 -153q-121 0 -150 119q-28 23 -61 35q-46 16 -114 16q-116 0 -233 -145
q-124 -152 -124 -327q0 -155 121 -245q100 -74 221 -74q180 0 287 142q46 61 121 61q153 0 153 -154q0 -51 -28 -91z" />
    <glyph glyph-name="D" unicode="D" horiz-adv-x="1253" 
d="M952 121q-207 -160 -539 -160q-78 0 -167 16q-32 5 -60 12q-23 5 -33 9q-115 33 -115 139v1116q0 142 154 142q68 0 137 -6q80 -7 157 -22q184 -35 324 -110q170 -90 263 -234q108 -166 108 -399q0 -326 -229 -503zM723 951q-131 100 -378 126v-804q38 -5 68 -5
q461 0 461 358q0 211 -151 325z" />
    <glyph glyph-name="E" unicode="E" horiz-adv-x="1232" 
d="M343 307h662q151 0 151 -153q0 -154 -151 -154h-813q-154 0 -154 143v1111q0 143 154 143h817q151 0 151 -154q0 -153 -151 -153h-666v-218h572q151 0 151 -151q0 -154 -151 -154h-572v-260z" />
    <glyph glyph-name="F" unicode="F" 
d="M335 565v-426q0 -141 -153 -141q-154 0 -154 143v1111q0 143 154 143h817q151 0 151 -154t-151 -154h-664v-215h494q151 0 151 -155q0 -152 -151 -152h-494z" />
    <glyph glyph-name="G" unicode="G" horiz-adv-x="1521" 
d="M1331 676q102 -29 102 -135q0 -105 -108 -136q-69 -182 -226 -291q-168 -116 -393 -116q-300 0 -494 213q-180 198 -180 470t188 485q96 108 222 168q137 65 295 65q148 0 273 -55q106 -47 187 -130q68 -69 107 -152q35 -72 35 -122q0 -145 -150 -145q-106 0 -146 98
q-32 86 -96 136q-81 63 -210 63q-101 0 -183 -46q-71 -40 -124 -110q-91 -124 -91 -254q0 -143 92 -252q104 -125 275 -125q189 0 287 129l-117 -22q-18 -3 -35 -3q-152 0 -152 136q0 94 104 130q89 36 296 36q125 0 242 -35z" />
    <glyph glyph-name="H" unicode="H" horiz-adv-x="1386" 
d="M990 1243q0 152 154 152q153 0 153 -141v-1113q0 -141 -153 -141q-154 0 -154 152v450l-643 -90v-360q0 -152 -155 -152q-152 0 -152 141v1113q0 141 152 141q155 0 155 -152v-453l643 90v363z" />
    <glyph glyph-name="I" unicode="I" horiz-adv-x="870" 
d="M575 305h90q152 0 152 -153q0 -154 -152 -154h-489q-154 0 -154 154q0 153 154 153h92v782h-92q-154 0 -154 156q0 152 154 152h489q152 0 152 -152q0 -156 -152 -156h-90v-782z" />
    <glyph glyph-name="J" unicode="J" horiz-adv-x="949" 
d="M427 1386h391q152 0 152 -141q0 -98 -101 -134v-737q0 -146 -98 -250q-117 -124 -328 -124q-133 0 -230 52q-81 43 -133 122q-41 62 -60 140q-15 58 -15 108q0 158 154 158q153 0 153 -154q0 -119 131 -119q76 0 103 32q10 12 14 27q1 6 2 13v702h-135q-156 0 -156 154
q0 151 156 151z" />
    <glyph glyph-name="K" unicode="K" horiz-adv-x="1150" 
d="M857 29l-518 405v-282q0 -152 -151 -152q-152 0 -152 141v1113q0 141 152 141q151 0 151 -152v-290l474 407q43 37 100 37q61 0 106 -44q43 -43 43 -99q0 -66 -53 -107l-571 -457l604 -439q32 -22 47 -56q6 -14 9 -29q3 -13 3 -27q0 -141 -152 -141q-51 0 -92 31z" />
    <glyph glyph-name="L" unicode="L" horiz-adv-x="960" 
d="M857 45l-672 -45q-151 0 -151 141v1112q0 142 154 142q151 0 151 -138v-942l506 35q152 0 152 -151q0 -143 -140 -154z" />
    <glyph glyph-name="M" unicode="M" horiz-adv-x="1738" 
d="M1387 1283l262 -1090l6 -26q3 -17 3 -32q0 -135 -151 -135q-122 0 -148 118l-151 684l-255 -702q-35 -100 -145 -100q-107 0 -142 105l-209 652l-139 -637q-25 -120 -151 -120q-147 0 -147 128v11q1 8 1 16q3 23 8 46l254 1081q24 113 151 113q108 0 143 -105l243 -764
l276 769q36 100 151 100q114 0 140 -112z" />
    <glyph glyph-name="N" unicode="N" horiz-adv-x="1250" 
d="M891 67l-546 789l-2 -705q0 -151 -153 -151q-152 0 -152 141l2 1113q0 141 150 141q81 0 126 -65l547 -793v706q0 154 154 154q151 0 151 -143v-1113q0 -141 -151 -141q-78 0 -126 67z" />
    <glyph glyph-name="O" unicode="O" horiz-adv-x="1334" 
d="M1066 221q-194 -225 -463 -225q-250 0 -415 198q-158 189 -158 455q0 300 192 523q194 225 461 225q249 0 414 -197q160 -189 160 -456q0 -301 -191 -523zM873 991q-86 109 -202 109q-132 0 -234 -126q-108 -133 -108 -323q0 -153 83 -257q80 -101 191 -101
q133 0 242 127q115 134 115 314q0 147 -87 257z" />
    <glyph glyph-name="P" unicode="P" horiz-adv-x="1103" 
d="M341 141q0 -141 -151 -141q-154 0 -154 141v1090q0 86 49 123q56 43 201 43q811 0 811 -456q0 -134 -78 -237q-67 -90 -192 -154q-106 -54 -246 -87q-117 -27 -240 -35v-287zM689 1084q-118 56 -348 59v-430q181 17 302 73q149 68 149 172q0 78 -103 126z" />
    <glyph glyph-name="Q" unicode="Q" horiz-adv-x="1445" 
d="M1215 274l98 -59q67 -39 67 -120q0 -64 -49 -104q-44 -36 -103 -36q-47 0 -83 23l-164 110q-157 -92 -330 -92q-274 0 -458 195q-179 188 -179 454q0 303 216 525q216 223 511 223q273 0 458 -195q179 -190 179 -457q0 -268 -163 -467zM664 297q-29 21 -42 50
q-10 24 -10 52q0 134 150 134q52 0 94 -26l100 -59q109 131 109 286q0 143 -99 249q-100 109 -239 109q-156 0 -275 -126q-125 -130 -125 -312q0 -154 94 -256q93 -101 230 -101h13z" />
    <glyph glyph-name="R" unicode="R" horiz-adv-x="1205" 
d="M990 414q83 -96 144 -207q16 -30 16 -66q0 -141 -151 -141q-86 0 -134 70q-82 124 -161 206q-65 68 -128 106q-48 29 -93 39q-17 3 -34 4l-24 1q-39 0 -86 -5v-286q0 -135 -151 -135q-152 0 -152 141v1104q0 101 66 135q53 27 197 27h36q356 0 558 -118
q210 -122 210 -346q0 -131 -78 -233q-66 -86 -184 -148q81 -68 149 -148zM690 1064q-120 52 -351 53v-398q194 19 322 77q137 62 137 143q0 79 -108 125z" />
    <glyph glyph-name="S" unicode="S" horiz-adv-x="1207" 
d="M816 455q0 10 -2 18q-6 22 -25 41q-53 51 -221 92q-88 21 -159 48q-90 34 -154 78q-161 109 -161 277q0 206 178 307q74 42 175 63q89 18 189 18q71 0 143 -13q92 -17 162 -51q86 -42 134 -107q55 -77 55 -182q0 -157 -152 -157q-126 0 -149 128q-14 89 -199 89
q-215 0 -215 -113q0 -36 48 -67q56 -37 183 -69q490 -124 490 -431q0 -106 -53 -192q-47 -76 -132 -131q-157 -101 -360 -101q-184 0 -336 92q-150 91 -213 236q-14 34 -14 71q0 154 156 154q110 0 150 -110q24 -66 100 -107q71 -37 155 -37q91 0 157 38q70 40 70 103v15z
" />
    <glyph glyph-name="T" unicode="T" horiz-adv-x="1052" 
d="M932 1395q152 0 152 -152q0 -153 -152 -153h-284v-951q0 -139 -152 -139q-153 0 -153 139v951h-258q-152 0 -152 153q0 152 152 152h847z" />
    <glyph glyph-name="U" unicode="U" horiz-adv-x="1382" 
d="M1261 1339q14 -20 22 -46q5 -20 5 -37l6 -162q2 -89 2 -157q0 -98 -5 -185q-6 -99 -19 -195q-36 -256 -182 -399q-162 -158 -443 -158q-279 0 -442 215q-152 201 -164 531q-3 109 -3 219l3 293q0 46 35 86q44 51 123 51q80 0 120 -53q29 -39 29 -85q-1 -78 -2 -131
q-1 -66 -1 -123q0 -107 3 -216q9 -228 75 -352q77 -144 229 -144q123 0 201 63q93 77 114 242q11 87 15 181q3 77 3 178l-2 299q0 46 29 85q41 56 125 56q83 0 124 -56z" />
    <glyph glyph-name="V" unicode="V" horiz-adv-x="1078" 
d="M343 96l-399 1100q-6 17 -9 33q-2 13 -2 26q0 138 156 138q106 0 142 -105l269 -795l318 806q42 94 141 94q152 0 152 -140q0 -28 -12 -54l-469 -1110q-38 -89 -142 -89q-112 0 -145 96z" />
    <glyph glyph-name="W" unicode="W" horiz-adv-x="1758" 
d="M1191 556l273 756q38 105 146 105q150 0 150 -132l-1 -13q0 -9 -1 -18q-3 -22 -12 -45l-432 -1116q-35 -93 -140 -93q-119 0 -148 112l-194 699l-228 -706q-35 -105 -147 -105q-109 0 -143 98l-357 1091q-7 25 -10 45q-2 14 -2 29q0 132 150 132q112 0 147 -108l221 -727
l236 730q35 105 147 105t144 -109z" />
    <glyph glyph-name="X" unicode="X" horiz-adv-x="1377" 
d="M871 705l406 -477q17 -20 24 -46q3 -10 4 -21q1 -10 1 -20q0 -141 -149 -141q-73 0 -120 56l-369 459l-388 -460q-47 -55 -114 -55q-154 0 -154 141q0 54 35 92l429 476l-402 472q-7 10 -11 20q-12 26 -12 53q0 60 48 101q46 40 108 40q71 0 117 -56l353 -441l371 441
q46 56 117 56q154 0 154 -141q0 -27 -12 -52q-8 -19 -23 -38z" />
    <glyph glyph-name="Y" unicode="Y" horiz-adv-x="1197" 
d="M594 707l363 613q42 75 133 75q59 0 104 -40q47 -42 47 -101q0 -43 -28 -86l-700 -1096q-43 -72 -132 -72q-152 0 -152 141q0 37 24 77l163 255l-440 702q-23 39 -23 79q0 141 154 141q87 0 130 -77z" />
    <glyph glyph-name="Z" unicode="Z" horiz-adv-x="1291" 
d="M460 311h589q154 0 154 -155q0 -156 -154 -156h-882q-162 0 -162 152q0 48 36 89l740 838h-590q-153 0 -153 158q0 156 153 156h883q162 0 162 -146q0 -53 -30 -87z" />
    <glyph glyph-name="bracketleft" unicode="[" horiz-adv-x="628" 
d="M182 -283q-150 0 -150 152v1624q0 152 150 152h253q150 0 150 -152q0 -150 -150 -150h-104v-1325h76q149 0 149 -149q0 -152 -149 -152h-225z" />
    <glyph glyph-name="backslash" unicode="\" 
d="M984 168q18 -33 18 -72q0 -149 -151 -149q-85 0 -129 77l-658 1186q-5 11 -9 21q-9 28 -9 55q0 146 150 146q88 0 130 -76z" />
    <glyph glyph-name="bracketright" unicode="]" horiz-adv-x="628" 
d="M427 1645q150 0 150 -152v-1624q0 -152 -150 -152h-253q-150 0 -150 152q0 149 150 149h104v1325h-76q-149 0 -149 150q0 152 149 152h225z" />
    <glyph glyph-name="asciicircum" unicode="^" horiz-adv-x="1007" 
d="M355 1294q50 84 144 84q97 0 146 -95l191 -377q20 -40 20 -75q0 -147 -150 -147q-98 0 -131 84l-85 213l-107 -217q-39 -80 -132 -80q-147 0 -147 147q0 39 21 77z" />
    <glyph glyph-name="underscore" unicode="_" horiz-adv-x="986" 
d="M15 -156q-150 0 -150 114t150 114h911q149 0 149 -114t-149 -114h-911z" />
    <glyph glyph-name="grave" unicode="`" horiz-adv-x="1007" 
d="M265 1289q-47 48 -47 114q0 65 48 113q49 49 114 49q76 0 130 -64l195 -245q35 -47 35 -93q0 -147 -149 -147q-64 0 -108 47z" />
    <glyph glyph-name="a" unicode="a" horiz-adv-x="1017" 
d="M932 842v-702q0 -140 -150 -140q-77 0 -121 57q-110 -43 -205 -43q-193 0 -319 128q-127 129 -127 327q0 83 28 175q32 106 92 190q70 98 168 152q112 63 255 63q56 0 118 -12q51 -10 174 -45q87 -37 87 -150zM543 330q43 13 86 33l5 380q-41 9 -77 9q-117 0 -187 -97
q-59 -80 -59 -176q0 -166 143 -166q37 0 89 17z" />
    <glyph glyph-name="b" unicode="b" horiz-adv-x="1056" 
d="M337 953q110 53 238 53q213 0 327 -154q94 -126 94 -305q0 -230 -117 -373q-133 -162 -384 -162q-50 0 -108 9q-46 8 -97 21q-46 -40 -105 -40q-145 0 -145 132v1099q0 143 150 143q147 0 147 -143v-280zM337 324q79 -17 143 -17q222 0 222 235q0 165 -121 165
q-244 0 -244 -131v-252z" />
    <glyph glyph-name="c" unicode="c" horiz-adv-x="1025" 
d="M620 319q38 20 70 64l16 20q13 13 27 23q38 29 86 29q147 0 147 -150q0 -48 -32 -92q-66 -88 -168 -147q-116 -66 -238 -66q-209 0 -360 127q-158 132 -158 327q0 65 18 134q13 50 35 99q52 124 162 219q137 118 297 118q119 0 205 -43q74 -37 145 -119q39 -47 39 -102
q0 -148 -149 -148q-66 0 -103 43q-65 76 -133 76q-46 0 -106 -49q-57 -46 -86 -99q-29 -65 -29 -119q0 -87 79 -135q30 -18 66 -28q30 -8 54 -8q69 0 116 26z" />
    <glyph glyph-name="d" unicode="d" horiz-adv-x="1068" 
d="M936 1344q45 -47 43 -111l-29 -1100q-6 -133 -152 -133q-81 0 -125 68q-116 -60 -243 -60q-203 0 -318 150q-100 130 -100 313q0 230 113 377q132 172 385 172q77 0 160 -19l8 240q5 150 151 150q62 0 107 -47zM350 645q-39 -60 -39 -165q0 -185 119 -185q85 0 158 36
q28 13 48 29q17 13 21 22l8 312q-90 29 -153 29q-112 0 -162 -78z" />
    <glyph glyph-name="e" unicode="e" horiz-adv-x="1050" 
d="M739 363q48 49 104 49q148 0 148 -148q0 -56 -39 -96q-148 -168 -379 -168q-247 0 -407 149q-152 142 -152 342q0 215 138 368q148 163 376 163q105 0 195 -32q78 -27 138 -77q111 -93 111 -195q0 -76 -89 -121l-494 -249q70 -55 184 -55q99 0 166 70zM320 551l298 165
q-36 11 -90 11q-152 0 -208 -176z" />
    <glyph glyph-name="f" unicode="f" horiz-adv-x="743" 
d="M92 1026h51q21 239 140 324q111 78 325 78q69 0 113 -29q57 -38 57 -116q0 -148 -147 -148q-104 0 -139 -12q-32 -12 -44 -98l148 -1q54 0 98 -41q46 -43 46 -104q0 -146 -144 -146h-160v-605q0 -128 -149 -128q-150 0 -150 128v605h-43q-145 0 -145 146q0 147 143 147z
" />
    <glyph glyph-name="g" unicode="g" horiz-adv-x="1050" 
d="M324 -395q-59 8 -115 21q-115 27 -115 146q0 150 149 150q35 0 82 -12q62 -15 136 -15q145 0 160 152q-70 -29 -142 -29q-203 0 -336 137q-131 136 -131 343q0 206 153 363q159 163 386 163q68 0 146 -25q40 45 118 45q60 0 102 -34q47 -39 45 -108l-20 -805
q-5 -275 -143 -392q-127 -109 -336 -109q-68 0 -139 9zM589 351q64 54 64 187v172q-50 15 -94 15q-106 0 -181 -65q-77 -66 -77 -166q0 -71 40 -123q46 -58 124 -58q79 0 124 38z" />
    <glyph glyph-name="h" unicode="h" horiz-adv-x="1013" 
d="M949 127q-8 -127 -147 -127q-148 0 -148 129l5 209q0 109 -9 194q-6 69 -18 119q-5 20 -10 36q-5 13 -10 24q-8 15 -12 18q-57 0 -142 -89q-32 -34 -62 -74q-25 -33 -39 -57q-20 -40 -20 -109v-267q0 -135 -149 -135q-150 0 -150 138v1089q0 151 150 151q149 0 149 -151
v-314q135 115 274 115q195 0 276 -181q37 -82 54 -209q15 -113 15 -273q0 -182 -7 -236z" />
    <glyph glyph-name="i" unicode="i" horiz-adv-x="431" 
d="M58 1229l2 76q6 145 150 145q62 0 106 -46q44 -45 41 -105l-2 -78q-4 -142 -152.5 -140.5t-144.5 148.5zM357 877l-10 -740q0 -137 -151 -137q-152 0 -152 138l10 740q0 136 151.5 136t151.5 -137z" />
    <glyph glyph-name="j" unicode="j" horiz-adv-x="665" 
d="M460 1023q122 -21 122 -136l6 -344q2 -71 3 -158q1 -71 1 -149l1 -172q0 -58 -11 -114q-13 -75 -43 -132q-37 -70 -96 -109q-69 -45 -166 -45q-88 0 -165 45q-63 37 -115 102q-39 50 -70 111l-26 60l-7 23q-2 6 -3 11q-3 15 -3 29q0 150 152 150q109 0 143 -106
q17 -51 49 -95q28 -40 40 -41q9 8 17 49q7 39 7 71l-1 60q-1 4 -1 10l-11 745q0 121 128 137q23 1 49 -2zM411 1075q-128 24 -117 155l8 89q15 128 149 128q70 0 113 -52q39 -48 34 -108l-8 -88q-4 -55 -46 -90q-48 -45 -133 -34z" />
    <glyph glyph-name="k" unicode="k" horiz-adv-x="994" 
d="M948 218l13 -19q13 -25 13 -53q0 -140 -150 -140q-73 0 -117 54l-306 368q-26 -19 -58 -39v-239q0 -150 -151 -150q-150 0 -150 138l-4 1091q0 147 152 147q149 0 149 -151l2 -519q177 137 305 291q48 60 119 60q147 0 147 -133q0 -47 -31 -83q-49 -59 -123 -133
q-65 -65 -130 -122z" />
    <glyph glyph-name="l" unicode="l" horiz-adv-x="446" 
d="M364 1229v-1097q0 -56 -48 -95q-45 -37 -101 -37q-150 0 -150 132v1097q0 147 150 147q149 0 149 -147z" />
    <glyph glyph-name="m" unicode="m" horiz-adv-x="1648" 
d="M1169 1044q143 0 235 -82q115 -104 115 -319v-509q0 -134 -149 -134q-150 0 -150 130v503q0 90 -22 116q-7 8 -17 9h-12q-54 0 -126 -63q-85 -74 -85 -163v-402q0 -130 -149 -130q-150 0 -150 130v503q0 91 -21 116q-6 8 -16 9h-12q-12 0 -36 -12q-28 -13 -59 -36
q-83 -62 -156 -166q-5 -5 -5 -9q-2 -8 -2 -33v-372q0 -130 -149 -130q-150 0 -150 134v752q0 136 150 136q103 0 141 -101q65 58 125 88q70 35 141 35q75 0 139 -28q76 -33 126 -101q148 129 294 129z" />
    <glyph glyph-name="n" unicode="n" horiz-adv-x="1078" 
d="M338 895q134 127 288 127q218 0 298 -167q36 -76 52 -197q12 -102 12 -261l-2 -261q0 -136 -145 -136q-150 0 -150 129v235q0 141 -9 227q-7 72 -21 105q-10 25 -25 29q-4 2 -10 1l-8 -1q-43 0 -80 -24q-55 -35 -111 -125q-90 -147 -90 -291v-150q0 -135 -147 -135
q-150 0 -150 132v756q0 136 154 136q124 0 144 -129z" />
    <glyph glyph-name="o" unicode="o" horiz-adv-x="1078" 
d="M862 163q-158 -163 -377 -163q-202 0 -339 142q-134 139 -134 336q0 221 155 382q156 164 375 164q202 0 341 -145q135 -141 135 -333q0 -222 -156 -383zM656 681q-54 58 -122 58q-83 0 -150 -73q-71 -77 -71 -182q0 -199 172 -199q83 0 153 72q74 75 74 177
q0 86 -56 147z" />
    <glyph glyph-name="p" unicode="p" horiz-adv-x="1048" 
d="M593 1024q189 0 300 -156q95 -135 95 -313q0 -91 -22 -175q-25 -101 -78 -176q-61 -88 -155 -136q-106 -54 -251 -54q-68 0 -143 18v-245q0 -149 -149 -149q-150 0 -150 149v1097q0 140 152 140q71 0 117 -62q127 62 284 62zM339 342q92 -27 156 -27q204 0 204 238
q0 70 -31 124q-35 60 -91 60q-84 0 -153 -28q-48 -20 -85 -53v-314z" />
    <glyph glyph-name="q" unicode="q" horiz-adv-x="1035" 
d="M645 -300q-37 47 -35 107l7 198q-53 -15 -118 -15q-215 0 -353 132q-136 128 -136 322q0 251 167 405q167 155 435 155q35 0 72 -4q45 57 119 57q58 0 100 -36q47 -40 45 -104l-43 -1121q-5 -148 -150 -148q-69 0 -110 52zM354 323q53 -47 127 -47q147 0 152 107l14 331
l-35 1q-313 0 -313 -268q0 -76 55 -124z" />
    <glyph glyph-name="r" unicode="r" horiz-adv-x="794" 
d="M755 950q53 -61 53 -147v-56q0 -134 -147 -134q-73 0 -114 46q-34 38 -34 90v3q-56 -20 -133 -114q-43 -49 -43 -126l-2 -380q0 -132 -149 -132q-152 0 -152 132v754q0 136 152 136q90 0 133 -78q109 82 241 82q128 0 195 -76z" />
    <glyph glyph-name="s" unicode="s" horiz-adv-x="921" 
d="M566.5 692q-20.5 45 -83.5 45q-67 0 -93.5 -13t-19 -37t115.5 -56q376 -88 376 -307q0 -139 -93 -233.5t-323 -94.5q-101 0 -189 38q-77 33 -137 91q-100 87 -110 201q0 137 148 137q108 0 140 -93q32 -103 148 -103q123 0 123 67t-150 95q-356 95 -356 313
q0 152 150 226q59 28 136 42q64 12 130 12q335 0 365 -229q10 -164 -148 -155q-109 9 -129.5 54z" />
    <glyph glyph-name="t" unicode="t" horiz-adv-x="775" 
d="M518 1024h123q150 0 150 -152q0 -149 -150 -149h-123v-596q0 -129 -149 -129q-150 0 -150 129v596h-120q-150 0 -150 149q0 152 154 152h116v168q0 151 150 151q149 0 149 -151v-168z" />
    <glyph glyph-name="u" unicode="u" horiz-adv-x="1031" 
d="M941 892v-756q0 -136 -149 -136q-78 0 -126 60q-120 -66 -249 -66q-194 0 -276 105q-100 130 -103 481v27q0 83 8 165q3 32 8 65l7 52q21 135 147 135q59 0 102 -33q48 -36 48 -97l-17 -151q-8 -76 -8 -146q0 -111 10 -184q9 -61 24 -94q12 -26 28 -34l12 -4h10
q58 0 132 32q60 27 89 53q2 7 2 17l4 513q0 128 148 128q149 0 149 -132z" />
    <glyph glyph-name="v" unicode="v" horiz-adv-x="876" 
d="M890 834l-332 -751q-39 -85 -140 -85q-95 0 -137 90l-339 752q-9 24 -9 52q0 130 152 130q100 0 139 -98l194 -490l196 496q37 94 140 94q150 0 150 -134q0 -23 -14 -56z" />
    <glyph glyph-name="w" unicode="w" horiz-adv-x="1199" 
d="M803 559l107 351q33 112 145 112q150 0 150 -130q0 -27 -9 -50l-262 -743q-37 -99 -143 -99q-115 0 -146 114l-96 376l-140 -384q-37 -106 -142 -106q-124 0 -149 110l-170 735q-7 33 -7 54q0 125 147 125q124 0 147 -125l67 -333l123 352q35 106 147 106q120 0 148 -111
z" />
    <glyph glyph-name="x" unicode="x" horiz-adv-x="1027" 
d="M999 790l-295 -275l270 -294q32 -37 32 -85q0 -136 -149 -136q-67 0 -110 48l-256 313l-295 -314q-24 -25 -56 -36q-14 -5 -29 -7q-12 -2 -25 -2q-147 0 -147 136q0 25 9 48q11 28 34 50l316 295l-244 265q-39 40 -39 90q0 138 147 138q70 0 113 -51l234 -287l276 288
q46 46 108 46q150 0 150 -136q0 -55 -44 -94z" />
    <glyph glyph-name="y" unicode="y" horiz-adv-x="984" 
d="M973 828l-548 -1102q-43 -93 -138 -93q-150 0 -150 152q0 30 15 64l164 332l-343 637q-18 33 -18 67q0 139 150 139q47 0 85 -29q31 -23 50 -60l237 -476l218 474q44 93 141 93q149 0 149 -140q0 -30 -12 -58z" />
    <glyph glyph-name="z" unicode="z" horiz-adv-x="984" 
d="M21 211l466 514h-328q-150 0 -150 149q0 152 150 152h629q149 0 149 -133q0 -45 -31 -80l-467 -514h357q149 0 149 -149q0 -150 -149 -150h-657q-150 0 -150 131q0 45 32 80z" />
    <glyph glyph-name="braceleft" unicode="{" horiz-adv-x="753" 
d="M170 926v352q0 165 121 268q95 79 229 100q14 2 28 2q144 0 144 -149q0 -119 -127 -146q-100 -20 -100 -75v-350q0 -133 -73 -233q73 -108 73 -228v-379q0 -59 100 -74l2 -1q125 -26 125 -146q0 -150 -151 -150q-16 0 -35 3q-58 12 -111 35q-63 28 -109 68
q-116 101 -116 265v381q0 66 -61 91q-97 36 -97 134q0 96 88 137q70 36 70 95z" />
    <glyph glyph-name="bar" unicode="|" horiz-adv-x="378" 
d="M28 87v1189q0 150 152 150q149 0 149 -150v-1189q0 -152 -149 -152q-152 0 -152 152z" />
    <glyph glyph-name="braceright" unicode="}" horiz-adv-x="753" 
d="M534 440v-352q0 -165 -121 -268q-95 -79 -229 -100q-14 -2 -28 -2q-144 0 -144 149q0 119 127 146q100 20 100 75v350q0 133 73 233q-73 108 -73 228v379q0 59 -100 74l-2 1q-125 26 -125 146q0 150 151 150q16 0 35 -3q58 -12 111 -35q62 -28 109 -68q116 -101 116 -265
v-381q0 -66 61 -91q97 -36 97 -134q0 -96 -88 -136q-70 -37 -70 -96z" />
    <glyph glyph-name="asciitilde" unicode="~" horiz-adv-x="1293" 
d="M1154 513l-24 -50q-33 -62 -71 -108q-50 -58 -109 -90q-70 -38 -152 -38q-110 0 -195 69q-33 26 -65 65q-12 15 -26 34l-24 32q-16 23 -30 40l-22 23q-14 14 -19 14q-54 0 -84 -106l-1 -3q-36 -104 -143 -104q-145 0 -145 147q0 29 12 58q48 132 128 209q98 94 233 94
q109 0 195 -68q33 -26 65 -64l26 -33q6 -8 12 -17l12 -16q17 -23 31 -40q12 -14 21 -23q14 -14 19 -14q19 0 46 40q27 37 47 89q40 111 144 111q148 0 148 -148q0 -15 -2 -28q-3 -17 -10 -34z" />
    <glyph glyph-name="Ocircumflex" unicode="&#xd4;" horiz-adv-x="1793" 
d="M786 447l3 -84v-25l15 -3q97 12 134 40q34 41 34 68q-8 60 -50 60q-72 0 -136 -56zM1014 133q-9 -12 -9 -22v-9l22 -10h21q16 7 31 28zM736 353q20 -12 31 -12h6l-6 78q-31 -35 -31 -66zM250 548q77 0 108 -159l4 -43q-7 -213 -115 -255h-19q-44 2 -44 15v3l7 7l34 -7
q78 0 109 171l3 41v22q0 129 -66 174q-14 9 -34 9q-54 0 -99 -124v-4l9 -323l-3 -3h-12q-7 0 -7 9l-21 218l9 93l-3 134l15 6l7 -9v-69h3q49 94 115 94zM853 139h9q9 -3 9 -19v-15l-9 -10h-6q-10 4 -10 19v19zM1165 74q-35 27 -64 34q-30 -37 -53 -37h-31q-39 0 -43 49
q14 35 46 35l72 -19q46 98 46 227q0 75 -24 168v3l9 9h3q28 -15 37 -165v-18q0 -115 -49 -230h3q47 -22 80 -50q39 5 92 8l-28 71h-6q0 -26 -40 -34q-44 7 -44 53v6q0 71 16 75l9 -10l-9 -62q3 -40 31 -40q18 10 18 34v6l-9 59l9 3q17 0 28 -56q16 -15 50 -105l47 -13l-4 22
v12q16 150 75 150h6l6 -7v-15l-9 -9l-15 3q-41 -53 -41 -125h-3q6 -40 28 -40q62 39 62 99v7q0 21 -22 21h-9q0 -15 -6 -15h-9l-7 6v9q4 28 28 28q44 -9 44 -40v-25q-18 -109 -78 -109h-12l-16 3q0 -12 -9 -12q-24 25 -44 25v-3l10 -62q0 -61 -78 -69h-12q-162 18 -162 81
l-3 16q0 32 84 48zM1215 61l-28 -5q-87 -16 -87 -37v-6q37 -59 136 -59h28q50 0 50 47v3q0 38 -22 62h-43q-18 -2 -34 -5zM1631 129q-16 -72 -30 -72h-3q-30 0 -43 59v18l6 81l-3 22q-44 -55 -44 -149l-9 -10h-9l-3 3h-3l6 199l3 3h6l6 -6v-71q30 48 50 59h6q13 0 13 -37
l-7 -87q0 -32 19 -60q7 5 24 53l-14 16v15q0 32 65 72h19l6 -6v-10l-46 -25l-25 -31v-6q8 -8 105 -40l16 -19v-9q0 -75 -158 -103l-7 10v6q4 5 84 28q51 25 59 53q0 26 -89 44zM448 311q33 0 46 -37l-9 -6q-18 25 -28 25l-9 3q-67 0 -84 -134q6 -56 31 -62q29 0 65 50v25
q10 68 25 68h9q9 0 13 -31q0 -16 -22 -71v-16q11 -44 37 -44q21 0 50 22h6l10 -9q-26 -31 -72 -31q-35 0 -50 56q-36 -38 -65 -38h-3q-53 0 -53 100v3q0 108 90 127h13zM533 315l6 -7v-71q30 48 50 59h6q13 0 13 -37l-6 -87q0 -31 18 -59q7 4 25 55h9l4 -3h3
q-17 -77 -31 -77h-4q-30 0 -43 59v18l6 81l-3 22q-43 -55 -43 -149l-10 -10h-9l-3 4h-3l6 198l3 4h6zM907 521h12q54 0 69 -50l6 -24v-16q0 -61 -100 -102q-33 -13 -99 -13h-6l3 -19l9 -214l-12 -9h-3l-3 3h-4l-6 239l-43 16v-31l-10 -10h-6l-9 10l6 52q-12 4 -12 28
q3 19 9 19h3q6 0 6 -16h3q9 32 47 69l-6 53l12 9h6l7 -6v-34q70 46 121 46zM620 43h18l1 -2v-87l-1 -1h-18q-1 0 -1 5q-8 -8 -19 -8q-30 0 -38 21q-2 6 -2 12v1q0 25 23 32l9 2h8q9 0 19 -9v32zM810 41h13l1 -1v-15l-1 -2h-13l-2 2v15zM401 25h4q21 0 34 -27q3 -10 3 -16h-1
h-60q0 -9 13 -17q3 -1 8 -2q13 0 20 10h19v0q0 -16 -30 -23l-8 -1h-4q-22 0 -33 22q-3 9 -3 16q0 29 30 38h8zM687 25h3q22 0 35 -27q3 -10 3 -16h-1h-60q0 -9 13 -17q3 -1 8 -2q13 0 20 10h19v0q0 -16 -30 -23l-8 -1h-5q-21 0 -32 22q-3 9 -3 16q0 29 30 38h8zM234 23h4
q25 0 36 -25q1 -4 1 -10v-6q0 -22 -25 -30l-12 -1h-2q-26 0 -35 20q-3 6 -3 12v5q0 20 21 31q8 4 15 4zM768 21q28 0 28 -22l-1 -1h-17q-4 8 -10 8h-5q-11 0 -11 -8q0 -5 27 -6q13 -4 17 -10q3 -7 3 -12q0 -13 -11 -18q-9 -3 -22 -3h-3q-20 0 -27 12q-2 4 -3 10l1 1h17l1 -1
q2 -9 11 -9h5q12 0 12 8v3q0 8 -27 8q-20 3 -20 17q0 17 25 23h10zM898 20h15l1 -1v-59q0 -28 -19 -33q-11 -4 -20 -4h-4q-28 0 -35 18q-1 2 -1 7v0l1 1h16q1 0 3 -7q5 -8 15 -8h4q13 0 19 14l1 8v5q-10 -7 -23 -7q-28 0 -35 23l-1 7v3q0 23 20 29q5 2 15 3q15 0 26 -9h1v9z
M176 19q8 0 14 -5v-17h-1q-6 6 -13 6q-11 0 -14 -10l-2 -7l1 -18v-13l-1 -1h-16l-1 1v60l1 1h16q1 0 1 -4h1q0 5 12 7h2zM485 19q8 0 13 -5v-17v0q-6 6 -13 6q-11 0 -15 -10l-1 -7l1 -18v-13l-1 -1h-17l-1 1v60l1 1h17q1 0 1 -4v0q0 5 13 7h2zM945 19q1 0 1 -7q5 7 17 7h5
q22 0 28 -25l1 -13v-26l-1 -1h-14l-1 1v25q0 23 -17 23q-12 0 -17 -15l-1 -6v-27l-1 -1h-16l-1 1l-1 64h1h17zM58 18h14l1 -1v-8h1q8 9 20 9h5q33 -4 33 -33t-34 -33h-2q-10 0 -22 7v-30l-1 -1h-3q-13 0 -13 2v87zM284 18h14l1 -1v-8h1q8 9 20 9h5q33 -4 33 -33t-34 -33h-1
q-10 0 -23 7v-30l-1 -1h-3q-13 0 -13 2v87zM810 16h13l1 -1v-60l-1 -1h-13l-2 1v60zM381 -6h40v1q-5 15 -20 15h-1q-13 0 -19 -16zM667 -6h40v1q-5 15 -20 15h-1q-13 0 -19 -16zM212 -14v-1q0 -18 24 -18q22 0 26 15v6q0 14 -23 18h-3q-17 0 -23 -13q-1 -2 -1 -7zM74 -17
q0 -13 23 -16h1q13 0 19 12l1 5q0 14 -17 20h-5q-14 0 -22 -15v-6zM300 -17q0 -13 23 -16h1q13 0 19 12l1 5q0 14 -17 20h-4q-15 0 -23 -15v-6zM851 -15q0 -17 24 -17h2q14 0 14 18q0 17 -19 17q-21 0 -21 -18zM577 -17q0 -16 21 -16h2q17 1 17 10q1 0 1 8q0 17 -23 17
q-18 0 -18 -19zM1085.5 1118q118.5 -96 118.5 -232q0 -135 -118.5 -231t-285.5 -96t-285 96t-118 231q0 136 118 232t285 96t285.5 -96zM633 1095l44 -421q338 23 348 224.5t-392 196.5zM751 1011l18 -257q139 14 143 137t-161 120zM532 1152q188 114 408 76l-5 298
l-125 -87l-117 105l-78 -153l-152 104zM480 1575q12 -12 12 -30q0 -17 -12 -29.5t-29 -12.5q-18 0 -30 12.5t-12 29.5q0 18 12 30t30 12q17 0 29 -12zM720 1627.5q12 -12.5 12 -29.5q0 -18 -12 -30t-29 -12q-18 0 -30 12t-12 30q0 17 12 29.5t30 12.5q17 0 29 -12.5z
M968 1606.5q12 -12.5 12 -29.5q0 -18 -12 -30t-30 -12q-17 0 -29 12t-12 30q0 17 12 29.5t29 12.5q18 0 30 -12.5z" />
    <glyph glyph-name="Otilde" unicode="&#xd5;" horiz-adv-x="2700" 
d="M2544.5 1065q100.5 -84 100.5 -202q0 -119 -100.5 -203t-243.5 -84q-142 0 -243 84t-101 203q0 118 101 202t243 84q143 0 243.5 -84zM2159 1045l37 -368q288 20 296.5 196t-333.5 172zM2259 972l15 -225q119 12 122.5 119.5t-137.5 105.5zM1099 544q4 0 4 -57v-8
q0 -73 -5 -73h-30q-47 0 -47 42q0 40 38 53q11 4 21 4v1l-4 37l1 1h22zM1151 544h4q16 0 16 -6l-4 -17h-1q-6 5 -10 5h-3q-6 0 -9 -21h9q7 0 11 -2l-3 -16l-5 1h-12v-2q0 -36 4 -79l-1 -1h-19q-4 0 -5 76v6h-8l-5 -1l-1 1l1 7v7q1 3 6 3h7q1 0 5 22q7 17 23 17zM1263 544h18
l2 -2l-3 -69l3 -67h-20q-4 0 -5 66v5q0 61 5 67zM1297 544h17l2 -2l-3 -69l3 -67h-19q-4 0 -5 66v5q0 61 5 67zM1646 544q10 0 10 -21v-2q0 -46 -3 -114l-1 -1h-18l-2 2q4 43 4 90v26l-17 -5q-5 12 -5 17v1zM1709 544h1q44 0 44 -38q0 -26 -45 -52q-19 -17 -19 -26h1l12 1
l28 -4h4q8 0 17 8h1q0 -28 -22 -28q-23 5 -35 5q-14 0 -28 -4l-1 1v10q0 35 41 60q21 17 21 31q0 13 -19 14h-1q-17 0 -28 -10h-1l-4 23q15 9 33 9zM2248 544h18l2 -2l-3 -69l3 -67h-20q-4 0 -5 66v5q0 61 5 67zM2224 540q11 0 12 -14q-3 -10 -15 -10q-9 0 -11 13
q2 11 14 11zM1821 535q55 0 55 -50v-3q0 -40 -24 -48l-32 -2q-29 3 -29 19l-1 4v3q0 25 41 25v2q0 9 -11 9h-2q-10 0 -19 -7q-2 2 -5 14q13 8 26 8q28 0 28 -28v-16l-1 -21q18 5 18 35v9q0 23 -21 31q-8 4 -22 4h-5q-30 0 -40 -30l-2 -15v-14q0 -32 34 -43q11 -3 23 -3h2
q18 0 23 2l1 -1v-11l-2 -2l-24 -1q-55 0 -68 40q-3 9 -3 17v14q0 59 60 59zM1967 522q9 0 9 -3q-2 -13 -4 -15q-5 3 -10 3q-8 0 -9 -7q13 -9 13 -28v-4q0 -24 -30 -31q-14 0 -16 -9l35 -11q11 -8 11 -20q0 -25 -41 -25q-24 0 -33 14l-2 9v5h1q17 -12 34 -12h3q16 0 16 10
t-35 15q-10 6 -10 14q0 7 12 12v1q-24 8 -24 23l-1 8q0 36 41 36l15 -2q6 17 25 17zM969 507h1q40 0 40 -49v-3q0 -49 -39 -49h-2q-39 0 -39 51q0 50 39 50zM1365 507h1q40 0 40 -49v-3q0 -49 -39 -49h-2q-39 0 -39 51q0 50 39 50zM2436 507h1q39 0 39 -49v-3q0 -49 -38 -49
h-2q-40 0 -40 51q0 50 40 50zM1219 506q28 0 28 -28q0 -27 -48 -33h-3v-2q0 -14 20 -19h3q17 0 26 17h2v-14q0 -20 -27 -23h-1q-47 0 -47 51t47 51zM1568 506q27 -2 32 -13q-4 -16 -6 -16q-13 12 -26 12q-11 0 -11 -9v-1q0 -10 35 -21q13 -9 13 -25q-4 -28 -25 -28l-12 -2
q-38 0 -38 22q0 13 3 13h1q8 -16 25 -16h9q15 0 15 14q0 8 -37 22q-13 8 -13 19v4q0 22 30 25h5zM2158 506h7q35 0 35 -41v-7q-1 -45 -6 -52h-26q-44 0 -44 31v3q0 32 50 32h4v2q-1 15 -15 15h-5q-18 -4 -18 -14h-2q-7 5 -7 10v4q0 14 27 17zM2357 506q19 0 29 -11l-3 -18
h-1q-10 10 -27 10q-19 0 -23 -25v-11q0 -27 26 -27q15 0 28 14h1v-5q0 -29 -29 -29h-1q-47 0 -47 51t47 51zM874 505h18q2 0 2 -5l15 4q12 -4 12 -7q-6 -18 -8 -18q-5 4 -11 4h-1q-12 0 -12 -25q0 -21 5 -51l-1 -1h-19q-5 0 -6 46q2 53 6 53zM1438 505l2 -2v-15
q0 -27 10 -59h2q10 39 10 69v5l2 2h15l2 -2v-12q0 -28 9 -62h2q10 32 10 62v12l2 2h19q2 0 2 -3q0 -60 -27 -96h-15q-3 0 -12 34h-1q-8 -34 -11 -34h-15q-27 36 -27 98l1 1h20zM1983 505h17q2 0 2 -5h1q4 3 18 5q20 0 31 -18q7 18 26 18q35 0 35 -46q-3 -51 -8 -53h-18l-2 2
q5 17 7 52q-3 27 -14 27h-6q-16 -4 -16 -25v-4q-2 -48 -8 -52h-18l-1 1h-1q7 26 7 53v1q0 26 -16 26h-3q-18 0 -18 -36q1 -25 4 -44l-1 -1h-18q-5 0 -6 46q1 53 6 53zM2214 505h19l-2 -39l2 -60h-19l-2 2l-2 57v4q0 36 4 36zM2493 505h17q2 0 2 -5h1q4 3 18 5q20 0 31 -18
q7 18 26 18q35 0 35 -46q-3 -51 -7 -53h-19l-2 2q5 17 7 52q-3 27 -14 27h-6q-16 -4 -16 -25v-4q-2 -48 -7 -52h-19l-1 1h-1q7 26 7 53v1q0 26 -16 26h-3q-18 0 -18 -36q1 -25 4 -44l-1 -1h-18q-5 0 -6 46q2 53 6 53zM1909 474v-7q0 -14 18 -15q17 0 17 19t-18 19
q-17 -2 -17 -16zM953 450q0 -25 18 -25q17 0 17 32q0 31 -18 31q-15 0 -17 -23v-15zM1194 463v-1q34 5 34 13v7q-3 6 -12 6q-22 0 -22 -25zM1349 450q0 -25 18 -25q17 0 17 32q0 31 -18 31q-15 0 -17 -23v-15zM2419 450q0 -25 19 -25q16 0 16 32q0 31 -17 31q-15 0 -18 -23
v-15zM1041 450q0 -25 27 -25h10l2 61q-26 0 -37 -24zM1807 458v0q0 -10 13 -11h10l1 16v7h-5q-19 0 -19 -12zM2146 442v-3q0 -14 22 -14h8l2 32h-1q-31 0 -31 -15zM2286 429h2q13 -2 13 -11v-2q0 -8 -13 -11q-13 3 -13 11v5q5 8 11 8zM188 702q-41 -32 -118 -32q-12 0 -20 9
q-9 11 -9 34v313q0 40 25 40h58q27 0 46 -14q16 -12 26 -33q8 -17 12 -37q3 -15 3 -27q0 -36 -12 -64q31 -30 31 -91q0 -65 -42 -98zM92 835v-77q87 5 87 44q0 15 -12 24q-10 9 -26 9h-49zM92 979v-57h46q22 0 22 30v2q0 1 -1 3q-1 5 -3 9q-9 13 -32 13h-32zM479 947
q18 15 39 15q36 0 55 -44q16 -36 16 -86q0 -65 -20 -106q-22 -46 -64 -46q-8 0 -18 3q-8 2 -16 6q-8 -12 -18 -12q-24 0 -24 38v311q0 41 25 41t25 -41v-79zM479 769q13 -5 24 -5q36 0 36 66q0 47 -20 47q-40 0 -40 -37v-71zM1020 791q8 14 18 14q24 0 24 -42q0 -16 -6 -27
q-25 -48 -63 -48q-42 0 -68 42q-26 41 -26 97q0 61 23 104q25 47 63 47q18 0 32 -9q14 -8 24 -22q18 -27 18 -55q0 -22 -15 -35l-82 -70q11 -16 31 -16q16 0 27 20zM950 844l50 47q-6 3 -15 3q-25 0 -35 -50zM874 1013v-310q0 -16 -8 -27q-7 -10 -17 -10q-25 0 -25 37v310
q0 42 25 42t25 -42zM1690 990q24 0 39 -24q20 -29 20 -90v-144q0 -38 -25 -38t-25 37v142q0 26 -4 33q-1 2 -3 3l-2 -1q-9 0 -21 -17q-14 -21 -14 -46v-114q0 -37 -25 -37t-25 37v142q0 26 -3 33l-3 3l-2 -1q-2 0 -6 -3q-5 -4 -10 -10q-14 -18 -26 -47q-1 -2 -1 -3v-9v-105
q0 -37 -25 -37t-25 38v213q0 38 25 38q17 0 23 -28q11 16 21 25q12 10 24 10t23 -8q13 -10 21 -29q25 37 49 37zM1868 995q32 0 50 -44q16 -38 16 -89q0 -25 -4 -49q-4 -29 -13 -50q-10 -25 -26 -38q-17 -16 -41 -16q-12 0 -24 5v-69q0 -42 -25 -42t-25 42v310q0 40 25 40
q12 0 20 -17q21 17 47 17zM1826 802q15 -8 26 -8q34 0 34 68q0 20 -5 35q-6 17 -16 17q-14 0 -25 -8q-8 -6 -14 -15v-89zM399 963v-214q0 -38 -25 -38q-13 0 -21 17q-20 -19 -41 -19q-33 0 -47 30q-16 37 -17 136v8q0 23 2 46q0 9 1 19l1 15q4 38 25 38q9 0 17 -9
q8 -11 8 -28l-3 -43q-2 -21 -2 -41q0 -32 2 -52q2 -18 4 -27q2 -7 5 -9l2 -2h2q9 0 21 9q11 8 16 15v5v146q0 36 25 36t25 -38zM1221 847l18 99q6 32 25 32q25 0 25 -37q0 -8 -2 -14l-44 -211q-6 -28 -24 -28q-19 0 -24 32l-16 107l-23 -109q-7 -30 -24 -30q-21 0 -25 31
l-28 209q-2 9 -2 15q0 35 25 35q21 0 25 -35l11 -95l20 100q6 30 25 30q20 0 25 -31zM676 958q18 15 39 15q36 0 55 -44q16 -35 16 -86q0 -65 -20 -106q-22 -45 -64 -45q-8 0 -18 2q-8 2 -16 6q-8 -11 -18 -11q-24 0 -24 37v311q0 41 25 41t25 -41v-79zM676 780q13 -5 24 -5
q37 0 37 67q0 46 -21 46q-40 0 -40 -37v-71zM1465 963v-214q0 -38 -25 -38q-13 0 -21 17q-20 -19 -42 -19q-32 0 -46 30q-16 37 -17 136v8q0 23 1 46q1 9 2 19l1 15q3 38 25 38q9 0 17 -9q8 -11 8 -28l-3 -43q-2 -21 -2 -41q0 -32 2 -52q2 -18 4 -27q2 -7 5 -9l2 -2h1
q10 0 22 9q11 8 15 15q1 2 1 5v146q0 36 25 36t25 -38z" />
    <glyph glyph-name="Odieresis" unicode="&#xd6;" horiz-adv-x="2098" 
d="M459 262v-194h134v194h-134zM466 980h-305v-394h305v394zM1203 262h-134v-194h134v194zM1739 262v-194h134v194h-134zM650 316v-302h-248v302h248zM981 1028v-174h305v174h-305zM866 1133h535v-385h-420v-162h420v-105h-535v652zM1469 262v-248h-57v302h238v-302h-57v248
h-124zM1312 368v54h58v-54h-58zM1282 262v54h88v-302h-57v248h-31zM1203 14h-191v302h248v-431h-188v91h57v-37h74v75zM922 368v54h58v-54h-58zM892 262v54h88v-302h-57v248h-31zM803 215v47h-64v-248h-57v302h178v-101h-57zM1930 316v-302h-57v20l-25 -20h-166v302h248z
M1962 372v54h88v-412h-57v358h-31zM46 1086h420v297h115v-902h-535v605zM666 1383h115v-902h-115v902zM1536 1284h81v-803h-81v803zM1716 1284h81v-803h-81v803zM1896 1284h81v-803h-81v803z" />
  </font>
</defs>
</svg>
