<svg width="140" height="146" viewBox="0 0 140 146" fill="none" xmlns="http://www.w3.org/2000/svg">
<g clip-path="url(#clip0_1201_31709)">
<path d="M20.5579 106.542C27.3862 104.911 33.6825 108.783 40.0919 110.742C50.2859 113.877 62.877 111.69 70.8318 102.816C77.202 95.7591 79.7459 85.2941 78.3251 76.1745C76.8687 67.0383 71.7888 59.2594 65.1304 53.8412C62.3046 51.5391 59.1649 49.6313 55.6629 48.6853C47.6752 46.5799 38.6363 49.8839 31.5231 55.5615C29.9321 56.8348 28.3914 58.279 27.4535 60.1029C26.4968 61.9672 26.2664 64.318 27.3653 65.8633C28.6023 67.6698 31.2042 67.8516 33.2389 66.8345C35.2736 65.8175 36.896 63.9197 38.3028 62.0196C45.8789 51.5431 49.7563 37.5705 46.3617 25.809C42.9671 14.0475 31.3563 5.77717 19.7888 8.83518" stroke="white" stroke-width="2" stroke-miterlimit="10" stroke-linecap="round" stroke-dasharray="9.74 9.74"/>
</g>
<g clip-path="url(#clip1_1201_31709)">
<path d="M96.5121 44.822C97.2887 43.5533 98.3931 42.2299 99.8985 42.1178C100.606 42.0719 101.284 42.3157 101.891 42.6696C105.174 44.6101 105.265 49.362 104.125 52.9948C102.984 56.6275 100.943 60.1989 101.394 64.0209C104.543 63.313 106.139 59.5212 109.162 58.3322C111.326 57.5252 113.938 58.3149 115.45 60.1065C116.962 61.8981 117.276 64.5061 116.435 66.6758C114.672 71.5048 108.724 73.2193 105.255 76.9984C104.328 78.0177 103.552 79.2863 103.465 80.6829C103.378 82.0794 104.16 83.5634 105.495 83.9612C108.365 84.8062 111.103 80.4558 113.783 81.7208C114.926 82.275 115.445 83.7617 115.196 85.0249C114.947 86.288 114.189 87.3828 113.326 88.35C111.302 90.6349 108.882 92.4994 106.188 93.8972C105.2 94.3833 104.154 94.8637 103.374 95.6049C102.562 96.3723 102.055 97.5802 102.474 98.6178C103.673 101.725 110.054 99.2339 110.951 102.427C111.46 104.294 109.294 105.686 107.548 106.418C103.357 108.134 99.1397 109.817 94.9485 111.533C92.657 112.444 90.0696 113.384 87.8034 112.366C86.6284 111.838 85.7915 110.875 84.9546 109.913C80.4966 104.634 76.7807 98.6973 73.9247 92.379C73.31 90.9704 72.7074 89.446 72.9544 87.9192C73.2593 86.3982 74.8076 85.0315 76.2525 85.4989C77.1879 85.7979 78.4426 86.6853 78.939 85.857C79.1871 85.4428 78.9776 84.924 78.756 84.5211C75.5763 77.936 71.0574 71.2747 72.0701 64.0867C72.1685 63.4232 72.331 62.7076 72.7651 62.195C73.8756 60.8136 76.1961 61.3105 77.4726 62.5515C78.7811 63.7663 79.5135 65.4502 80.79 66.6912C82.0664 67.9321 84.3489 68.513 85.5433 67.1693C83.3376 62.7608 82.3697 57.7157 82.851 52.8163C83.0243 50.8722 84.0956 48.4622 86.0345 48.6865C87.1038 48.8233 87.8248 49.7742 88.3779 50.6496C89.5819 52.5858 90.5299 54.7306 91.15 56.9302C91.4471 58.014 92.1589 60.457 93.561 59.3685C94.3231 58.801 93.604 55.3033 93.6366 54.4283C93.819 50.992 94.7809 47.6633 96.5121 44.822Z" fill="#0942B4"/>
<path d="M100.825 52.3421C100.736 52.626 100.674 52.9418 100.502 53.1879C100.33 53.4341 100.074 53.6426 99.7781 53.6714C99.7201 53.6655 99.6302 53.6858 99.5782 53.622C99.4943 53.5843 99.4484 53.4626 99.4605 53.3467C99.3192 52.4541 99.4998 51.5647 99.6803 50.6753C99.7365 50.4175 99.7927 50.1596 99.9327 49.9395C100.073 49.7194 100.355 49.5428 100.613 49.598C100.986 49.6649 101.112 50.146 101.102 50.5255C101.093 51.1688 100.969 51.8003 100.825 52.3421Z" fill="#8AB4FD"/>
<path d="M99.8667 48.0293C99.8226 48.1712 99.6686 48.2436 99.5527 48.2319C99.5267 48.2 99.4688 48.1942 99.4428 48.1623C99.1252 47.8376 98.9676 47.3826 98.9839 46.9451C98.996 46.8292 99.0401 46.6872 99.1621 46.641C99.252 46.6207 99.31 46.6266 99.3939 46.6643C99.5618 46.7397 99.6596 46.9252 99.7315 47.0788C99.7973 47.2904 99.9229 47.7715 99.8667 48.0293Z" fill="#8AB4FD"/>
<path d="M101.55 54.0825C101.614 54.0303 101.736 53.9841 101.788 54.0478C101.813 54.0797 101.813 54.0797 101.839 54.1116C101.957 54.387 101.927 54.6767 101.813 54.9287C101.775 55.0127 101.711 55.0648 101.653 55.059C101.595 55.0532 101.569 55.0213 101.543 54.9894C101.465 54.8937 101.419 54.772 101.431 54.6561C101.385 54.5344 101.448 54.2186 101.55 54.0825Z" fill="#8AB4FD"/>
<path d="M99.2244 60.3773C99.3144 60.3571 99.4243 60.4267 99.4182 60.4847C99.4442 60.5166 99.4122 60.5426 99.4122 60.5426C99.324 60.8265 99.126 61.0408 98.85 61.1594C98.786 61.2115 98.696 61.2318 98.6441 61.168C98.6182 61.1361 98.5922 61.1042 98.5982 61.0463C98.6103 60.9304 98.6544 60.7884 98.7184 60.7363C98.8204 60.6002 99.0765 60.3917 99.2244 60.3773Z" fill="#8AB4FD"/>
<path d="M101.006 46.944C100.954 46.8802 100.966 46.7643 101.03 46.7122C101.062 46.6861 101.062 46.6861 101.12 46.692C101.416 46.6632 101.7 46.7503 101.914 46.9474C101.966 47.0112 102.018 47.075 102.012 47.1329C102.006 47.1909 101.974 47.2169 101.884 47.2372C101.762 47.2834 101.646 47.2718 101.53 47.2601C101.388 47.2166 101.11 47.0715 101.006 46.944Z" fill="#8AB4FD"/>
<path d="M96.0102 60.6098C95.8822 60.714 95.6763 60.7225 95.5344 60.679C95.3665 60.6036 95.2107 60.4122 95.1389 60.2586C94.9891 60.0093 94.9294 59.7398 94.9275 59.4762C94.9197 59.2704 94.9698 59.0705 95.0978 58.9663C95.2258 58.8621 95.4378 58.7956 95.6117 58.8131C95.8176 58.8045 96.0175 58.8539 96.1533 58.9554C96.3152 59.0888 96.381 59.3003 96.3568 59.5321C96.3586 59.7958 96.2662 60.4013 96.0102 60.6098Z" fill="#8AB4FD"/>
<path d="M99.9136 57.6949C99.7216 57.8512 99.4257 57.88 99.1739 57.7668C98.9481 57.6856 98.7023 57.5145 98.5785 57.2971C98.4747 57.1695 98.3769 56.984 98.395 56.8102C98.4131 56.6363 98.5791 56.4481 98.7591 56.4076C98.939 56.3672 99.1449 56.3586 99.3448 56.408C99.5447 56.4574 99.7385 56.5647 99.9003 56.6981C100.192 56.9909 100.228 57.4922 99.9136 57.6949Z" fill="#8AB4FD"/>
<path d="M98.5438 54.835C98.4798 54.8871 98.3898 54.9074 98.3059 54.8696C98.222 54.8319 98.17 54.7681 98.1181 54.7044C98.0921 54.6725 98.0402 54.6087 98.0462 54.5508C98.0523 54.4928 98.1163 54.4407 98.1483 54.4146C98.2063 54.4205 98.2642 54.4263 98.3222 54.4321C98.3802 54.438 98.4641 54.4757 98.4901 54.5076C98.6259 54.6091 98.6398 54.7568 98.5438 54.835Z" fill="#8AB4FD"/>
<path d="M103.032 51.3917C102.968 51.4438 102.878 51.464 102.794 51.4263C102.71 51.3886 102.658 51.3248 102.606 51.261C102.58 51.2291 102.528 51.1653 102.535 51.1074C102.541 51.0494 102.605 50.9973 102.637 50.9713C102.695 50.9771 102.753 50.9829 102.81 50.9888C102.868 50.9946 102.952 51.0323 102.978 51.0642C103.114 51.1657 103.128 51.3135 103.032 51.3917Z" fill="#8AB4FD"/>
<path d="M102.149 49.4589C102.097 49.3951 102.135 49.3111 102.173 49.2271C102.211 49.1431 102.275 49.091 102.365 49.0707C102.397 49.0447 102.487 49.0244 102.513 49.0563C102.571 49.0622 102.623 49.1259 102.617 49.1839C102.611 49.2418 102.605 49.2998 102.599 49.3577C102.593 49.4157 102.529 49.4678 102.465 49.5199C102.343 49.5662 102.195 49.5806 102.149 49.4589Z" fill="#8AB4FD"/>
<path d="M103.154 47.6859C103.122 47.712 103.064 47.7062 103.064 47.7062C103.006 47.7003 102.98 47.6684 102.954 47.6365C102.928 47.6047 102.928 47.6047 102.934 47.5467C102.966 47.5206 102.94 47.4888 102.998 47.4946C103.03 47.4685 103.056 47.5004 103.088 47.4744C103.114 47.5063 103.146 47.4802 103.172 47.5121C103.192 47.6019 103.186 47.6599 103.154 47.6859Z" fill="#8AB4FD"/>
<path d="M101.423 48.8305C101.391 48.8565 101.334 48.8507 101.334 48.8507C101.276 48.8449 101.25 48.813 101.224 48.7811C101.198 48.7492 101.198 48.7492 101.204 48.6912C101.236 48.6652 101.21 48.6333 101.268 48.6391C101.3 48.6131 101.326 48.645 101.358 48.6189C101.384 48.6508 101.416 48.6247 101.442 48.6566C101.494 48.7204 101.487 48.7783 101.423 48.8305Z" fill="#8AB4FD"/>
<path d="M102.58 46.1937C102.548 46.2198 102.49 46.214 102.49 46.214C102.432 46.2081 102.406 46.1762 102.38 46.1444C102.354 46.1125 102.354 46.1125 102.36 46.0545C102.392 46.0285 102.366 45.9966 102.424 46.0024C102.456 45.9763 102.482 46.0082 102.514 45.9822C102.54 46.0141 102.572 45.988 102.598 46.0199C102.65 46.0837 102.644 46.1416 102.58 46.1937Z" fill="#8AB4FD"/>
<path d="M100.45 45.5401C100.386 45.5922 100.296 45.6124 100.212 45.5747C100.128 45.537 100.076 45.4732 100.024 45.4094C99.9984 45.3776 99.9465 45.3138 99.9525 45.2558C99.9585 45.1979 100.023 45.1458 100.055 45.1197C100.113 45.1255 100.17 45.1314 100.228 45.1372C100.286 45.143 100.37 45.1808 100.396 45.2126C100.532 45.3141 100.546 45.4619 100.45 45.5401Z" fill="#8AB4FD"/>
<path d="M102.118 44.9776C102.054 45.0297 101.964 45.0499 101.88 45.0122C101.796 44.9745 101.744 44.9107 101.692 44.8469C101.666 44.8151 101.614 44.7513 101.62 44.6933C101.627 44.6354 101.691 44.5833 101.723 44.5572C101.78 44.563 101.838 44.5689 101.896 44.5747C101.954 44.5805 102.038 44.6183 102.064 44.6501C102.2 44.7516 102.182 44.9255 102.118 44.9776Z" fill="#8AB4FD"/>
<path d="M110.209 68.2442C110.037 68.4904 109.839 68.7047 109.583 68.9131C109.333 69.0636 108.999 69.1764 108.715 69.0893C108.657 69.0835 108.573 69.0458 108.521 68.982C108.469 68.9182 108.481 68.8023 108.493 68.6864C108.7 67.8289 109.222 67.0324 109.706 66.3199C109.847 66.0998 110.019 65.8536 110.237 65.7292C110.455 65.6047 110.783 65.5499 110.97 65.7152C111.268 65.95 111.22 66.4136 111.067 66.7496C110.923 67.2914 110.547 67.8098 110.209 68.2442Z" fill="#8AB4FD"/>
<path d="M110.983 63.9022C110.913 64.0123 110.733 64.0527 110.629 63.9252C110.603 63.8933 110.578 63.8614 110.584 63.8034C110.42 63.4064 110.442 62.9109 110.632 62.4909C110.703 62.3808 110.773 62.2708 110.889 62.2824C110.946 62.2883 111.03 62.326 111.082 62.3898C111.186 62.5173 111.252 62.7289 111.234 62.9027C111.236 63.1664 111.181 63.6879 110.983 63.9022Z" fill="#8AB4FD"/>
<path d="M110.213 70.1487C110.277 70.0966 110.418 70.1402 110.438 70.23C110.464 70.2619 110.432 70.2879 110.458 70.3198C110.428 70.6096 110.34 70.8935 110.116 71.0759C110.052 71.128 109.988 71.1801 109.904 71.1424C109.846 71.1365 109.852 71.0786 109.8 71.0148C109.754 70.8931 109.766 70.7772 109.836 70.6671C109.854 70.4933 110.059 70.2211 110.213 70.1487Z" fill="#8AB4FD"/>
<path d="M105.607 75.0132C105.691 75.0509 105.743 75.1147 105.763 75.2045C105.731 75.2306 105.757 75.2625 105.725 75.2885C105.527 75.5028 105.277 75.6533 104.955 75.6502C104.865 75.6705 104.781 75.6327 104.729 75.569C104.703 75.5371 104.709 75.4791 104.715 75.4212C104.785 75.3111 104.881 75.2329 104.945 75.1808C105.157 75.1143 105.465 74.9696 105.607 75.0132Z" fill="#8AB4FD"/>
<path d="M112.477 63.3204C112.457 63.2306 112.527 63.1205 112.585 63.1263C112.617 63.1003 112.643 63.1322 112.643 63.1322C112.927 63.2193 113.141 63.4164 113.291 63.6657C113.343 63.7295 113.363 63.8193 113.299 63.8714C113.267 63.8975 113.235 63.9236 113.177 63.9177C113.061 63.9061 112.945 63.8944 112.867 63.7987C112.699 63.7233 112.517 63.5001 112.477 63.3204Z" fill="#8AB4FD"/>
<path d="M102.548 74.0037C102.368 74.0442 102.2 73.9687 102.096 73.8412C101.934 73.7078 101.9 73.4702 101.86 73.2905C101.833 72.9949 101.889 72.7371 101.945 72.4793C102.021 72.3113 102.129 72.1172 102.309 72.0767C102.463 72.0044 102.663 72.0538 102.831 72.1292C102.999 72.2047 103.192 72.312 103.29 72.4975C103.388 72.683 103.364 72.9148 103.282 73.1407C103.2 73.3667 102.881 73.8909 102.548 74.0037Z" fill="#8AB4FD"/>
<path d="M107.299 72.8407C107.029 72.9014 106.777 72.7883 106.589 72.623C106.402 72.4577 106.252 72.2084 106.218 71.9708C106.178 71.7912 106.196 71.6173 106.272 71.4493C106.348 71.2813 106.592 71.1887 106.766 71.2062C106.94 71.2237 107.134 71.331 107.27 71.4325C107.432 71.5659 107.562 71.7254 107.659 71.9109C107.829 72.25 107.691 72.7338 107.299 72.8407Z" fill="#8AB4FD"/>
<path d="M107.134 69.6334C107.044 69.6537 106.96 69.6159 106.908 69.5522C106.857 69.4884 106.805 69.4246 106.785 69.3348C106.791 69.2768 106.765 69.2449 106.803 69.1609C106.809 69.103 106.899 69.0828 106.957 69.0886C107.015 69.0944 107.073 69.1003 107.125 69.164C107.177 69.2278 107.203 69.2597 107.254 69.3235C107.326 69.4771 107.282 69.619 107.134 69.6334Z" fill="#8AB4FD"/>
<path d="M112.616 68.1944C112.526 68.2147 112.442 68.177 112.39 68.1132C112.338 68.0494 112.286 67.9856 112.266 67.8958C112.272 67.8378 112.246 67.8059 112.284 67.7219C112.316 67.6959 112.38 67.6438 112.438 67.6496C112.496 67.6554 112.554 67.6613 112.606 67.725C112.658 67.7888 112.684 67.8207 112.736 67.8845C112.776 68.0642 112.732 68.2061 112.616 68.1944Z" fill="#8AB4FD"/>
<path d="M112.544 66.0783C112.524 65.9885 112.588 65.9364 112.652 65.8843C112.716 65.8322 112.806 65.8119 112.864 65.8178C112.922 65.8236 112.98 65.8294 113.006 65.8613C113.032 65.8932 113.052 65.983 113.046 66.041C113.04 66.0989 112.976 66.151 112.944 66.1771C112.88 66.2292 112.848 66.2553 112.758 66.2755C112.668 66.2957 112.532 66.1942 112.544 66.0783Z" fill="#8AB4FD"/>
<path d="M114.161 64.8658C114.129 64.8918 114.103 64.8599 114.045 64.8541C114.019 64.8222 113.993 64.7903 113.967 64.7584C113.941 64.7266 113.973 64.7005 113.973 64.7005C114.005 64.6744 114.005 64.6744 114.037 64.6484C114.069 64.6223 114.095 64.6542 114.121 64.6861C114.147 64.718 114.173 64.7499 114.173 64.7499C114.231 64.7557 114.193 64.8397 114.161 64.8658Z" fill="#8AB4FD"/>
<path d="M112.13 65.2466C112.098 65.2727 112.072 65.2408 112.014 65.235C111.988 65.2031 111.962 65.1712 111.936 65.1393C111.91 65.1074 111.942 65.0814 111.942 65.0814C111.974 65.0553 111.974 65.0553 112.006 65.0292C112.038 65.0032 112.064 65.0351 112.09 65.067C112.116 65.0989 112.142 65.1308 112.142 65.1308C112.226 65.1685 112.188 65.2525 112.13 65.2466Z" fill="#8AB4FD"/>
<path d="M114.216 63.231C114.184 63.2571 114.158 63.2252 114.1 63.2193C114.074 63.1875 114.048 63.1556 114.022 63.1237C113.996 63.0918 114.028 63.0657 114.028 63.0657C114.06 63.0397 114.06 63.0397 114.092 63.0136C114.124 62.9876 114.15 63.0195 114.176 63.0513C114.202 63.0832 114.228 63.1151 114.228 63.1151C114.312 63.1528 114.274 63.2368 114.216 63.231Z" fill="#8AB4FD"/>
<path d="M112.486 61.8287C112.396 61.849 112.312 61.8113 112.26 61.7475C112.208 61.6837 112.156 61.6199 112.136 61.5301C112.142 61.4721 112.116 61.4402 112.154 61.3562C112.16 61.2983 112.25 61.2781 112.308 61.2839C112.366 61.2897 112.424 61.2956 112.476 61.3593C112.528 61.4231 112.554 61.455 112.606 61.5188C112.678 61.6724 112.634 61.8144 112.486 61.8287Z" fill="#8AB4FD"/>
<path d="M114.232 61.9459C114.142 61.9662 114.058 61.9284 114.006 61.8647C113.954 61.8009 113.902 61.7371 113.882 61.6473C113.888 61.5893 113.862 61.5574 113.9 61.4734C113.907 61.4155 113.996 61.3953 114.054 61.4011C114.112 61.4069 114.17 61.4128 114.222 61.4765C114.274 61.5403 114.3 61.5722 114.352 61.636C114.424 61.7896 114.38 61.9315 114.232 61.9459Z" fill="#8AB4FD"/>
<path d="M108.918 87.9681C108.822 88.0462 108.732 88.0665 108.584 88.0809C108.468 88.0692 108.274 87.9619 108.124 87.7126C108.072 87.6488 108.046 87.6169 108.026 87.5271C108.007 87.4372 107.987 87.3474 108.019 87.3213C108.099 86.8317 108.361 86.5653 108.617 86.3569C108.681 86.3047 108.777 86.2266 108.893 86.2382C109.009 86.2499 109.197 86.4152 109.289 86.6586C109.458 86.9977 109.454 87.3193 109.378 87.4874C109.27 87.6814 109.078 87.8378 108.918 87.9681Z" fill="#8AB4FD"/>
<path d="M109.967 84.9389C109.845 84.9851 109.671 84.9677 109.625 84.8459C109.599 84.814 109.605 84.7561 109.611 84.6981C109.627 84.2606 109.849 83.8146 110.202 83.5279C110.298 83.4498 110.419 83.4035 110.535 83.4151C110.619 83.4529 110.639 83.5427 110.691 83.6065C110.731 83.7861 110.713 83.96 110.637 84.128C110.491 84.4061 110.211 84.8463 109.967 84.9389Z" fill="#8AB4FD"/>
<path d="M106.731 90.3816C106.821 90.3614 106.931 90.431 106.919 90.5469C106.945 90.5788 106.913 90.6048 106.881 90.6309C106.766 90.8829 106.51 91.0914 106.266 91.1839C106.176 91.2041 106.087 91.2244 106.035 91.1606C106.009 91.1287 106.015 91.0708 106.021 91.0128C106.033 90.8969 106.103 90.7869 106.199 90.7087C106.301 90.5726 106.557 90.3641 106.731 90.3816Z" fill="#8AB4FD"/>
<path d="M100.602 92.9858C100.686 93.0235 100.7 93.1713 100.636 93.2234C100.604 93.2494 100.604 93.2494 100.572 93.2755C100.296 93.3941 99.9997 93.4229 99.7479 93.3098C99.664 93.272 99.5801 93.2343 99.5861 93.1764C99.5921 93.1184 99.6241 93.0924 99.6561 93.0663C99.7522 92.9881 99.8741 92.9418 99.9641 92.9216C100.144 92.8812 100.466 92.8843 100.602 92.9858Z" fill="#8AB4FD"/>
<path d="M111.536 85.0398C111.575 84.9557 111.639 84.9036 111.728 84.8834C111.754 84.9153 111.786 84.8892 111.812 84.9211C112.026 85.1183 112.176 85.3676 112.172 85.6892C112.192 85.779 112.154 85.863 112.09 85.9151C112.058 85.9412 112 85.9354 111.942 85.9295C111.832 85.8599 111.754 85.7643 111.702 85.7005C111.636 85.4889 111.518 85.2136 111.536 85.0398Z" fill="#8AB4FD"/>
<path d="M98.1953 90.8113C98.0534 90.7678 97.8916 90.6344 97.8198 90.4808C97.7219 90.2953 97.7721 90.0954 97.8542 89.8694C97.9423 89.5855 98.0824 89.3654 98.2805 89.1511C98.4405 89.0208 98.5685 88.9166 98.7744 88.908C98.9483 88.9255 99.1422 89.0328 99.246 89.1604C99.3758 89.3198 99.5057 89.4793 99.4875 89.6531C99.4954 89.8589 99.3873 90.0529 99.2212 90.2411C99.0171 90.5134 98.5371 90.9043 98.1953 90.8113Z" fill="#8AB4FD"/>
<path d="M102.996 91.674C102.738 91.6188 102.524 91.4216 102.401 91.2042C102.309 90.9608 102.307 90.6971 102.305 90.4334C102.323 90.2596 102.399 90.0916 102.527 89.9873C102.687 89.857 102.919 89.8804 103.087 89.9558C103.255 90.0313 103.385 90.1907 103.483 90.3762C103.58 90.5617 103.646 90.7733 103.654 90.979C103.702 91.3644 103.37 91.7409 102.996 91.674Z" fill="#8AB4FD"/>
<path d="M105.535 87.2755C105.277 87.2203 105.063 87.0232 104.94 86.8058C104.848 86.5623 104.846 86.2987 104.844 86.035C104.862 85.8611 104.938 85.6931 105.066 85.5889C105.226 85.4586 105.458 85.4819 105.626 85.5574C105.794 85.6328 105.924 85.7923 106.022 85.9778C106.119 86.1633 106.185 86.3748 106.193 86.5806C106.267 86.9978 105.935 87.3743 105.535 87.2755Z" fill="#8AB4FD"/>
<path d="M104.125 88.6862C104.067 88.6803 103.958 88.6107 103.938 88.5209C103.886 88.4571 103.898 88.3412 103.904 88.2833C103.91 88.2253 103.916 88.1674 104.006 88.1472C104.038 88.1211 104.128 88.1009 104.18 88.1647C104.238 88.1705 104.29 88.2343 104.284 88.2922C104.336 88.356 104.329 88.4139 104.323 88.4719C104.369 88.5936 104.267 88.7297 104.125 88.6862Z" fill="#8AB4FD"/>
<path d="M109.715 89.5983C109.657 89.5924 109.547 89.5228 109.527 89.433C109.476 89.3692 109.488 89.2533 109.494 89.1954C109.5 89.1374 109.506 89.0795 109.596 89.0593C109.628 89.0332 109.718 89.013 109.77 89.0768C109.828 89.0826 109.879 89.1464 109.873 89.2043C109.925 89.2681 109.919 89.326 109.913 89.384C109.933 89.4738 109.831 89.6099 109.715 89.5983Z" fill="#8AB4FD"/>
<path d="M110.478 87.5971C110.516 87.5131 110.58 87.461 110.67 87.4408C110.76 87.4206 110.818 87.4264 110.902 87.4641C110.959 87.4699 110.985 87.5018 111.037 87.5656C111.063 87.5975 111.025 87.6815 111.019 87.7394C110.987 87.7655 110.923 87.8176 110.865 87.8118C110.807 87.806 110.717 87.8262 110.659 87.8204C110.569 87.8406 110.466 87.713 110.478 87.5971Z" fill="#8AB4FD"/>
<path d="M112.489 87.1252C112.431 87.1194 112.405 87.0875 112.379 87.0556C112.353 87.0237 112.359 86.9658 112.391 86.9397C112.391 86.9397 112.397 86.8818 112.429 86.8557C112.461 86.8297 112.487 86.8616 112.519 86.8355C112.545 86.8674 112.545 86.8674 112.571 86.8993C112.597 86.9312 112.597 86.9312 112.591 86.9891C112.579 87.105 112.547 87.1311 112.489 87.1252Z" fill="#8AB4FD"/>
<path d="M110.457 86.6584C110.399 86.6526 110.373 86.6207 110.347 86.5888C110.321 86.5569 110.327 86.499 110.36 86.4729C110.36 86.4729 110.366 86.415 110.398 86.3889C110.43 86.3629 110.456 86.3948 110.488 86.3687C110.513 86.4006 110.513 86.4006 110.539 86.4325C110.565 86.4644 110.565 86.4644 110.559 86.5223C110.579 86.6122 110.515 86.6643 110.457 86.6584Z" fill="#8AB4FD"/>
<path d="M113.2 85.6448C113.142 85.6389 113.116 85.607 113.09 85.5752C113.064 85.5433 113.07 85.4853 113.102 85.4593C113.102 85.4593 113.108 85.4013 113.14 85.3753C113.172 85.3492 113.198 85.3811 113.23 85.355C113.256 85.3869 113.256 85.3869 113.282 85.4188C113.308 85.4507 113.334 85.4826 113.302 85.5086C113.289 85.6245 113.257 85.6506 113.2 85.6448Z" fill="#8AB4FD"/>
<path d="M112.176 83.6686C112.092 83.6309 112.008 83.5932 111.988 83.5033C111.936 83.4395 111.949 83.3236 111.955 83.2657C111.961 83.2078 111.967 83.1498 112.057 83.1296C112.089 83.1035 112.179 83.0833 112.231 83.1471C112.288 83.1529 112.34 83.2167 112.334 83.2746C112.386 83.3384 112.38 83.3964 112.374 83.4543C112.42 83.576 112.318 83.7121 112.176 83.6686Z" fill="#8AB4FD"/>
<path d="M113.735 84.4694C113.677 84.4635 113.567 84.3939 113.547 84.3041C113.495 84.2403 113.507 84.1244 113.513 84.0665C113.519 84.0085 113.525 83.9506 113.615 83.9304C113.647 83.9043 113.737 83.8841 113.789 83.9479C113.847 83.9537 113.899 84.0175 113.893 84.0754C113.945 84.1392 113.939 84.1971 113.933 84.2551C113.947 84.4029 113.845 84.539 113.735 84.4694Z" fill="#8AB4FD"/>
<path d="M95.3069 67.391C90.5412 83.8922 88.3358 101.119 88.8331 118.267" stroke="#C7DBFD" stroke-width="0.6622" stroke-miterlimit="10" stroke-linecap="round" stroke-linejoin="round"/>
<path d="M80.9579 92.3845C81.9916 97.6412 84.0675 101.89 89.0617 103.71C89.9071 104.029 94.3253 103.508 97.5395 101.05" stroke="#C7DBFD" stroke-width="0.6622" stroke-miterlimit="10" stroke-linecap="round" stroke-linejoin="round"/>
<path d="M84.2251 75.0865C84.4847 81.0266 89.3684 86.4364 95.2189 87.3469C97.0358 87.6175 99.0429 87.4681 100.457 86.2636" stroke="#C7DBFD" stroke-width="0.6622" stroke-miterlimit="10" stroke-linecap="round" stroke-linejoin="round"/>
<path d="M89.8199 63.0038C90.1181 65.2003 90.8023 67.3477 91.7943 69.3505C92.6167 71.0142 93.8769 72.6926 95.6817 73.0791C96.9709 73.3552 98.3005 72.962 99.3965 72.2817C100.492 71.6015 101.413 70.6401 102.275 69.6729" stroke="#C7DBFD" stroke-width="0.6622" stroke-miterlimit="10" stroke-linecap="round" stroke-linejoin="round"/>
<path d="M47.4255 85.5844C44.1957 76.3886 41.9702 66.2692 44.7896 56.9207C46.1682 52.4044 49.3419 47.8051 54.024 47.2807C57.9085 46.8224 61.5369 49.3832 63.9395 52.4647C66.9591 56.3695 68.5689 61.1572 69.8308 65.9099C73.9318 81.078 75.3856 96.9166 80.4884 111.746C81.5058 114.63 82.647 117.731 81.7853 120.66C80.9997 123.421 78.3754 125.557 75.5127 125.767C67.87 126.316 63.4664 117.705 60.1339 112.304C54.9725 103.939 50.6951 94.9599 47.4255 85.5844Z" fill="#15A9F2"/>
<path d="M52.9257 47.6963C52.2728 63.2352 55.8418 78.7304 61.5085 93.2069C67.2073 107.657 75.0237 121.179 83.2241 134.388" stroke="#03023F" stroke-width="0.4868" stroke-miterlimit="10" stroke-linecap="round" stroke-linejoin="round"/>
<path d="M57.3817 122.714L67.5153 108.099C67.5153 108.099 53.0951 73.9171 40.3568 71.933C40.3568 71.933 25.5096 47.7499 18.3161 51.857C11.1486 55.9959 23.4821 75.9153 23.4821 75.9153C23.4821 75.9153 13.1951 89.7531 57.3817 122.714Z" fill="#FDD52E"/>
<path d="M18.3468 51.8304C18.3468 51.8304 36.7069 88.956 62.5812 115.244" stroke="#03023F" stroke-width="0.4868" stroke-miterlimit="10" stroke-linecap="round" stroke-linejoin="round"/>
</g>
<defs>
<clipPath id="clip0_1201_31709">
<rect width="98.1305" height="92.0687" fill="white" transform="matrix(-0.422905 0.906174 0.906174 0.422905 23.5664 0)"/>
</clipPath>
<clipPath id="clip1_1201_31709">
<rect width="90.6287" height="105.149" fill="white" transform="translate(3 64.2227) rotate(-39.1529)"/>
</clipPath>
</defs>
</svg>
